G75*
%MOIN*%
%OFA0B0*%
%FSLAX25Y25*%
%IPPOS*%
%LPD*%
%AMOC8*
5,1,8,0,0,1.08239X$1,22.5*
%
%ADD10C,0.00000*%
%ADD11C,0.01200*%
%ADD12C,0.07400*%
%ADD13OC8,0.07400*%
%ADD14C,0.05543*%
%ADD15OC8,0.06600*%
%ADD16C,0.05200*%
%ADD17C,0.01040*%
%ADD18OC8,0.05200*%
%ADD19C,0.02400*%
D10*
X0124063Y0058526D02*
X0124065Y0058651D01*
X0124071Y0058776D01*
X0124081Y0058900D01*
X0124095Y0059024D01*
X0124112Y0059148D01*
X0124134Y0059271D01*
X0124160Y0059393D01*
X0124189Y0059515D01*
X0124222Y0059635D01*
X0124260Y0059754D01*
X0124300Y0059873D01*
X0124345Y0059989D01*
X0124393Y0060104D01*
X0124445Y0060218D01*
X0124501Y0060330D01*
X0124560Y0060440D01*
X0124622Y0060548D01*
X0124688Y0060655D01*
X0124757Y0060759D01*
X0124830Y0060860D01*
X0124905Y0060960D01*
X0124984Y0061057D01*
X0125066Y0061151D01*
X0125151Y0061243D01*
X0125238Y0061332D01*
X0125329Y0061418D01*
X0125422Y0061501D01*
X0125518Y0061582D01*
X0125616Y0061659D01*
X0125716Y0061733D01*
X0125819Y0061804D01*
X0125924Y0061871D01*
X0126032Y0061936D01*
X0126141Y0061996D01*
X0126252Y0062054D01*
X0126365Y0062107D01*
X0126479Y0062157D01*
X0126595Y0062204D01*
X0126712Y0062246D01*
X0126831Y0062285D01*
X0126951Y0062321D01*
X0127072Y0062352D01*
X0127194Y0062380D01*
X0127316Y0062403D01*
X0127440Y0062423D01*
X0127564Y0062439D01*
X0127688Y0062451D01*
X0127813Y0062459D01*
X0127938Y0062463D01*
X0128062Y0062463D01*
X0128187Y0062459D01*
X0128312Y0062451D01*
X0128436Y0062439D01*
X0128560Y0062423D01*
X0128684Y0062403D01*
X0128806Y0062380D01*
X0128928Y0062352D01*
X0129049Y0062321D01*
X0129169Y0062285D01*
X0129288Y0062246D01*
X0129405Y0062204D01*
X0129521Y0062157D01*
X0129635Y0062107D01*
X0129748Y0062054D01*
X0129859Y0061996D01*
X0129969Y0061936D01*
X0130076Y0061871D01*
X0130181Y0061804D01*
X0130284Y0061733D01*
X0130384Y0061659D01*
X0130482Y0061582D01*
X0130578Y0061501D01*
X0130671Y0061418D01*
X0130762Y0061332D01*
X0130849Y0061243D01*
X0130934Y0061151D01*
X0131016Y0061057D01*
X0131095Y0060960D01*
X0131170Y0060860D01*
X0131243Y0060759D01*
X0131312Y0060655D01*
X0131378Y0060548D01*
X0131440Y0060440D01*
X0131499Y0060330D01*
X0131555Y0060218D01*
X0131607Y0060104D01*
X0131655Y0059989D01*
X0131700Y0059873D01*
X0131740Y0059754D01*
X0131778Y0059635D01*
X0131811Y0059515D01*
X0131840Y0059393D01*
X0131866Y0059271D01*
X0131888Y0059148D01*
X0131905Y0059024D01*
X0131919Y0058900D01*
X0131929Y0058776D01*
X0131935Y0058651D01*
X0131937Y0058526D01*
X0131935Y0058401D01*
X0131929Y0058276D01*
X0131919Y0058152D01*
X0131905Y0058028D01*
X0131888Y0057904D01*
X0131866Y0057781D01*
X0131840Y0057659D01*
X0131811Y0057537D01*
X0131778Y0057417D01*
X0131740Y0057298D01*
X0131700Y0057179D01*
X0131655Y0057063D01*
X0131607Y0056948D01*
X0131555Y0056834D01*
X0131499Y0056722D01*
X0131440Y0056612D01*
X0131378Y0056504D01*
X0131312Y0056397D01*
X0131243Y0056293D01*
X0131170Y0056192D01*
X0131095Y0056092D01*
X0131016Y0055995D01*
X0130934Y0055901D01*
X0130849Y0055809D01*
X0130762Y0055720D01*
X0130671Y0055634D01*
X0130578Y0055551D01*
X0130482Y0055470D01*
X0130384Y0055393D01*
X0130284Y0055319D01*
X0130181Y0055248D01*
X0130076Y0055181D01*
X0129968Y0055116D01*
X0129859Y0055056D01*
X0129748Y0054998D01*
X0129635Y0054945D01*
X0129521Y0054895D01*
X0129405Y0054848D01*
X0129288Y0054806D01*
X0129169Y0054767D01*
X0129049Y0054731D01*
X0128928Y0054700D01*
X0128806Y0054672D01*
X0128684Y0054649D01*
X0128560Y0054629D01*
X0128436Y0054613D01*
X0128312Y0054601D01*
X0128187Y0054593D01*
X0128062Y0054589D01*
X0127938Y0054589D01*
X0127813Y0054593D01*
X0127688Y0054601D01*
X0127564Y0054613D01*
X0127440Y0054629D01*
X0127316Y0054649D01*
X0127194Y0054672D01*
X0127072Y0054700D01*
X0126951Y0054731D01*
X0126831Y0054767D01*
X0126712Y0054806D01*
X0126595Y0054848D01*
X0126479Y0054895D01*
X0126365Y0054945D01*
X0126252Y0054998D01*
X0126141Y0055056D01*
X0126031Y0055116D01*
X0125924Y0055181D01*
X0125819Y0055248D01*
X0125716Y0055319D01*
X0125616Y0055393D01*
X0125518Y0055470D01*
X0125422Y0055551D01*
X0125329Y0055634D01*
X0125238Y0055720D01*
X0125151Y0055809D01*
X0125066Y0055901D01*
X0124984Y0055995D01*
X0124905Y0056092D01*
X0124830Y0056192D01*
X0124757Y0056293D01*
X0124688Y0056397D01*
X0124622Y0056504D01*
X0124560Y0056612D01*
X0124501Y0056722D01*
X0124445Y0056834D01*
X0124393Y0056948D01*
X0124345Y0057063D01*
X0124300Y0057179D01*
X0124260Y0057298D01*
X0124222Y0057417D01*
X0124189Y0057537D01*
X0124160Y0057659D01*
X0124134Y0057781D01*
X0124112Y0057904D01*
X0124095Y0058028D01*
X0124081Y0058152D01*
X0124071Y0058276D01*
X0124065Y0058401D01*
X0124063Y0058526D01*
X0183701Y0026928D02*
X0183703Y0027086D01*
X0183709Y0027244D01*
X0183719Y0027402D01*
X0183733Y0027560D01*
X0183751Y0027717D01*
X0183772Y0027874D01*
X0183798Y0028030D01*
X0183828Y0028186D01*
X0183861Y0028341D01*
X0183899Y0028494D01*
X0183940Y0028647D01*
X0183985Y0028799D01*
X0184034Y0028950D01*
X0184087Y0029099D01*
X0184143Y0029247D01*
X0184203Y0029393D01*
X0184267Y0029538D01*
X0184335Y0029681D01*
X0184406Y0029823D01*
X0184480Y0029963D01*
X0184558Y0030100D01*
X0184640Y0030236D01*
X0184724Y0030370D01*
X0184813Y0030501D01*
X0184904Y0030630D01*
X0184999Y0030757D01*
X0185096Y0030882D01*
X0185197Y0031004D01*
X0185301Y0031123D01*
X0185408Y0031240D01*
X0185518Y0031354D01*
X0185631Y0031465D01*
X0185746Y0031574D01*
X0185864Y0031679D01*
X0185985Y0031781D01*
X0186108Y0031881D01*
X0186234Y0031977D01*
X0186362Y0032070D01*
X0186492Y0032160D01*
X0186625Y0032246D01*
X0186760Y0032330D01*
X0186896Y0032409D01*
X0187035Y0032486D01*
X0187176Y0032558D01*
X0187318Y0032628D01*
X0187462Y0032693D01*
X0187608Y0032755D01*
X0187755Y0032813D01*
X0187904Y0032868D01*
X0188054Y0032919D01*
X0188205Y0032966D01*
X0188357Y0033009D01*
X0188510Y0033048D01*
X0188665Y0033084D01*
X0188820Y0033115D01*
X0188976Y0033143D01*
X0189132Y0033167D01*
X0189289Y0033187D01*
X0189447Y0033203D01*
X0189604Y0033215D01*
X0189763Y0033223D01*
X0189921Y0033227D01*
X0190079Y0033227D01*
X0190237Y0033223D01*
X0190396Y0033215D01*
X0190553Y0033203D01*
X0190711Y0033187D01*
X0190868Y0033167D01*
X0191024Y0033143D01*
X0191180Y0033115D01*
X0191335Y0033084D01*
X0191490Y0033048D01*
X0191643Y0033009D01*
X0191795Y0032966D01*
X0191946Y0032919D01*
X0192096Y0032868D01*
X0192245Y0032813D01*
X0192392Y0032755D01*
X0192538Y0032693D01*
X0192682Y0032628D01*
X0192824Y0032558D01*
X0192965Y0032486D01*
X0193104Y0032409D01*
X0193240Y0032330D01*
X0193375Y0032246D01*
X0193508Y0032160D01*
X0193638Y0032070D01*
X0193766Y0031977D01*
X0193892Y0031881D01*
X0194015Y0031781D01*
X0194136Y0031679D01*
X0194254Y0031574D01*
X0194369Y0031465D01*
X0194482Y0031354D01*
X0194592Y0031240D01*
X0194699Y0031123D01*
X0194803Y0031004D01*
X0194904Y0030882D01*
X0195001Y0030757D01*
X0195096Y0030630D01*
X0195187Y0030501D01*
X0195276Y0030370D01*
X0195360Y0030236D01*
X0195442Y0030100D01*
X0195520Y0029963D01*
X0195594Y0029823D01*
X0195665Y0029681D01*
X0195733Y0029538D01*
X0195797Y0029393D01*
X0195857Y0029247D01*
X0195913Y0029099D01*
X0195966Y0028950D01*
X0196015Y0028799D01*
X0196060Y0028647D01*
X0196101Y0028494D01*
X0196139Y0028341D01*
X0196172Y0028186D01*
X0196202Y0028030D01*
X0196228Y0027874D01*
X0196249Y0027717D01*
X0196267Y0027560D01*
X0196281Y0027402D01*
X0196291Y0027244D01*
X0196297Y0027086D01*
X0196299Y0026928D01*
X0196297Y0026770D01*
X0196291Y0026612D01*
X0196281Y0026454D01*
X0196267Y0026296D01*
X0196249Y0026139D01*
X0196228Y0025982D01*
X0196202Y0025826D01*
X0196172Y0025670D01*
X0196139Y0025515D01*
X0196101Y0025362D01*
X0196060Y0025209D01*
X0196015Y0025057D01*
X0195966Y0024906D01*
X0195913Y0024757D01*
X0195857Y0024609D01*
X0195797Y0024463D01*
X0195733Y0024318D01*
X0195665Y0024175D01*
X0195594Y0024033D01*
X0195520Y0023893D01*
X0195442Y0023756D01*
X0195360Y0023620D01*
X0195276Y0023486D01*
X0195187Y0023355D01*
X0195096Y0023226D01*
X0195001Y0023099D01*
X0194904Y0022974D01*
X0194803Y0022852D01*
X0194699Y0022733D01*
X0194592Y0022616D01*
X0194482Y0022502D01*
X0194369Y0022391D01*
X0194254Y0022282D01*
X0194136Y0022177D01*
X0194015Y0022075D01*
X0193892Y0021975D01*
X0193766Y0021879D01*
X0193638Y0021786D01*
X0193508Y0021696D01*
X0193375Y0021610D01*
X0193240Y0021526D01*
X0193104Y0021447D01*
X0192965Y0021370D01*
X0192824Y0021298D01*
X0192682Y0021228D01*
X0192538Y0021163D01*
X0192392Y0021101D01*
X0192245Y0021043D01*
X0192096Y0020988D01*
X0191946Y0020937D01*
X0191795Y0020890D01*
X0191643Y0020847D01*
X0191490Y0020808D01*
X0191335Y0020772D01*
X0191180Y0020741D01*
X0191024Y0020713D01*
X0190868Y0020689D01*
X0190711Y0020669D01*
X0190553Y0020653D01*
X0190396Y0020641D01*
X0190237Y0020633D01*
X0190079Y0020629D01*
X0189921Y0020629D01*
X0189763Y0020633D01*
X0189604Y0020641D01*
X0189447Y0020653D01*
X0189289Y0020669D01*
X0189132Y0020689D01*
X0188976Y0020713D01*
X0188820Y0020741D01*
X0188665Y0020772D01*
X0188510Y0020808D01*
X0188357Y0020847D01*
X0188205Y0020890D01*
X0188054Y0020937D01*
X0187904Y0020988D01*
X0187755Y0021043D01*
X0187608Y0021101D01*
X0187462Y0021163D01*
X0187318Y0021228D01*
X0187176Y0021298D01*
X0187035Y0021370D01*
X0186896Y0021447D01*
X0186760Y0021526D01*
X0186625Y0021610D01*
X0186492Y0021696D01*
X0186362Y0021786D01*
X0186234Y0021879D01*
X0186108Y0021975D01*
X0185985Y0022075D01*
X0185864Y0022177D01*
X0185746Y0022282D01*
X0185631Y0022391D01*
X0185518Y0022502D01*
X0185408Y0022616D01*
X0185301Y0022733D01*
X0185197Y0022852D01*
X0185096Y0022974D01*
X0184999Y0023099D01*
X0184904Y0023226D01*
X0184813Y0023355D01*
X0184724Y0023486D01*
X0184640Y0023620D01*
X0184558Y0023756D01*
X0184480Y0023893D01*
X0184406Y0024033D01*
X0184335Y0024175D01*
X0184267Y0024318D01*
X0184203Y0024463D01*
X0184143Y0024609D01*
X0184087Y0024757D01*
X0184034Y0024906D01*
X0183985Y0025057D01*
X0183940Y0025209D01*
X0183899Y0025362D01*
X0183861Y0025515D01*
X0183828Y0025670D01*
X0183798Y0025826D01*
X0183772Y0025982D01*
X0183751Y0026139D01*
X0183733Y0026296D01*
X0183719Y0026454D01*
X0183709Y0026612D01*
X0183703Y0026770D01*
X0183701Y0026928D01*
X0209921Y0031849D02*
X0210000Y0031928D01*
X0124063Y0199550D02*
X0124065Y0199675D01*
X0124071Y0199800D01*
X0124081Y0199924D01*
X0124095Y0200048D01*
X0124112Y0200172D01*
X0124134Y0200295D01*
X0124160Y0200417D01*
X0124189Y0200539D01*
X0124222Y0200659D01*
X0124260Y0200778D01*
X0124300Y0200897D01*
X0124345Y0201013D01*
X0124393Y0201128D01*
X0124445Y0201242D01*
X0124501Y0201354D01*
X0124560Y0201464D01*
X0124622Y0201572D01*
X0124688Y0201679D01*
X0124757Y0201783D01*
X0124830Y0201884D01*
X0124905Y0201984D01*
X0124984Y0202081D01*
X0125066Y0202175D01*
X0125151Y0202267D01*
X0125238Y0202356D01*
X0125329Y0202442D01*
X0125422Y0202525D01*
X0125518Y0202606D01*
X0125616Y0202683D01*
X0125716Y0202757D01*
X0125819Y0202828D01*
X0125924Y0202895D01*
X0126032Y0202960D01*
X0126141Y0203020D01*
X0126252Y0203078D01*
X0126365Y0203131D01*
X0126479Y0203181D01*
X0126595Y0203228D01*
X0126712Y0203270D01*
X0126831Y0203309D01*
X0126951Y0203345D01*
X0127072Y0203376D01*
X0127194Y0203404D01*
X0127316Y0203427D01*
X0127440Y0203447D01*
X0127564Y0203463D01*
X0127688Y0203475D01*
X0127813Y0203483D01*
X0127938Y0203487D01*
X0128062Y0203487D01*
X0128187Y0203483D01*
X0128312Y0203475D01*
X0128436Y0203463D01*
X0128560Y0203447D01*
X0128684Y0203427D01*
X0128806Y0203404D01*
X0128928Y0203376D01*
X0129049Y0203345D01*
X0129169Y0203309D01*
X0129288Y0203270D01*
X0129405Y0203228D01*
X0129521Y0203181D01*
X0129635Y0203131D01*
X0129748Y0203078D01*
X0129859Y0203020D01*
X0129969Y0202960D01*
X0130076Y0202895D01*
X0130181Y0202828D01*
X0130284Y0202757D01*
X0130384Y0202683D01*
X0130482Y0202606D01*
X0130578Y0202525D01*
X0130671Y0202442D01*
X0130762Y0202356D01*
X0130849Y0202267D01*
X0130934Y0202175D01*
X0131016Y0202081D01*
X0131095Y0201984D01*
X0131170Y0201884D01*
X0131243Y0201783D01*
X0131312Y0201679D01*
X0131378Y0201572D01*
X0131440Y0201464D01*
X0131499Y0201354D01*
X0131555Y0201242D01*
X0131607Y0201128D01*
X0131655Y0201013D01*
X0131700Y0200897D01*
X0131740Y0200778D01*
X0131778Y0200659D01*
X0131811Y0200539D01*
X0131840Y0200417D01*
X0131866Y0200295D01*
X0131888Y0200172D01*
X0131905Y0200048D01*
X0131919Y0199924D01*
X0131929Y0199800D01*
X0131935Y0199675D01*
X0131937Y0199550D01*
X0131935Y0199425D01*
X0131929Y0199300D01*
X0131919Y0199176D01*
X0131905Y0199052D01*
X0131888Y0198928D01*
X0131866Y0198805D01*
X0131840Y0198683D01*
X0131811Y0198561D01*
X0131778Y0198441D01*
X0131740Y0198322D01*
X0131700Y0198203D01*
X0131655Y0198087D01*
X0131607Y0197972D01*
X0131555Y0197858D01*
X0131499Y0197746D01*
X0131440Y0197636D01*
X0131378Y0197528D01*
X0131312Y0197421D01*
X0131243Y0197317D01*
X0131170Y0197216D01*
X0131095Y0197116D01*
X0131016Y0197019D01*
X0130934Y0196925D01*
X0130849Y0196833D01*
X0130762Y0196744D01*
X0130671Y0196658D01*
X0130578Y0196575D01*
X0130482Y0196494D01*
X0130384Y0196417D01*
X0130284Y0196343D01*
X0130181Y0196272D01*
X0130076Y0196205D01*
X0129968Y0196140D01*
X0129859Y0196080D01*
X0129748Y0196022D01*
X0129635Y0195969D01*
X0129521Y0195919D01*
X0129405Y0195872D01*
X0129288Y0195830D01*
X0129169Y0195791D01*
X0129049Y0195755D01*
X0128928Y0195724D01*
X0128806Y0195696D01*
X0128684Y0195673D01*
X0128560Y0195653D01*
X0128436Y0195637D01*
X0128312Y0195625D01*
X0128187Y0195617D01*
X0128062Y0195613D01*
X0127938Y0195613D01*
X0127813Y0195617D01*
X0127688Y0195625D01*
X0127564Y0195637D01*
X0127440Y0195653D01*
X0127316Y0195673D01*
X0127194Y0195696D01*
X0127072Y0195724D01*
X0126951Y0195755D01*
X0126831Y0195791D01*
X0126712Y0195830D01*
X0126595Y0195872D01*
X0126479Y0195919D01*
X0126365Y0195969D01*
X0126252Y0196022D01*
X0126141Y0196080D01*
X0126031Y0196140D01*
X0125924Y0196205D01*
X0125819Y0196272D01*
X0125716Y0196343D01*
X0125616Y0196417D01*
X0125518Y0196494D01*
X0125422Y0196575D01*
X0125329Y0196658D01*
X0125238Y0196744D01*
X0125151Y0196833D01*
X0125066Y0196925D01*
X0124984Y0197019D01*
X0124905Y0197116D01*
X0124830Y0197216D01*
X0124757Y0197317D01*
X0124688Y0197421D01*
X0124622Y0197528D01*
X0124560Y0197636D01*
X0124501Y0197746D01*
X0124445Y0197858D01*
X0124393Y0197972D01*
X0124345Y0198087D01*
X0124300Y0198203D01*
X0124260Y0198322D01*
X0124222Y0198441D01*
X0124189Y0198561D01*
X0124160Y0198683D01*
X0124134Y0198805D01*
X0124112Y0198928D01*
X0124095Y0199052D01*
X0124081Y0199176D01*
X0124071Y0199300D01*
X0124065Y0199425D01*
X0124063Y0199550D01*
X0158701Y0216928D02*
X0158703Y0217086D01*
X0158709Y0217244D01*
X0158719Y0217402D01*
X0158733Y0217560D01*
X0158751Y0217717D01*
X0158772Y0217874D01*
X0158798Y0218030D01*
X0158828Y0218186D01*
X0158861Y0218341D01*
X0158899Y0218494D01*
X0158940Y0218647D01*
X0158985Y0218799D01*
X0159034Y0218950D01*
X0159087Y0219099D01*
X0159143Y0219247D01*
X0159203Y0219393D01*
X0159267Y0219538D01*
X0159335Y0219681D01*
X0159406Y0219823D01*
X0159480Y0219963D01*
X0159558Y0220100D01*
X0159640Y0220236D01*
X0159724Y0220370D01*
X0159813Y0220501D01*
X0159904Y0220630D01*
X0159999Y0220757D01*
X0160096Y0220882D01*
X0160197Y0221004D01*
X0160301Y0221123D01*
X0160408Y0221240D01*
X0160518Y0221354D01*
X0160631Y0221465D01*
X0160746Y0221574D01*
X0160864Y0221679D01*
X0160985Y0221781D01*
X0161108Y0221881D01*
X0161234Y0221977D01*
X0161362Y0222070D01*
X0161492Y0222160D01*
X0161625Y0222246D01*
X0161760Y0222330D01*
X0161896Y0222409D01*
X0162035Y0222486D01*
X0162176Y0222558D01*
X0162318Y0222628D01*
X0162462Y0222693D01*
X0162608Y0222755D01*
X0162755Y0222813D01*
X0162904Y0222868D01*
X0163054Y0222919D01*
X0163205Y0222966D01*
X0163357Y0223009D01*
X0163510Y0223048D01*
X0163665Y0223084D01*
X0163820Y0223115D01*
X0163976Y0223143D01*
X0164132Y0223167D01*
X0164289Y0223187D01*
X0164447Y0223203D01*
X0164604Y0223215D01*
X0164763Y0223223D01*
X0164921Y0223227D01*
X0165079Y0223227D01*
X0165237Y0223223D01*
X0165396Y0223215D01*
X0165553Y0223203D01*
X0165711Y0223187D01*
X0165868Y0223167D01*
X0166024Y0223143D01*
X0166180Y0223115D01*
X0166335Y0223084D01*
X0166490Y0223048D01*
X0166643Y0223009D01*
X0166795Y0222966D01*
X0166946Y0222919D01*
X0167096Y0222868D01*
X0167245Y0222813D01*
X0167392Y0222755D01*
X0167538Y0222693D01*
X0167682Y0222628D01*
X0167824Y0222558D01*
X0167965Y0222486D01*
X0168104Y0222409D01*
X0168240Y0222330D01*
X0168375Y0222246D01*
X0168508Y0222160D01*
X0168638Y0222070D01*
X0168766Y0221977D01*
X0168892Y0221881D01*
X0169015Y0221781D01*
X0169136Y0221679D01*
X0169254Y0221574D01*
X0169369Y0221465D01*
X0169482Y0221354D01*
X0169592Y0221240D01*
X0169699Y0221123D01*
X0169803Y0221004D01*
X0169904Y0220882D01*
X0170001Y0220757D01*
X0170096Y0220630D01*
X0170187Y0220501D01*
X0170276Y0220370D01*
X0170360Y0220236D01*
X0170442Y0220100D01*
X0170520Y0219963D01*
X0170594Y0219823D01*
X0170665Y0219681D01*
X0170733Y0219538D01*
X0170797Y0219393D01*
X0170857Y0219247D01*
X0170913Y0219099D01*
X0170966Y0218950D01*
X0171015Y0218799D01*
X0171060Y0218647D01*
X0171101Y0218494D01*
X0171139Y0218341D01*
X0171172Y0218186D01*
X0171202Y0218030D01*
X0171228Y0217874D01*
X0171249Y0217717D01*
X0171267Y0217560D01*
X0171281Y0217402D01*
X0171291Y0217244D01*
X0171297Y0217086D01*
X0171299Y0216928D01*
X0171297Y0216770D01*
X0171291Y0216612D01*
X0171281Y0216454D01*
X0171267Y0216296D01*
X0171249Y0216139D01*
X0171228Y0215982D01*
X0171202Y0215826D01*
X0171172Y0215670D01*
X0171139Y0215515D01*
X0171101Y0215362D01*
X0171060Y0215209D01*
X0171015Y0215057D01*
X0170966Y0214906D01*
X0170913Y0214757D01*
X0170857Y0214609D01*
X0170797Y0214463D01*
X0170733Y0214318D01*
X0170665Y0214175D01*
X0170594Y0214033D01*
X0170520Y0213893D01*
X0170442Y0213756D01*
X0170360Y0213620D01*
X0170276Y0213486D01*
X0170187Y0213355D01*
X0170096Y0213226D01*
X0170001Y0213099D01*
X0169904Y0212974D01*
X0169803Y0212852D01*
X0169699Y0212733D01*
X0169592Y0212616D01*
X0169482Y0212502D01*
X0169369Y0212391D01*
X0169254Y0212282D01*
X0169136Y0212177D01*
X0169015Y0212075D01*
X0168892Y0211975D01*
X0168766Y0211879D01*
X0168638Y0211786D01*
X0168508Y0211696D01*
X0168375Y0211610D01*
X0168240Y0211526D01*
X0168104Y0211447D01*
X0167965Y0211370D01*
X0167824Y0211298D01*
X0167682Y0211228D01*
X0167538Y0211163D01*
X0167392Y0211101D01*
X0167245Y0211043D01*
X0167096Y0210988D01*
X0166946Y0210937D01*
X0166795Y0210890D01*
X0166643Y0210847D01*
X0166490Y0210808D01*
X0166335Y0210772D01*
X0166180Y0210741D01*
X0166024Y0210713D01*
X0165868Y0210689D01*
X0165711Y0210669D01*
X0165553Y0210653D01*
X0165396Y0210641D01*
X0165237Y0210633D01*
X0165079Y0210629D01*
X0164921Y0210629D01*
X0164763Y0210633D01*
X0164604Y0210641D01*
X0164447Y0210653D01*
X0164289Y0210669D01*
X0164132Y0210689D01*
X0163976Y0210713D01*
X0163820Y0210741D01*
X0163665Y0210772D01*
X0163510Y0210808D01*
X0163357Y0210847D01*
X0163205Y0210890D01*
X0163054Y0210937D01*
X0162904Y0210988D01*
X0162755Y0211043D01*
X0162608Y0211101D01*
X0162462Y0211163D01*
X0162318Y0211228D01*
X0162176Y0211298D01*
X0162035Y0211370D01*
X0161896Y0211447D01*
X0161760Y0211526D01*
X0161625Y0211610D01*
X0161492Y0211696D01*
X0161362Y0211786D01*
X0161234Y0211879D01*
X0161108Y0211975D01*
X0160985Y0212075D01*
X0160864Y0212177D01*
X0160746Y0212282D01*
X0160631Y0212391D01*
X0160518Y0212502D01*
X0160408Y0212616D01*
X0160301Y0212733D01*
X0160197Y0212852D01*
X0160096Y0212974D01*
X0159999Y0213099D01*
X0159904Y0213226D01*
X0159813Y0213355D01*
X0159724Y0213486D01*
X0159640Y0213620D01*
X0159558Y0213756D01*
X0159480Y0213893D01*
X0159406Y0214033D01*
X0159335Y0214175D01*
X0159267Y0214318D01*
X0159203Y0214463D01*
X0159143Y0214609D01*
X0159087Y0214757D01*
X0159034Y0214906D01*
X0158985Y0215057D01*
X0158940Y0215209D01*
X0158899Y0215362D01*
X0158861Y0215515D01*
X0158828Y0215670D01*
X0158798Y0215826D01*
X0158772Y0215982D01*
X0158751Y0216139D01*
X0158733Y0216296D01*
X0158719Y0216454D01*
X0158709Y0216612D01*
X0158703Y0216770D01*
X0158701Y0216928D01*
D11*
X0094500Y0226928D02*
X0094500Y0016928D01*
X0200000Y0016928D01*
X0200000Y0021928D01*
X0210000Y0031928D01*
X0210000Y0032428D02*
X0210000Y0166928D01*
X0200000Y0176928D01*
X0200000Y0219428D01*
X0192500Y0226928D01*
X0094500Y0226928D01*
D12*
X0100000Y0216928D03*
X0110000Y0216928D03*
X0120000Y0216928D03*
X0130000Y0216928D03*
X0140000Y0216928D03*
X0150000Y0216928D03*
X0180000Y0216928D03*
X0190000Y0216928D03*
X0190000Y0046928D03*
X0180000Y0046928D03*
X0170000Y0026928D03*
X0160000Y0026928D03*
X0150000Y0026928D03*
X0140000Y0026928D03*
X0130000Y0026928D03*
X0120000Y0026928D03*
X0110000Y0026928D03*
X0100000Y0026928D03*
D13*
X0180000Y0056928D03*
X0180000Y0066928D03*
X0180000Y0076928D03*
X0180000Y0086928D03*
X0180000Y0096928D03*
X0180000Y0106928D03*
X0180000Y0116928D03*
X0180000Y0126928D03*
X0180000Y0136928D03*
X0180000Y0146928D03*
X0180000Y0156928D03*
X0180000Y0166928D03*
X0180000Y0176928D03*
X0180000Y0186928D03*
X0180000Y0196928D03*
X0180000Y0206928D03*
X0190000Y0206928D03*
X0190000Y0196928D03*
X0190000Y0186928D03*
X0190000Y0176928D03*
X0190000Y0166928D03*
X0190000Y0156928D03*
X0190000Y0146928D03*
X0190000Y0136928D03*
X0190000Y0126928D03*
X0190000Y0116928D03*
X0190000Y0106928D03*
X0190000Y0096928D03*
X0190000Y0086928D03*
X0190000Y0076928D03*
X0190000Y0066928D03*
X0190000Y0056928D03*
D14*
X0145772Y0090928D02*
X0140228Y0090928D01*
X0140228Y0100928D02*
X0145772Y0100928D01*
X0145772Y0110928D02*
X0140228Y0110928D01*
X0140228Y0120928D02*
X0145772Y0120928D01*
X0145772Y0130928D02*
X0140228Y0130928D01*
X0140228Y0140928D02*
X0145772Y0140928D01*
X0145772Y0150928D02*
X0140228Y0150928D01*
X0140228Y0160928D02*
X0145772Y0160928D01*
X0145772Y0170928D02*
X0140228Y0170928D01*
X0140228Y0180928D02*
X0145772Y0180928D01*
X0115772Y0180928D02*
X0110228Y0180928D01*
X0110228Y0170928D02*
X0115772Y0170928D01*
X0115772Y0160928D02*
X0110228Y0160928D01*
X0110228Y0150928D02*
X0115772Y0150928D01*
X0115772Y0140928D02*
X0110228Y0140928D01*
X0110228Y0130928D02*
X0115772Y0130928D01*
X0115772Y0120928D02*
X0110228Y0120928D01*
X0110228Y0110928D02*
X0115772Y0110928D01*
X0115772Y0100928D02*
X0110228Y0100928D01*
X0110228Y0090928D02*
X0115772Y0090928D01*
D15*
X0168000Y0176928D03*
X0168000Y0186928D03*
D16*
X0125000Y0042028D02*
X0125000Y0036828D01*
X0115000Y0036828D02*
X0115000Y0042028D01*
X0105000Y0042028D02*
X0105000Y0036828D01*
D17*
X0161966Y0196612D02*
X0161446Y0196092D01*
X0161446Y0197814D01*
X0162664Y0199032D01*
X0164386Y0199032D01*
X0165604Y0197814D01*
X0165604Y0196092D01*
X0164386Y0194874D01*
X0162664Y0194874D01*
X0161446Y0196092D01*
X0162226Y0196415D01*
X0162226Y0197491D01*
X0162987Y0198252D01*
X0164063Y0198252D01*
X0164824Y0197491D01*
X0164824Y0196415D01*
X0164063Y0195654D01*
X0162987Y0195654D01*
X0162226Y0196415D01*
X0163006Y0196738D01*
X0163006Y0197168D01*
X0163310Y0197472D01*
X0163740Y0197472D01*
X0164044Y0197168D01*
X0164044Y0196738D01*
X0163740Y0196434D01*
X0163310Y0196434D01*
X0163006Y0196738D01*
X0169037Y0203683D02*
X0168517Y0203163D01*
X0168517Y0204885D01*
X0169735Y0206103D01*
X0171457Y0206103D01*
X0172675Y0204885D01*
X0172675Y0203163D01*
X0171457Y0201945D01*
X0169735Y0201945D01*
X0168517Y0203163D01*
X0169297Y0203486D01*
X0169297Y0204562D01*
X0170058Y0205323D01*
X0171134Y0205323D01*
X0171895Y0204562D01*
X0171895Y0203486D01*
X0171134Y0202725D01*
X0170058Y0202725D01*
X0169297Y0203486D01*
X0170077Y0203809D01*
X0170077Y0204239D01*
X0170381Y0204543D01*
X0170811Y0204543D01*
X0171115Y0204239D01*
X0171115Y0203809D01*
X0170811Y0203505D01*
X0170381Y0203505D01*
X0170077Y0203809D01*
D18*
X0170500Y0066928D03*
X0162500Y0066928D03*
X0162500Y0036928D03*
X0170500Y0036928D03*
D19*
X0174796Y0032455D02*
X0176700Y0034359D01*
X0176700Y0039496D01*
X0173068Y0043128D01*
X0167932Y0043128D01*
X0166500Y0041696D01*
X0165068Y0043128D01*
X0159932Y0043128D01*
X0156300Y0039496D01*
X0156300Y0034359D01*
X0157052Y0033608D01*
X0155865Y0033116D01*
X0155000Y0032251D01*
X0154135Y0033116D01*
X0151452Y0034228D01*
X0148548Y0034228D01*
X0145865Y0033116D01*
X0145000Y0032251D01*
X0144135Y0033116D01*
X0141452Y0034228D01*
X0138548Y0034228D01*
X0135865Y0033116D01*
X0135000Y0032251D01*
X0134135Y0033116D01*
X0131452Y0034228D01*
X0130634Y0034228D01*
X0131200Y0035594D01*
X0131200Y0043261D01*
X0130256Y0045540D01*
X0128512Y0047284D01*
X0126233Y0048228D01*
X0123767Y0048228D01*
X0121488Y0047284D01*
X0119744Y0045540D01*
X0119230Y0044299D01*
X0119105Y0044543D01*
X0118661Y0045155D01*
X0118127Y0045689D01*
X0117516Y0046133D01*
X0116843Y0046476D01*
X0116124Y0046709D01*
X0115378Y0046828D01*
X0115000Y0046828D01*
X0114622Y0046828D01*
X0113876Y0046709D01*
X0113157Y0046476D01*
X0112484Y0046133D01*
X0111873Y0045689D01*
X0111339Y0045155D01*
X0110895Y0044543D01*
X0110770Y0044299D01*
X0110256Y0045540D01*
X0108512Y0047284D01*
X0106233Y0048228D01*
X0103767Y0048228D01*
X0101488Y0047284D01*
X0100300Y0046096D01*
X0100300Y0209628D01*
X0101452Y0209628D01*
X0104135Y0210739D01*
X0105000Y0211604D01*
X0105865Y0210739D01*
X0108548Y0209628D01*
X0111452Y0209628D01*
X0114135Y0210739D01*
X0115000Y0211604D01*
X0115865Y0210739D01*
X0118548Y0209628D01*
X0121452Y0209628D01*
X0124135Y0210739D01*
X0125000Y0211604D01*
X0125865Y0210739D01*
X0128548Y0209628D01*
X0131452Y0209628D01*
X0134135Y0210739D01*
X0135000Y0211604D01*
X0135865Y0210739D01*
X0138548Y0209628D01*
X0141452Y0209628D01*
X0144135Y0210739D01*
X0145000Y0211604D01*
X0145865Y0210739D01*
X0148548Y0209628D01*
X0151452Y0209628D01*
X0154135Y0210739D01*
X0154870Y0211474D01*
X0155798Y0209867D01*
X0157939Y0207726D01*
X0160561Y0206212D01*
X0163486Y0205428D01*
X0164396Y0205428D01*
X0164396Y0203153D01*
X0160957Y0203153D01*
X0157325Y0199521D01*
X0157325Y0194385D01*
X0160957Y0190753D01*
X0162067Y0190753D01*
X0161100Y0189786D01*
X0161100Y0184069D01*
X0164232Y0180938D01*
X0162500Y0179206D01*
X0162500Y0176928D01*
X0168000Y0176928D01*
X0168000Y0176927D01*
X0168000Y0171428D01*
X0170278Y0171428D01*
X0172727Y0173877D01*
X0174676Y0171928D01*
X0172700Y0169951D01*
X0172700Y0163904D01*
X0174676Y0161928D01*
X0172700Y0159951D01*
X0172700Y0153904D01*
X0174676Y0151928D01*
X0172700Y0149951D01*
X0172700Y0143904D01*
X0174676Y0141928D01*
X0172700Y0139951D01*
X0172700Y0133904D01*
X0174676Y0131928D01*
X0172700Y0129951D01*
X0172700Y0123904D01*
X0174676Y0121928D01*
X0172700Y0119951D01*
X0172700Y0113904D01*
X0174676Y0111928D01*
X0172700Y0109951D01*
X0172700Y0103904D01*
X0174676Y0101928D01*
X0172700Y0099951D01*
X0172700Y0093904D01*
X0174676Y0091928D01*
X0172700Y0089951D01*
X0172700Y0083904D01*
X0174676Y0081928D01*
X0172700Y0079951D01*
X0172700Y0073904D01*
X0174676Y0071928D01*
X0174472Y0071723D01*
X0173068Y0073128D01*
X0167932Y0073128D01*
X0166500Y0071696D01*
X0165068Y0073128D01*
X0159932Y0073128D01*
X0156300Y0069496D01*
X0156300Y0064359D01*
X0159932Y0060728D01*
X0165068Y0060728D01*
X0166500Y0062159D01*
X0167932Y0060728D01*
X0173068Y0060728D01*
X0174472Y0062132D01*
X0174676Y0061928D01*
X0172700Y0059951D01*
X0172700Y0053904D01*
X0175666Y0050938D01*
X0175500Y0050771D01*
X0174954Y0050020D01*
X0174532Y0049192D01*
X0174245Y0048309D01*
X0174100Y0047392D01*
X0174100Y0046928D01*
X0180000Y0046928D01*
X0180000Y0046927D01*
X0180000Y0041028D01*
X0180464Y0041028D01*
X0181382Y0041173D01*
X0182265Y0041460D01*
X0183092Y0041881D01*
X0183844Y0042427D01*
X0184500Y0043084D01*
X0185000Y0043772D01*
X0185500Y0043084D01*
X0186156Y0042427D01*
X0186908Y0041881D01*
X0187735Y0041460D01*
X0188618Y0041173D01*
X0189536Y0041028D01*
X0190000Y0041028D01*
X0190464Y0041028D01*
X0191382Y0041173D01*
X0192265Y0041460D01*
X0193092Y0041881D01*
X0193844Y0042427D01*
X0194500Y0043084D01*
X0195046Y0043835D01*
X0195468Y0044663D01*
X0195755Y0045546D01*
X0195900Y0046463D01*
X0195900Y0046927D01*
X0190000Y0046927D01*
X0190000Y0041028D01*
X0190000Y0046927D01*
X0190000Y0046927D01*
X0190000Y0046928D01*
X0195900Y0046928D01*
X0195900Y0047392D01*
X0195755Y0048309D01*
X0195468Y0049192D01*
X0195046Y0050020D01*
X0194500Y0050771D01*
X0194334Y0050938D01*
X0197300Y0053904D01*
X0197300Y0059951D01*
X0195324Y0061928D01*
X0197300Y0063904D01*
X0197300Y0069951D01*
X0195324Y0071928D01*
X0197300Y0073904D01*
X0197300Y0079951D01*
X0195324Y0081928D01*
X0197300Y0083904D01*
X0197300Y0089951D01*
X0195324Y0091928D01*
X0197300Y0093904D01*
X0197300Y0099951D01*
X0195324Y0101928D01*
X0197300Y0103904D01*
X0197300Y0109951D01*
X0195324Y0111928D01*
X0197300Y0113904D01*
X0197300Y0119951D01*
X0195324Y0121928D01*
X0197300Y0123904D01*
X0197300Y0129951D01*
X0195324Y0131928D01*
X0197300Y0133904D01*
X0197300Y0139951D01*
X0195324Y0141928D01*
X0197300Y0143904D01*
X0197300Y0149951D01*
X0195324Y0151928D01*
X0197300Y0153904D01*
X0197300Y0159951D01*
X0195324Y0161928D01*
X0197300Y0163904D01*
X0197300Y0169951D01*
X0195324Y0171928D01*
X0196061Y0172664D01*
X0204200Y0164525D01*
X0204200Y0034330D01*
X0200826Y0030956D01*
X0200716Y0031366D01*
X0199202Y0033988D01*
X0197061Y0036129D01*
X0194439Y0037643D01*
X0191514Y0038427D01*
X0188486Y0038427D01*
X0185561Y0037643D01*
X0182939Y0036129D01*
X0180798Y0033988D01*
X0179284Y0031366D01*
X0178501Y0028441D01*
X0178501Y0025414D01*
X0179221Y0022728D01*
X0176124Y0022728D01*
X0176189Y0022792D01*
X0177300Y0025475D01*
X0177300Y0028380D01*
X0176189Y0031063D01*
X0174796Y0032455D01*
X0175933Y0031319D02*
X0179272Y0031319D01*
X0178629Y0028920D02*
X0177076Y0028920D01*
X0177300Y0026522D02*
X0178501Y0026522D01*
X0178847Y0024123D02*
X0176740Y0024123D01*
X0176058Y0033717D02*
X0180642Y0033717D01*
X0182926Y0036116D02*
X0176700Y0036116D01*
X0176700Y0038514D02*
X0204200Y0038514D01*
X0204200Y0036116D02*
X0197074Y0036116D01*
X0199358Y0033717D02*
X0203587Y0033717D01*
X0201189Y0031319D02*
X0200728Y0031319D01*
X0204200Y0040913D02*
X0175283Y0040913D01*
X0176156Y0042427D02*
X0175500Y0043084D01*
X0174954Y0043835D01*
X0174532Y0044663D01*
X0174245Y0045546D01*
X0174100Y0046463D01*
X0174100Y0046927D01*
X0180000Y0046927D01*
X0180000Y0046927D01*
X0180000Y0041028D01*
X0179536Y0041028D01*
X0178618Y0041173D01*
X0177735Y0041460D01*
X0176908Y0041881D01*
X0176156Y0042427D01*
X0175335Y0043311D02*
X0131179Y0043311D01*
X0131200Y0040913D02*
X0157717Y0040913D01*
X0156300Y0038514D02*
X0131200Y0038514D01*
X0131200Y0036116D02*
X0156300Y0036116D01*
X0156942Y0033717D02*
X0152684Y0033717D01*
X0147316Y0033717D02*
X0142684Y0033717D01*
X0137316Y0033717D02*
X0132684Y0033717D01*
X0130086Y0045710D02*
X0174219Y0045710D01*
X0174213Y0048108D02*
X0126521Y0048108D01*
X0126183Y0049389D02*
X0129817Y0049389D01*
X0133176Y0050780D01*
X0135746Y0053350D01*
X0137137Y0056709D01*
X0137137Y0060343D01*
X0135746Y0063702D01*
X0133176Y0066272D01*
X0129817Y0067663D01*
X0126183Y0067663D01*
X0122824Y0066272D01*
X0120254Y0063702D01*
X0118863Y0060343D01*
X0118863Y0056709D01*
X0120254Y0053350D01*
X0122824Y0050780D01*
X0126183Y0049389D01*
X0123484Y0050507D02*
X0100300Y0050507D01*
X0100300Y0052905D02*
X0120699Y0052905D01*
X0119445Y0055304D02*
X0100300Y0055304D01*
X0100300Y0057702D02*
X0118863Y0057702D01*
X0118863Y0060101D02*
X0100300Y0060101D01*
X0100300Y0062499D02*
X0119756Y0062499D01*
X0121450Y0064898D02*
X0100300Y0064898D01*
X0100300Y0067296D02*
X0125297Y0067296D01*
X0130703Y0067296D02*
X0156300Y0067296D01*
X0156300Y0064898D02*
X0134550Y0064898D01*
X0136244Y0062499D02*
X0158160Y0062499D01*
X0156499Y0069695D02*
X0100300Y0069695D01*
X0100300Y0072093D02*
X0158898Y0072093D01*
X0166102Y0072093D02*
X0166898Y0072093D01*
X0172700Y0074492D02*
X0100300Y0074492D01*
X0100300Y0076890D02*
X0172700Y0076890D01*
X0172700Y0079289D02*
X0100300Y0079289D01*
X0100300Y0081687D02*
X0174436Y0081687D01*
X0172700Y0084086D02*
X0100300Y0084086D01*
X0100300Y0086484D02*
X0105661Y0086484D01*
X0104827Y0087318D02*
X0106619Y0085526D01*
X0108961Y0084556D01*
X0117039Y0084556D01*
X0119381Y0085526D01*
X0121173Y0087318D01*
X0122143Y0089660D01*
X0122143Y0092195D01*
X0121173Y0094537D01*
X0119783Y0095928D01*
X0121173Y0097318D01*
X0122143Y0099660D01*
X0122143Y0102195D01*
X0121173Y0104537D01*
X0119783Y0105928D01*
X0121173Y0107318D01*
X0122143Y0109660D01*
X0122143Y0112195D01*
X0121173Y0114537D01*
X0119783Y0115928D01*
X0121173Y0117318D01*
X0122143Y0119660D01*
X0122143Y0122195D01*
X0121173Y0124537D01*
X0119783Y0125928D01*
X0121173Y0127318D01*
X0122143Y0129660D01*
X0122143Y0132195D01*
X0121173Y0134537D01*
X0119783Y0135928D01*
X0121173Y0137318D01*
X0122143Y0139660D01*
X0122143Y0142195D01*
X0121173Y0144537D01*
X0119783Y0145928D01*
X0121173Y0147318D01*
X0122143Y0149660D01*
X0122143Y0152195D01*
X0121173Y0154537D01*
X0119783Y0155928D01*
X0121173Y0157318D01*
X0122143Y0159660D01*
X0122143Y0162195D01*
X0121173Y0164537D01*
X0119783Y0165928D01*
X0121173Y0167318D01*
X0122143Y0169660D01*
X0122143Y0172195D01*
X0121173Y0174537D01*
X0119783Y0175928D01*
X0121173Y0177318D01*
X0122143Y0179660D01*
X0122143Y0182195D01*
X0121173Y0184537D01*
X0119381Y0186329D01*
X0117039Y0187299D01*
X0108961Y0187299D01*
X0106619Y0186329D01*
X0104827Y0184537D01*
X0103857Y0182195D01*
X0103857Y0179660D01*
X0104827Y0177318D01*
X0106217Y0175928D01*
X0104827Y0174537D01*
X0103857Y0172195D01*
X0103857Y0169660D01*
X0104827Y0167318D01*
X0106217Y0165928D01*
X0104827Y0164537D01*
X0103857Y0162195D01*
X0103857Y0159660D01*
X0104827Y0157318D01*
X0106217Y0155928D01*
X0104827Y0154537D01*
X0103857Y0152195D01*
X0103857Y0149660D01*
X0104827Y0147318D01*
X0106217Y0145928D01*
X0104827Y0144537D01*
X0103857Y0142195D01*
X0103857Y0139660D01*
X0104827Y0137318D01*
X0106217Y0135928D01*
X0104827Y0134537D01*
X0103857Y0132195D01*
X0103857Y0129660D01*
X0104827Y0127318D01*
X0106217Y0125928D01*
X0104827Y0124537D01*
X0103857Y0122195D01*
X0103857Y0119660D01*
X0104827Y0117318D01*
X0106217Y0115928D01*
X0104827Y0114537D01*
X0103857Y0112195D01*
X0103857Y0109660D01*
X0104827Y0107318D01*
X0106217Y0105928D01*
X0104827Y0104537D01*
X0103857Y0102195D01*
X0103857Y0099660D01*
X0104827Y0097318D01*
X0106217Y0095928D01*
X0104827Y0094537D01*
X0103857Y0092195D01*
X0103857Y0089660D01*
X0104827Y0087318D01*
X0104179Y0088883D02*
X0100300Y0088883D01*
X0100300Y0091281D02*
X0103857Y0091281D01*
X0104472Y0093680D02*
X0100300Y0093680D01*
X0100300Y0096078D02*
X0106067Y0096078D01*
X0104347Y0098477D02*
X0100300Y0098477D01*
X0100300Y0100875D02*
X0103857Y0100875D01*
X0104304Y0103274D02*
X0100300Y0103274D01*
X0100300Y0105672D02*
X0105962Y0105672D01*
X0104515Y0108071D02*
X0100300Y0108071D01*
X0100300Y0110470D02*
X0103857Y0110470D01*
X0104135Y0112868D02*
X0100300Y0112868D01*
X0100300Y0115267D02*
X0105556Y0115267D01*
X0104683Y0117665D02*
X0100300Y0117665D01*
X0100300Y0120064D02*
X0103857Y0120064D01*
X0103967Y0122462D02*
X0100300Y0122462D01*
X0100300Y0124861D02*
X0105150Y0124861D01*
X0104886Y0127259D02*
X0100300Y0127259D01*
X0100300Y0129658D02*
X0103858Y0129658D01*
X0103857Y0132056D02*
X0100300Y0132056D01*
X0100300Y0134455D02*
X0104793Y0134455D01*
X0105292Y0136853D02*
X0100300Y0136853D01*
X0100300Y0139252D02*
X0104026Y0139252D01*
X0103857Y0141650D02*
X0100300Y0141650D01*
X0100300Y0144049D02*
X0104625Y0144049D01*
X0105698Y0146447D02*
X0100300Y0146447D01*
X0100300Y0148846D02*
X0104194Y0148846D01*
X0103857Y0151244D02*
X0100300Y0151244D01*
X0100300Y0153643D02*
X0104456Y0153643D01*
X0106104Y0156041D02*
X0100300Y0156041D01*
X0100300Y0158440D02*
X0104362Y0158440D01*
X0103857Y0160838D02*
X0100300Y0160838D01*
X0100300Y0163237D02*
X0104288Y0163237D01*
X0105925Y0165635D02*
X0100300Y0165635D01*
X0100300Y0168034D02*
X0104530Y0168034D01*
X0103857Y0170432D02*
X0100300Y0170432D01*
X0100300Y0172831D02*
X0104120Y0172831D01*
X0105519Y0175229D02*
X0100300Y0175229D01*
X0100300Y0177628D02*
X0104699Y0177628D01*
X0103857Y0180026D02*
X0100300Y0180026D01*
X0100300Y0182425D02*
X0103952Y0182425D01*
X0105113Y0184823D02*
X0100300Y0184823D01*
X0100300Y0187222D02*
X0108774Y0187222D01*
X0117226Y0187222D02*
X0138774Y0187222D01*
X0138961Y0187299D02*
X0136619Y0186329D01*
X0134827Y0184537D01*
X0133857Y0182195D01*
X0133857Y0179660D01*
X0134827Y0177318D01*
X0136217Y0175928D01*
X0134827Y0174537D01*
X0133857Y0172195D01*
X0133857Y0169660D01*
X0134827Y0167318D01*
X0136217Y0165928D01*
X0134827Y0164537D01*
X0133857Y0162195D01*
X0133857Y0159660D01*
X0134827Y0157318D01*
X0136217Y0155928D01*
X0134827Y0154537D01*
X0133857Y0152195D01*
X0133857Y0149660D01*
X0134827Y0147318D01*
X0136217Y0145928D01*
X0134827Y0144537D01*
X0133857Y0142195D01*
X0133857Y0139660D01*
X0134827Y0137318D01*
X0136217Y0135928D01*
X0134827Y0134537D01*
X0133857Y0132195D01*
X0133857Y0129660D01*
X0134827Y0127318D01*
X0136217Y0125928D01*
X0134827Y0124537D01*
X0133857Y0122195D01*
X0133857Y0119660D01*
X0134827Y0117318D01*
X0136217Y0115928D01*
X0134827Y0114537D01*
X0133857Y0112195D01*
X0133857Y0109660D01*
X0134827Y0107318D01*
X0136217Y0105928D01*
X0134827Y0104537D01*
X0133857Y0102195D01*
X0133857Y0099660D01*
X0134827Y0097318D01*
X0136217Y0095928D01*
X0134827Y0094537D01*
X0133857Y0092195D01*
X0133857Y0089660D01*
X0134827Y0087318D01*
X0136619Y0085526D01*
X0138961Y0084556D01*
X0147039Y0084556D01*
X0149381Y0085526D01*
X0151173Y0087318D01*
X0152143Y0089660D01*
X0152143Y0092195D01*
X0151173Y0094537D01*
X0149783Y0095928D01*
X0151173Y0097318D01*
X0152143Y0099660D01*
X0152143Y0102195D01*
X0151173Y0104537D01*
X0149783Y0105928D01*
X0151173Y0107318D01*
X0152143Y0109660D01*
X0152143Y0112195D01*
X0151173Y0114537D01*
X0149783Y0115928D01*
X0151173Y0117318D01*
X0152143Y0119660D01*
X0152143Y0122195D01*
X0151173Y0124537D01*
X0149783Y0125928D01*
X0151173Y0127318D01*
X0152143Y0129660D01*
X0152143Y0132195D01*
X0151173Y0134537D01*
X0149783Y0135928D01*
X0151173Y0137318D01*
X0152143Y0139660D01*
X0152143Y0142195D01*
X0151173Y0144537D01*
X0149783Y0145928D01*
X0151173Y0147318D01*
X0152143Y0149660D01*
X0152143Y0152195D01*
X0151173Y0154537D01*
X0149783Y0155928D01*
X0151173Y0157318D01*
X0152143Y0159660D01*
X0152143Y0162195D01*
X0151173Y0164537D01*
X0149783Y0165928D01*
X0151173Y0167318D01*
X0152143Y0169660D01*
X0152143Y0172195D01*
X0151173Y0174537D01*
X0149783Y0175928D01*
X0151173Y0177318D01*
X0152143Y0179660D01*
X0152143Y0182195D01*
X0151173Y0184537D01*
X0149381Y0186329D01*
X0147039Y0187299D01*
X0138961Y0187299D01*
X0135113Y0184823D02*
X0120887Y0184823D01*
X0122048Y0182425D02*
X0133952Y0182425D01*
X0133857Y0180026D02*
X0122143Y0180026D01*
X0121301Y0177628D02*
X0134699Y0177628D01*
X0135519Y0175229D02*
X0120481Y0175229D01*
X0121880Y0172831D02*
X0134120Y0172831D01*
X0133857Y0170432D02*
X0122143Y0170432D01*
X0121470Y0168034D02*
X0134530Y0168034D01*
X0135925Y0165635D02*
X0120075Y0165635D01*
X0121712Y0163237D02*
X0134288Y0163237D01*
X0133857Y0160838D02*
X0122143Y0160838D01*
X0121638Y0158440D02*
X0134362Y0158440D01*
X0136104Y0156041D02*
X0119896Y0156041D01*
X0121544Y0153643D02*
X0134456Y0153643D01*
X0133857Y0151244D02*
X0122143Y0151244D01*
X0121806Y0148846D02*
X0134194Y0148846D01*
X0135698Y0146447D02*
X0120302Y0146447D01*
X0121375Y0144049D02*
X0134625Y0144049D01*
X0133857Y0141650D02*
X0122143Y0141650D01*
X0121974Y0139252D02*
X0134026Y0139252D01*
X0135292Y0136853D02*
X0120708Y0136853D01*
X0121207Y0134455D02*
X0134793Y0134455D01*
X0133857Y0132056D02*
X0122143Y0132056D01*
X0122142Y0129658D02*
X0133858Y0129658D01*
X0134886Y0127259D02*
X0121114Y0127259D01*
X0120849Y0124861D02*
X0135151Y0124861D01*
X0133967Y0122462D02*
X0122033Y0122462D01*
X0122143Y0120064D02*
X0133857Y0120064D01*
X0134683Y0117665D02*
X0121317Y0117665D01*
X0120444Y0115267D02*
X0135556Y0115267D01*
X0134135Y0112868D02*
X0121865Y0112868D01*
X0122143Y0110470D02*
X0133857Y0110470D01*
X0134515Y0108071D02*
X0121485Y0108071D01*
X0120038Y0105672D02*
X0135962Y0105672D01*
X0134304Y0103274D02*
X0121696Y0103274D01*
X0122143Y0100875D02*
X0133857Y0100875D01*
X0134347Y0098477D02*
X0121653Y0098477D01*
X0119933Y0096078D02*
X0136067Y0096078D01*
X0134472Y0093680D02*
X0121528Y0093680D01*
X0122143Y0091281D02*
X0133857Y0091281D01*
X0134179Y0088883D02*
X0121821Y0088883D01*
X0120339Y0086484D02*
X0135661Y0086484D01*
X0150339Y0086484D02*
X0172700Y0086484D01*
X0172700Y0088883D02*
X0151821Y0088883D01*
X0152143Y0091281D02*
X0174030Y0091281D01*
X0172924Y0093680D02*
X0151528Y0093680D01*
X0149933Y0096078D02*
X0172700Y0096078D01*
X0172700Y0098477D02*
X0151653Y0098477D01*
X0152143Y0100875D02*
X0173624Y0100875D01*
X0173330Y0103274D02*
X0151696Y0103274D01*
X0150038Y0105672D02*
X0172700Y0105672D01*
X0172700Y0108071D02*
X0151485Y0108071D01*
X0152143Y0110470D02*
X0173218Y0110470D01*
X0173736Y0112868D02*
X0151865Y0112868D01*
X0150444Y0115267D02*
X0172700Y0115267D01*
X0172700Y0117665D02*
X0151317Y0117665D01*
X0152143Y0120064D02*
X0172812Y0120064D01*
X0174142Y0122462D02*
X0152033Y0122462D01*
X0150849Y0124861D02*
X0172700Y0124861D01*
X0172700Y0127259D02*
X0151114Y0127259D01*
X0152142Y0129658D02*
X0172700Y0129658D01*
X0174548Y0132056D02*
X0152143Y0132056D01*
X0151207Y0134455D02*
X0172700Y0134455D01*
X0172700Y0136853D02*
X0150708Y0136853D01*
X0151974Y0139252D02*
X0172700Y0139252D01*
X0174399Y0141650D02*
X0152143Y0141650D01*
X0151375Y0144049D02*
X0172700Y0144049D01*
X0172700Y0146447D02*
X0150302Y0146447D01*
X0151806Y0148846D02*
X0172700Y0148846D01*
X0173993Y0151244D02*
X0152143Y0151244D01*
X0151544Y0153643D02*
X0172961Y0153643D01*
X0172700Y0156041D02*
X0149896Y0156041D01*
X0151638Y0158440D02*
X0172700Y0158440D01*
X0173587Y0160838D02*
X0152143Y0160838D01*
X0151712Y0163237D02*
X0173367Y0163237D01*
X0172700Y0165635D02*
X0150075Y0165635D01*
X0151470Y0168034D02*
X0172700Y0168034D01*
X0173181Y0170432D02*
X0152143Y0170432D01*
X0151880Y0172831D02*
X0164319Y0172831D01*
X0165722Y0171428D02*
X0162500Y0174649D01*
X0162500Y0176927D01*
X0168000Y0176927D01*
X0168000Y0176927D01*
X0168000Y0171428D01*
X0165722Y0171428D01*
X0168000Y0172831D02*
X0168000Y0172831D01*
X0168000Y0175229D02*
X0168000Y0175229D01*
X0171681Y0172831D02*
X0173773Y0172831D01*
X0162500Y0175229D02*
X0150481Y0175229D01*
X0151301Y0177628D02*
X0162500Y0177628D01*
X0163321Y0180026D02*
X0152143Y0180026D01*
X0152048Y0182425D02*
X0162745Y0182425D01*
X0161100Y0184823D02*
X0150887Y0184823D01*
X0147226Y0187222D02*
X0161100Y0187222D01*
X0161100Y0189620D02*
X0100300Y0189620D01*
X0100300Y0192019D02*
X0122609Y0192019D01*
X0122824Y0191804D02*
X0126183Y0190413D01*
X0129817Y0190413D01*
X0133176Y0191804D01*
X0135746Y0194374D01*
X0137137Y0197732D01*
X0137137Y0201367D01*
X0135746Y0204725D01*
X0133176Y0207296D01*
X0129817Y0208687D01*
X0126183Y0208687D01*
X0122824Y0207296D01*
X0120254Y0204725D01*
X0118863Y0201367D01*
X0118863Y0197732D01*
X0120254Y0194374D01*
X0122824Y0191804D01*
X0120236Y0194417D02*
X0100300Y0194417D01*
X0100300Y0196816D02*
X0119242Y0196816D01*
X0118863Y0199214D02*
X0100300Y0199214D01*
X0100300Y0201613D02*
X0118965Y0201613D01*
X0119958Y0204011D02*
X0100300Y0204011D01*
X0100300Y0206410D02*
X0121939Y0206410D01*
X0124603Y0211207D02*
X0125397Y0211207D01*
X0134603Y0211207D02*
X0135397Y0211207D01*
X0134061Y0206410D02*
X0160219Y0206410D01*
X0156857Y0208808D02*
X0100300Y0208808D01*
X0104603Y0211207D02*
X0105397Y0211207D01*
X0114603Y0211207D02*
X0115397Y0211207D01*
X0133391Y0192019D02*
X0159691Y0192019D01*
X0157325Y0194417D02*
X0135764Y0194417D01*
X0136757Y0196816D02*
X0157325Y0196816D01*
X0157325Y0199214D02*
X0137137Y0199214D01*
X0137035Y0201613D02*
X0159417Y0201613D01*
X0164396Y0204011D02*
X0136042Y0204011D01*
X0144603Y0211207D02*
X0145397Y0211207D01*
X0154603Y0211207D02*
X0155025Y0211207D01*
X0196819Y0170432D02*
X0198293Y0170432D01*
X0197300Y0168034D02*
X0200691Y0168034D01*
X0203090Y0165635D02*
X0197300Y0165635D01*
X0196633Y0163237D02*
X0204200Y0163237D01*
X0204200Y0160838D02*
X0196413Y0160838D01*
X0197300Y0158440D02*
X0204200Y0158440D01*
X0204200Y0156041D02*
X0197300Y0156041D01*
X0197039Y0153643D02*
X0204200Y0153643D01*
X0204200Y0151244D02*
X0196007Y0151244D01*
X0197300Y0148846D02*
X0204200Y0148846D01*
X0204200Y0146447D02*
X0197300Y0146447D01*
X0197300Y0144049D02*
X0204200Y0144049D01*
X0204200Y0141650D02*
X0195601Y0141650D01*
X0197300Y0139252D02*
X0204200Y0139252D01*
X0204200Y0136853D02*
X0197300Y0136853D01*
X0197300Y0134455D02*
X0204200Y0134455D01*
X0204200Y0132056D02*
X0195452Y0132056D01*
X0197300Y0129658D02*
X0204200Y0129658D01*
X0204200Y0127259D02*
X0197300Y0127259D01*
X0197300Y0124861D02*
X0204200Y0124861D01*
X0204200Y0122462D02*
X0195858Y0122462D01*
X0197188Y0120064D02*
X0204200Y0120064D01*
X0204200Y0117665D02*
X0197300Y0117665D01*
X0197300Y0115267D02*
X0204200Y0115267D01*
X0204200Y0112868D02*
X0196264Y0112868D01*
X0196782Y0110470D02*
X0204200Y0110470D01*
X0204200Y0108071D02*
X0197300Y0108071D01*
X0197300Y0105672D02*
X0204200Y0105672D01*
X0204200Y0103274D02*
X0196670Y0103274D01*
X0196376Y0100875D02*
X0204200Y0100875D01*
X0204200Y0098477D02*
X0197300Y0098477D01*
X0197300Y0096078D02*
X0204200Y0096078D01*
X0204200Y0093680D02*
X0197076Y0093680D01*
X0195970Y0091281D02*
X0204200Y0091281D01*
X0204200Y0088883D02*
X0197300Y0088883D01*
X0197300Y0086484D02*
X0204200Y0086484D01*
X0204200Y0084086D02*
X0197300Y0084086D01*
X0195564Y0081687D02*
X0204200Y0081687D01*
X0204200Y0079289D02*
X0197300Y0079289D01*
X0197300Y0076890D02*
X0204200Y0076890D01*
X0204200Y0074492D02*
X0197300Y0074492D01*
X0195489Y0072093D02*
X0204200Y0072093D01*
X0204200Y0069695D02*
X0197300Y0069695D01*
X0197300Y0067296D02*
X0204200Y0067296D01*
X0204200Y0064898D02*
X0197300Y0064898D01*
X0195895Y0062499D02*
X0204200Y0062499D01*
X0204200Y0060101D02*
X0197151Y0060101D01*
X0197300Y0057702D02*
X0204200Y0057702D01*
X0204200Y0055304D02*
X0197300Y0055304D01*
X0196301Y0052905D02*
X0204200Y0052905D01*
X0204200Y0050507D02*
X0194692Y0050507D01*
X0195787Y0048108D02*
X0204200Y0048108D01*
X0204200Y0045710D02*
X0195781Y0045710D01*
X0194665Y0043311D02*
X0204200Y0043311D01*
X0190000Y0043311D02*
X0190000Y0043311D01*
X0190000Y0045710D02*
X0190000Y0045710D01*
X0190000Y0046927D02*
X0184100Y0046927D01*
X0180000Y0046927D01*
X0180000Y0046928D01*
X0190000Y0046928D01*
X0190000Y0046927D01*
X0185335Y0043311D02*
X0184665Y0043311D01*
X0180000Y0043311D02*
X0180000Y0043311D01*
X0180000Y0045710D02*
X0180000Y0045710D01*
X0175308Y0050507D02*
X0132516Y0050507D01*
X0135301Y0052905D02*
X0173699Y0052905D01*
X0172700Y0055304D02*
X0136555Y0055304D01*
X0137137Y0057702D02*
X0172700Y0057702D01*
X0172849Y0060101D02*
X0137137Y0060101D01*
X0123479Y0048108D02*
X0106521Y0048108D01*
X0110086Y0045710D02*
X0111902Y0045710D01*
X0115000Y0045710D02*
X0115000Y0045710D01*
X0115000Y0046828D02*
X0115000Y0039428D01*
X0115000Y0039428D01*
X0115000Y0046828D01*
X0118098Y0045710D02*
X0119914Y0045710D01*
X0115000Y0043311D02*
X0115000Y0043311D01*
X0115000Y0040913D02*
X0115000Y0040913D01*
X0103479Y0048108D02*
X0100300Y0048108D01*
X0174102Y0072093D02*
X0174510Y0072093D01*
M02*
