G75*
%MOIN*%
%OFA0B0*%
%FSLAX25Y25*%
%IPPOS*%
%LPD*%
%AMOC8*
5,1,8,0,0,1.08239X$1,22.5*
%
%ADD10C,0.00000*%
%ADD11C,0.01200*%
D10*
X0124063Y0058526D02*
X0124065Y0058651D01*
X0124071Y0058776D01*
X0124081Y0058900D01*
X0124095Y0059024D01*
X0124112Y0059148D01*
X0124134Y0059271D01*
X0124160Y0059393D01*
X0124189Y0059515D01*
X0124222Y0059635D01*
X0124260Y0059754D01*
X0124300Y0059873D01*
X0124345Y0059989D01*
X0124393Y0060104D01*
X0124445Y0060218D01*
X0124501Y0060330D01*
X0124560Y0060440D01*
X0124622Y0060548D01*
X0124688Y0060655D01*
X0124757Y0060759D01*
X0124830Y0060860D01*
X0124905Y0060960D01*
X0124984Y0061057D01*
X0125066Y0061151D01*
X0125151Y0061243D01*
X0125238Y0061332D01*
X0125329Y0061418D01*
X0125422Y0061501D01*
X0125518Y0061582D01*
X0125616Y0061659D01*
X0125716Y0061733D01*
X0125819Y0061804D01*
X0125924Y0061871D01*
X0126032Y0061936D01*
X0126141Y0061996D01*
X0126252Y0062054D01*
X0126365Y0062107D01*
X0126479Y0062157D01*
X0126595Y0062204D01*
X0126712Y0062246D01*
X0126831Y0062285D01*
X0126951Y0062321D01*
X0127072Y0062352D01*
X0127194Y0062380D01*
X0127316Y0062403D01*
X0127440Y0062423D01*
X0127564Y0062439D01*
X0127688Y0062451D01*
X0127813Y0062459D01*
X0127938Y0062463D01*
X0128062Y0062463D01*
X0128187Y0062459D01*
X0128312Y0062451D01*
X0128436Y0062439D01*
X0128560Y0062423D01*
X0128684Y0062403D01*
X0128806Y0062380D01*
X0128928Y0062352D01*
X0129049Y0062321D01*
X0129169Y0062285D01*
X0129288Y0062246D01*
X0129405Y0062204D01*
X0129521Y0062157D01*
X0129635Y0062107D01*
X0129748Y0062054D01*
X0129859Y0061996D01*
X0129969Y0061936D01*
X0130076Y0061871D01*
X0130181Y0061804D01*
X0130284Y0061733D01*
X0130384Y0061659D01*
X0130482Y0061582D01*
X0130578Y0061501D01*
X0130671Y0061418D01*
X0130762Y0061332D01*
X0130849Y0061243D01*
X0130934Y0061151D01*
X0131016Y0061057D01*
X0131095Y0060960D01*
X0131170Y0060860D01*
X0131243Y0060759D01*
X0131312Y0060655D01*
X0131378Y0060548D01*
X0131440Y0060440D01*
X0131499Y0060330D01*
X0131555Y0060218D01*
X0131607Y0060104D01*
X0131655Y0059989D01*
X0131700Y0059873D01*
X0131740Y0059754D01*
X0131778Y0059635D01*
X0131811Y0059515D01*
X0131840Y0059393D01*
X0131866Y0059271D01*
X0131888Y0059148D01*
X0131905Y0059024D01*
X0131919Y0058900D01*
X0131929Y0058776D01*
X0131935Y0058651D01*
X0131937Y0058526D01*
X0131935Y0058401D01*
X0131929Y0058276D01*
X0131919Y0058152D01*
X0131905Y0058028D01*
X0131888Y0057904D01*
X0131866Y0057781D01*
X0131840Y0057659D01*
X0131811Y0057537D01*
X0131778Y0057417D01*
X0131740Y0057298D01*
X0131700Y0057179D01*
X0131655Y0057063D01*
X0131607Y0056948D01*
X0131555Y0056834D01*
X0131499Y0056722D01*
X0131440Y0056612D01*
X0131378Y0056504D01*
X0131312Y0056397D01*
X0131243Y0056293D01*
X0131170Y0056192D01*
X0131095Y0056092D01*
X0131016Y0055995D01*
X0130934Y0055901D01*
X0130849Y0055809D01*
X0130762Y0055720D01*
X0130671Y0055634D01*
X0130578Y0055551D01*
X0130482Y0055470D01*
X0130384Y0055393D01*
X0130284Y0055319D01*
X0130181Y0055248D01*
X0130076Y0055181D01*
X0129968Y0055116D01*
X0129859Y0055056D01*
X0129748Y0054998D01*
X0129635Y0054945D01*
X0129521Y0054895D01*
X0129405Y0054848D01*
X0129288Y0054806D01*
X0129169Y0054767D01*
X0129049Y0054731D01*
X0128928Y0054700D01*
X0128806Y0054672D01*
X0128684Y0054649D01*
X0128560Y0054629D01*
X0128436Y0054613D01*
X0128312Y0054601D01*
X0128187Y0054593D01*
X0128062Y0054589D01*
X0127938Y0054589D01*
X0127813Y0054593D01*
X0127688Y0054601D01*
X0127564Y0054613D01*
X0127440Y0054629D01*
X0127316Y0054649D01*
X0127194Y0054672D01*
X0127072Y0054700D01*
X0126951Y0054731D01*
X0126831Y0054767D01*
X0126712Y0054806D01*
X0126595Y0054848D01*
X0126479Y0054895D01*
X0126365Y0054945D01*
X0126252Y0054998D01*
X0126141Y0055056D01*
X0126031Y0055116D01*
X0125924Y0055181D01*
X0125819Y0055248D01*
X0125716Y0055319D01*
X0125616Y0055393D01*
X0125518Y0055470D01*
X0125422Y0055551D01*
X0125329Y0055634D01*
X0125238Y0055720D01*
X0125151Y0055809D01*
X0125066Y0055901D01*
X0124984Y0055995D01*
X0124905Y0056092D01*
X0124830Y0056192D01*
X0124757Y0056293D01*
X0124688Y0056397D01*
X0124622Y0056504D01*
X0124560Y0056612D01*
X0124501Y0056722D01*
X0124445Y0056834D01*
X0124393Y0056948D01*
X0124345Y0057063D01*
X0124300Y0057179D01*
X0124260Y0057298D01*
X0124222Y0057417D01*
X0124189Y0057537D01*
X0124160Y0057659D01*
X0124134Y0057781D01*
X0124112Y0057904D01*
X0124095Y0058028D01*
X0124081Y0058152D01*
X0124071Y0058276D01*
X0124065Y0058401D01*
X0124063Y0058526D01*
X0183701Y0026928D02*
X0183703Y0027086D01*
X0183709Y0027244D01*
X0183719Y0027402D01*
X0183733Y0027560D01*
X0183751Y0027717D01*
X0183772Y0027874D01*
X0183798Y0028030D01*
X0183828Y0028186D01*
X0183861Y0028341D01*
X0183899Y0028494D01*
X0183940Y0028647D01*
X0183985Y0028799D01*
X0184034Y0028950D01*
X0184087Y0029099D01*
X0184143Y0029247D01*
X0184203Y0029393D01*
X0184267Y0029538D01*
X0184335Y0029681D01*
X0184406Y0029823D01*
X0184480Y0029963D01*
X0184558Y0030100D01*
X0184640Y0030236D01*
X0184724Y0030370D01*
X0184813Y0030501D01*
X0184904Y0030630D01*
X0184999Y0030757D01*
X0185096Y0030882D01*
X0185197Y0031004D01*
X0185301Y0031123D01*
X0185408Y0031240D01*
X0185518Y0031354D01*
X0185631Y0031465D01*
X0185746Y0031574D01*
X0185864Y0031679D01*
X0185985Y0031781D01*
X0186108Y0031881D01*
X0186234Y0031977D01*
X0186362Y0032070D01*
X0186492Y0032160D01*
X0186625Y0032246D01*
X0186760Y0032330D01*
X0186896Y0032409D01*
X0187035Y0032486D01*
X0187176Y0032558D01*
X0187318Y0032628D01*
X0187462Y0032693D01*
X0187608Y0032755D01*
X0187755Y0032813D01*
X0187904Y0032868D01*
X0188054Y0032919D01*
X0188205Y0032966D01*
X0188357Y0033009D01*
X0188510Y0033048D01*
X0188665Y0033084D01*
X0188820Y0033115D01*
X0188976Y0033143D01*
X0189132Y0033167D01*
X0189289Y0033187D01*
X0189447Y0033203D01*
X0189604Y0033215D01*
X0189763Y0033223D01*
X0189921Y0033227D01*
X0190079Y0033227D01*
X0190237Y0033223D01*
X0190396Y0033215D01*
X0190553Y0033203D01*
X0190711Y0033187D01*
X0190868Y0033167D01*
X0191024Y0033143D01*
X0191180Y0033115D01*
X0191335Y0033084D01*
X0191490Y0033048D01*
X0191643Y0033009D01*
X0191795Y0032966D01*
X0191946Y0032919D01*
X0192096Y0032868D01*
X0192245Y0032813D01*
X0192392Y0032755D01*
X0192538Y0032693D01*
X0192682Y0032628D01*
X0192824Y0032558D01*
X0192965Y0032486D01*
X0193104Y0032409D01*
X0193240Y0032330D01*
X0193375Y0032246D01*
X0193508Y0032160D01*
X0193638Y0032070D01*
X0193766Y0031977D01*
X0193892Y0031881D01*
X0194015Y0031781D01*
X0194136Y0031679D01*
X0194254Y0031574D01*
X0194369Y0031465D01*
X0194482Y0031354D01*
X0194592Y0031240D01*
X0194699Y0031123D01*
X0194803Y0031004D01*
X0194904Y0030882D01*
X0195001Y0030757D01*
X0195096Y0030630D01*
X0195187Y0030501D01*
X0195276Y0030370D01*
X0195360Y0030236D01*
X0195442Y0030100D01*
X0195520Y0029963D01*
X0195594Y0029823D01*
X0195665Y0029681D01*
X0195733Y0029538D01*
X0195797Y0029393D01*
X0195857Y0029247D01*
X0195913Y0029099D01*
X0195966Y0028950D01*
X0196015Y0028799D01*
X0196060Y0028647D01*
X0196101Y0028494D01*
X0196139Y0028341D01*
X0196172Y0028186D01*
X0196202Y0028030D01*
X0196228Y0027874D01*
X0196249Y0027717D01*
X0196267Y0027560D01*
X0196281Y0027402D01*
X0196291Y0027244D01*
X0196297Y0027086D01*
X0196299Y0026928D01*
X0196297Y0026770D01*
X0196291Y0026612D01*
X0196281Y0026454D01*
X0196267Y0026296D01*
X0196249Y0026139D01*
X0196228Y0025982D01*
X0196202Y0025826D01*
X0196172Y0025670D01*
X0196139Y0025515D01*
X0196101Y0025362D01*
X0196060Y0025209D01*
X0196015Y0025057D01*
X0195966Y0024906D01*
X0195913Y0024757D01*
X0195857Y0024609D01*
X0195797Y0024463D01*
X0195733Y0024318D01*
X0195665Y0024175D01*
X0195594Y0024033D01*
X0195520Y0023893D01*
X0195442Y0023756D01*
X0195360Y0023620D01*
X0195276Y0023486D01*
X0195187Y0023355D01*
X0195096Y0023226D01*
X0195001Y0023099D01*
X0194904Y0022974D01*
X0194803Y0022852D01*
X0194699Y0022733D01*
X0194592Y0022616D01*
X0194482Y0022502D01*
X0194369Y0022391D01*
X0194254Y0022282D01*
X0194136Y0022177D01*
X0194015Y0022075D01*
X0193892Y0021975D01*
X0193766Y0021879D01*
X0193638Y0021786D01*
X0193508Y0021696D01*
X0193375Y0021610D01*
X0193240Y0021526D01*
X0193104Y0021447D01*
X0192965Y0021370D01*
X0192824Y0021298D01*
X0192682Y0021228D01*
X0192538Y0021163D01*
X0192392Y0021101D01*
X0192245Y0021043D01*
X0192096Y0020988D01*
X0191946Y0020937D01*
X0191795Y0020890D01*
X0191643Y0020847D01*
X0191490Y0020808D01*
X0191335Y0020772D01*
X0191180Y0020741D01*
X0191024Y0020713D01*
X0190868Y0020689D01*
X0190711Y0020669D01*
X0190553Y0020653D01*
X0190396Y0020641D01*
X0190237Y0020633D01*
X0190079Y0020629D01*
X0189921Y0020629D01*
X0189763Y0020633D01*
X0189604Y0020641D01*
X0189447Y0020653D01*
X0189289Y0020669D01*
X0189132Y0020689D01*
X0188976Y0020713D01*
X0188820Y0020741D01*
X0188665Y0020772D01*
X0188510Y0020808D01*
X0188357Y0020847D01*
X0188205Y0020890D01*
X0188054Y0020937D01*
X0187904Y0020988D01*
X0187755Y0021043D01*
X0187608Y0021101D01*
X0187462Y0021163D01*
X0187318Y0021228D01*
X0187176Y0021298D01*
X0187035Y0021370D01*
X0186896Y0021447D01*
X0186760Y0021526D01*
X0186625Y0021610D01*
X0186492Y0021696D01*
X0186362Y0021786D01*
X0186234Y0021879D01*
X0186108Y0021975D01*
X0185985Y0022075D01*
X0185864Y0022177D01*
X0185746Y0022282D01*
X0185631Y0022391D01*
X0185518Y0022502D01*
X0185408Y0022616D01*
X0185301Y0022733D01*
X0185197Y0022852D01*
X0185096Y0022974D01*
X0184999Y0023099D01*
X0184904Y0023226D01*
X0184813Y0023355D01*
X0184724Y0023486D01*
X0184640Y0023620D01*
X0184558Y0023756D01*
X0184480Y0023893D01*
X0184406Y0024033D01*
X0184335Y0024175D01*
X0184267Y0024318D01*
X0184203Y0024463D01*
X0184143Y0024609D01*
X0184087Y0024757D01*
X0184034Y0024906D01*
X0183985Y0025057D01*
X0183940Y0025209D01*
X0183899Y0025362D01*
X0183861Y0025515D01*
X0183828Y0025670D01*
X0183798Y0025826D01*
X0183772Y0025982D01*
X0183751Y0026139D01*
X0183733Y0026296D01*
X0183719Y0026454D01*
X0183709Y0026612D01*
X0183703Y0026770D01*
X0183701Y0026928D01*
X0209921Y0031849D02*
X0210000Y0031928D01*
X0124063Y0199550D02*
X0124065Y0199675D01*
X0124071Y0199800D01*
X0124081Y0199924D01*
X0124095Y0200048D01*
X0124112Y0200172D01*
X0124134Y0200295D01*
X0124160Y0200417D01*
X0124189Y0200539D01*
X0124222Y0200659D01*
X0124260Y0200778D01*
X0124300Y0200897D01*
X0124345Y0201013D01*
X0124393Y0201128D01*
X0124445Y0201242D01*
X0124501Y0201354D01*
X0124560Y0201464D01*
X0124622Y0201572D01*
X0124688Y0201679D01*
X0124757Y0201783D01*
X0124830Y0201884D01*
X0124905Y0201984D01*
X0124984Y0202081D01*
X0125066Y0202175D01*
X0125151Y0202267D01*
X0125238Y0202356D01*
X0125329Y0202442D01*
X0125422Y0202525D01*
X0125518Y0202606D01*
X0125616Y0202683D01*
X0125716Y0202757D01*
X0125819Y0202828D01*
X0125924Y0202895D01*
X0126032Y0202960D01*
X0126141Y0203020D01*
X0126252Y0203078D01*
X0126365Y0203131D01*
X0126479Y0203181D01*
X0126595Y0203228D01*
X0126712Y0203270D01*
X0126831Y0203309D01*
X0126951Y0203345D01*
X0127072Y0203376D01*
X0127194Y0203404D01*
X0127316Y0203427D01*
X0127440Y0203447D01*
X0127564Y0203463D01*
X0127688Y0203475D01*
X0127813Y0203483D01*
X0127938Y0203487D01*
X0128062Y0203487D01*
X0128187Y0203483D01*
X0128312Y0203475D01*
X0128436Y0203463D01*
X0128560Y0203447D01*
X0128684Y0203427D01*
X0128806Y0203404D01*
X0128928Y0203376D01*
X0129049Y0203345D01*
X0129169Y0203309D01*
X0129288Y0203270D01*
X0129405Y0203228D01*
X0129521Y0203181D01*
X0129635Y0203131D01*
X0129748Y0203078D01*
X0129859Y0203020D01*
X0129969Y0202960D01*
X0130076Y0202895D01*
X0130181Y0202828D01*
X0130284Y0202757D01*
X0130384Y0202683D01*
X0130482Y0202606D01*
X0130578Y0202525D01*
X0130671Y0202442D01*
X0130762Y0202356D01*
X0130849Y0202267D01*
X0130934Y0202175D01*
X0131016Y0202081D01*
X0131095Y0201984D01*
X0131170Y0201884D01*
X0131243Y0201783D01*
X0131312Y0201679D01*
X0131378Y0201572D01*
X0131440Y0201464D01*
X0131499Y0201354D01*
X0131555Y0201242D01*
X0131607Y0201128D01*
X0131655Y0201013D01*
X0131700Y0200897D01*
X0131740Y0200778D01*
X0131778Y0200659D01*
X0131811Y0200539D01*
X0131840Y0200417D01*
X0131866Y0200295D01*
X0131888Y0200172D01*
X0131905Y0200048D01*
X0131919Y0199924D01*
X0131929Y0199800D01*
X0131935Y0199675D01*
X0131937Y0199550D01*
X0131935Y0199425D01*
X0131929Y0199300D01*
X0131919Y0199176D01*
X0131905Y0199052D01*
X0131888Y0198928D01*
X0131866Y0198805D01*
X0131840Y0198683D01*
X0131811Y0198561D01*
X0131778Y0198441D01*
X0131740Y0198322D01*
X0131700Y0198203D01*
X0131655Y0198087D01*
X0131607Y0197972D01*
X0131555Y0197858D01*
X0131499Y0197746D01*
X0131440Y0197636D01*
X0131378Y0197528D01*
X0131312Y0197421D01*
X0131243Y0197317D01*
X0131170Y0197216D01*
X0131095Y0197116D01*
X0131016Y0197019D01*
X0130934Y0196925D01*
X0130849Y0196833D01*
X0130762Y0196744D01*
X0130671Y0196658D01*
X0130578Y0196575D01*
X0130482Y0196494D01*
X0130384Y0196417D01*
X0130284Y0196343D01*
X0130181Y0196272D01*
X0130076Y0196205D01*
X0129968Y0196140D01*
X0129859Y0196080D01*
X0129748Y0196022D01*
X0129635Y0195969D01*
X0129521Y0195919D01*
X0129405Y0195872D01*
X0129288Y0195830D01*
X0129169Y0195791D01*
X0129049Y0195755D01*
X0128928Y0195724D01*
X0128806Y0195696D01*
X0128684Y0195673D01*
X0128560Y0195653D01*
X0128436Y0195637D01*
X0128312Y0195625D01*
X0128187Y0195617D01*
X0128062Y0195613D01*
X0127938Y0195613D01*
X0127813Y0195617D01*
X0127688Y0195625D01*
X0127564Y0195637D01*
X0127440Y0195653D01*
X0127316Y0195673D01*
X0127194Y0195696D01*
X0127072Y0195724D01*
X0126951Y0195755D01*
X0126831Y0195791D01*
X0126712Y0195830D01*
X0126595Y0195872D01*
X0126479Y0195919D01*
X0126365Y0195969D01*
X0126252Y0196022D01*
X0126141Y0196080D01*
X0126031Y0196140D01*
X0125924Y0196205D01*
X0125819Y0196272D01*
X0125716Y0196343D01*
X0125616Y0196417D01*
X0125518Y0196494D01*
X0125422Y0196575D01*
X0125329Y0196658D01*
X0125238Y0196744D01*
X0125151Y0196833D01*
X0125066Y0196925D01*
X0124984Y0197019D01*
X0124905Y0197116D01*
X0124830Y0197216D01*
X0124757Y0197317D01*
X0124688Y0197421D01*
X0124622Y0197528D01*
X0124560Y0197636D01*
X0124501Y0197746D01*
X0124445Y0197858D01*
X0124393Y0197972D01*
X0124345Y0198087D01*
X0124300Y0198203D01*
X0124260Y0198322D01*
X0124222Y0198441D01*
X0124189Y0198561D01*
X0124160Y0198683D01*
X0124134Y0198805D01*
X0124112Y0198928D01*
X0124095Y0199052D01*
X0124081Y0199176D01*
X0124071Y0199300D01*
X0124065Y0199425D01*
X0124063Y0199550D01*
X0158701Y0216928D02*
X0158703Y0217086D01*
X0158709Y0217244D01*
X0158719Y0217402D01*
X0158733Y0217560D01*
X0158751Y0217717D01*
X0158772Y0217874D01*
X0158798Y0218030D01*
X0158828Y0218186D01*
X0158861Y0218341D01*
X0158899Y0218494D01*
X0158940Y0218647D01*
X0158985Y0218799D01*
X0159034Y0218950D01*
X0159087Y0219099D01*
X0159143Y0219247D01*
X0159203Y0219393D01*
X0159267Y0219538D01*
X0159335Y0219681D01*
X0159406Y0219823D01*
X0159480Y0219963D01*
X0159558Y0220100D01*
X0159640Y0220236D01*
X0159724Y0220370D01*
X0159813Y0220501D01*
X0159904Y0220630D01*
X0159999Y0220757D01*
X0160096Y0220882D01*
X0160197Y0221004D01*
X0160301Y0221123D01*
X0160408Y0221240D01*
X0160518Y0221354D01*
X0160631Y0221465D01*
X0160746Y0221574D01*
X0160864Y0221679D01*
X0160985Y0221781D01*
X0161108Y0221881D01*
X0161234Y0221977D01*
X0161362Y0222070D01*
X0161492Y0222160D01*
X0161625Y0222246D01*
X0161760Y0222330D01*
X0161896Y0222409D01*
X0162035Y0222486D01*
X0162176Y0222558D01*
X0162318Y0222628D01*
X0162462Y0222693D01*
X0162608Y0222755D01*
X0162755Y0222813D01*
X0162904Y0222868D01*
X0163054Y0222919D01*
X0163205Y0222966D01*
X0163357Y0223009D01*
X0163510Y0223048D01*
X0163665Y0223084D01*
X0163820Y0223115D01*
X0163976Y0223143D01*
X0164132Y0223167D01*
X0164289Y0223187D01*
X0164447Y0223203D01*
X0164604Y0223215D01*
X0164763Y0223223D01*
X0164921Y0223227D01*
X0165079Y0223227D01*
X0165237Y0223223D01*
X0165396Y0223215D01*
X0165553Y0223203D01*
X0165711Y0223187D01*
X0165868Y0223167D01*
X0166024Y0223143D01*
X0166180Y0223115D01*
X0166335Y0223084D01*
X0166490Y0223048D01*
X0166643Y0223009D01*
X0166795Y0222966D01*
X0166946Y0222919D01*
X0167096Y0222868D01*
X0167245Y0222813D01*
X0167392Y0222755D01*
X0167538Y0222693D01*
X0167682Y0222628D01*
X0167824Y0222558D01*
X0167965Y0222486D01*
X0168104Y0222409D01*
X0168240Y0222330D01*
X0168375Y0222246D01*
X0168508Y0222160D01*
X0168638Y0222070D01*
X0168766Y0221977D01*
X0168892Y0221881D01*
X0169015Y0221781D01*
X0169136Y0221679D01*
X0169254Y0221574D01*
X0169369Y0221465D01*
X0169482Y0221354D01*
X0169592Y0221240D01*
X0169699Y0221123D01*
X0169803Y0221004D01*
X0169904Y0220882D01*
X0170001Y0220757D01*
X0170096Y0220630D01*
X0170187Y0220501D01*
X0170276Y0220370D01*
X0170360Y0220236D01*
X0170442Y0220100D01*
X0170520Y0219963D01*
X0170594Y0219823D01*
X0170665Y0219681D01*
X0170733Y0219538D01*
X0170797Y0219393D01*
X0170857Y0219247D01*
X0170913Y0219099D01*
X0170966Y0218950D01*
X0171015Y0218799D01*
X0171060Y0218647D01*
X0171101Y0218494D01*
X0171139Y0218341D01*
X0171172Y0218186D01*
X0171202Y0218030D01*
X0171228Y0217874D01*
X0171249Y0217717D01*
X0171267Y0217560D01*
X0171281Y0217402D01*
X0171291Y0217244D01*
X0171297Y0217086D01*
X0171299Y0216928D01*
X0171297Y0216770D01*
X0171291Y0216612D01*
X0171281Y0216454D01*
X0171267Y0216296D01*
X0171249Y0216139D01*
X0171228Y0215982D01*
X0171202Y0215826D01*
X0171172Y0215670D01*
X0171139Y0215515D01*
X0171101Y0215362D01*
X0171060Y0215209D01*
X0171015Y0215057D01*
X0170966Y0214906D01*
X0170913Y0214757D01*
X0170857Y0214609D01*
X0170797Y0214463D01*
X0170733Y0214318D01*
X0170665Y0214175D01*
X0170594Y0214033D01*
X0170520Y0213893D01*
X0170442Y0213756D01*
X0170360Y0213620D01*
X0170276Y0213486D01*
X0170187Y0213355D01*
X0170096Y0213226D01*
X0170001Y0213099D01*
X0169904Y0212974D01*
X0169803Y0212852D01*
X0169699Y0212733D01*
X0169592Y0212616D01*
X0169482Y0212502D01*
X0169369Y0212391D01*
X0169254Y0212282D01*
X0169136Y0212177D01*
X0169015Y0212075D01*
X0168892Y0211975D01*
X0168766Y0211879D01*
X0168638Y0211786D01*
X0168508Y0211696D01*
X0168375Y0211610D01*
X0168240Y0211526D01*
X0168104Y0211447D01*
X0167965Y0211370D01*
X0167824Y0211298D01*
X0167682Y0211228D01*
X0167538Y0211163D01*
X0167392Y0211101D01*
X0167245Y0211043D01*
X0167096Y0210988D01*
X0166946Y0210937D01*
X0166795Y0210890D01*
X0166643Y0210847D01*
X0166490Y0210808D01*
X0166335Y0210772D01*
X0166180Y0210741D01*
X0166024Y0210713D01*
X0165868Y0210689D01*
X0165711Y0210669D01*
X0165553Y0210653D01*
X0165396Y0210641D01*
X0165237Y0210633D01*
X0165079Y0210629D01*
X0164921Y0210629D01*
X0164763Y0210633D01*
X0164604Y0210641D01*
X0164447Y0210653D01*
X0164289Y0210669D01*
X0164132Y0210689D01*
X0163976Y0210713D01*
X0163820Y0210741D01*
X0163665Y0210772D01*
X0163510Y0210808D01*
X0163357Y0210847D01*
X0163205Y0210890D01*
X0163054Y0210937D01*
X0162904Y0210988D01*
X0162755Y0211043D01*
X0162608Y0211101D01*
X0162462Y0211163D01*
X0162318Y0211228D01*
X0162176Y0211298D01*
X0162035Y0211370D01*
X0161896Y0211447D01*
X0161760Y0211526D01*
X0161625Y0211610D01*
X0161492Y0211696D01*
X0161362Y0211786D01*
X0161234Y0211879D01*
X0161108Y0211975D01*
X0160985Y0212075D01*
X0160864Y0212177D01*
X0160746Y0212282D01*
X0160631Y0212391D01*
X0160518Y0212502D01*
X0160408Y0212616D01*
X0160301Y0212733D01*
X0160197Y0212852D01*
X0160096Y0212974D01*
X0159999Y0213099D01*
X0159904Y0213226D01*
X0159813Y0213355D01*
X0159724Y0213486D01*
X0159640Y0213620D01*
X0159558Y0213756D01*
X0159480Y0213893D01*
X0159406Y0214033D01*
X0159335Y0214175D01*
X0159267Y0214318D01*
X0159203Y0214463D01*
X0159143Y0214609D01*
X0159087Y0214757D01*
X0159034Y0214906D01*
X0158985Y0215057D01*
X0158940Y0215209D01*
X0158899Y0215362D01*
X0158861Y0215515D01*
X0158828Y0215670D01*
X0158798Y0215826D01*
X0158772Y0215982D01*
X0158751Y0216139D01*
X0158733Y0216296D01*
X0158719Y0216454D01*
X0158709Y0216612D01*
X0158703Y0216770D01*
X0158701Y0216928D01*
D11*
X0094500Y0226928D02*
X0094500Y0016928D01*
X0200000Y0016928D01*
X0200000Y0021928D01*
X0210000Y0031928D01*
X0210000Y0032428D02*
X0210000Y0166928D01*
X0200000Y0176928D01*
X0200000Y0219428D01*
X0192500Y0226928D01*
X0094500Y0226928D01*
M02*
