G75*
%MOIN*%
%OFA0B0*%
%FSLAX25Y25*%
%IPPOS*%
%LPD*%
%AMOC8*
5,1,8,0,0,1.08239X$1,22.5*
%
%ADD10C,0.00000*%
%ADD11C,0.01200*%
%ADD12C,0.01100*%
%ADD13C,0.00300*%
%ADD14C,0.01500*%
%ADD15C,0.00400*%
%ADD16C,0.00500*%
%ADD17C,0.00800*%
%ADD18C,0.00060*%
%ADD19C,0.00100*%
%ADD20C,0.00200*%
%ADD21C,0.00600*%
%ADD22C,0.00700*%
%ADD23C,0.02000*%
%ADD24R,0.02000X0.01500*%
D10*
X0124063Y0058526D02*
X0124065Y0058651D01*
X0124071Y0058776D01*
X0124081Y0058900D01*
X0124095Y0059024D01*
X0124112Y0059148D01*
X0124134Y0059271D01*
X0124160Y0059393D01*
X0124189Y0059515D01*
X0124222Y0059635D01*
X0124260Y0059754D01*
X0124300Y0059873D01*
X0124345Y0059989D01*
X0124393Y0060104D01*
X0124445Y0060218D01*
X0124501Y0060330D01*
X0124560Y0060440D01*
X0124622Y0060548D01*
X0124688Y0060655D01*
X0124757Y0060759D01*
X0124830Y0060860D01*
X0124905Y0060960D01*
X0124984Y0061057D01*
X0125066Y0061151D01*
X0125151Y0061243D01*
X0125238Y0061332D01*
X0125329Y0061418D01*
X0125422Y0061501D01*
X0125518Y0061582D01*
X0125616Y0061659D01*
X0125716Y0061733D01*
X0125819Y0061804D01*
X0125924Y0061871D01*
X0126032Y0061936D01*
X0126141Y0061996D01*
X0126252Y0062054D01*
X0126365Y0062107D01*
X0126479Y0062157D01*
X0126595Y0062204D01*
X0126712Y0062246D01*
X0126831Y0062285D01*
X0126951Y0062321D01*
X0127072Y0062352D01*
X0127194Y0062380D01*
X0127316Y0062403D01*
X0127440Y0062423D01*
X0127564Y0062439D01*
X0127688Y0062451D01*
X0127813Y0062459D01*
X0127938Y0062463D01*
X0128062Y0062463D01*
X0128187Y0062459D01*
X0128312Y0062451D01*
X0128436Y0062439D01*
X0128560Y0062423D01*
X0128684Y0062403D01*
X0128806Y0062380D01*
X0128928Y0062352D01*
X0129049Y0062321D01*
X0129169Y0062285D01*
X0129288Y0062246D01*
X0129405Y0062204D01*
X0129521Y0062157D01*
X0129635Y0062107D01*
X0129748Y0062054D01*
X0129859Y0061996D01*
X0129969Y0061936D01*
X0130076Y0061871D01*
X0130181Y0061804D01*
X0130284Y0061733D01*
X0130384Y0061659D01*
X0130482Y0061582D01*
X0130578Y0061501D01*
X0130671Y0061418D01*
X0130762Y0061332D01*
X0130849Y0061243D01*
X0130934Y0061151D01*
X0131016Y0061057D01*
X0131095Y0060960D01*
X0131170Y0060860D01*
X0131243Y0060759D01*
X0131312Y0060655D01*
X0131378Y0060548D01*
X0131440Y0060440D01*
X0131499Y0060330D01*
X0131555Y0060218D01*
X0131607Y0060104D01*
X0131655Y0059989D01*
X0131700Y0059873D01*
X0131740Y0059754D01*
X0131778Y0059635D01*
X0131811Y0059515D01*
X0131840Y0059393D01*
X0131866Y0059271D01*
X0131888Y0059148D01*
X0131905Y0059024D01*
X0131919Y0058900D01*
X0131929Y0058776D01*
X0131935Y0058651D01*
X0131937Y0058526D01*
X0131935Y0058401D01*
X0131929Y0058276D01*
X0131919Y0058152D01*
X0131905Y0058028D01*
X0131888Y0057904D01*
X0131866Y0057781D01*
X0131840Y0057659D01*
X0131811Y0057537D01*
X0131778Y0057417D01*
X0131740Y0057298D01*
X0131700Y0057179D01*
X0131655Y0057063D01*
X0131607Y0056948D01*
X0131555Y0056834D01*
X0131499Y0056722D01*
X0131440Y0056612D01*
X0131378Y0056504D01*
X0131312Y0056397D01*
X0131243Y0056293D01*
X0131170Y0056192D01*
X0131095Y0056092D01*
X0131016Y0055995D01*
X0130934Y0055901D01*
X0130849Y0055809D01*
X0130762Y0055720D01*
X0130671Y0055634D01*
X0130578Y0055551D01*
X0130482Y0055470D01*
X0130384Y0055393D01*
X0130284Y0055319D01*
X0130181Y0055248D01*
X0130076Y0055181D01*
X0129968Y0055116D01*
X0129859Y0055056D01*
X0129748Y0054998D01*
X0129635Y0054945D01*
X0129521Y0054895D01*
X0129405Y0054848D01*
X0129288Y0054806D01*
X0129169Y0054767D01*
X0129049Y0054731D01*
X0128928Y0054700D01*
X0128806Y0054672D01*
X0128684Y0054649D01*
X0128560Y0054629D01*
X0128436Y0054613D01*
X0128312Y0054601D01*
X0128187Y0054593D01*
X0128062Y0054589D01*
X0127938Y0054589D01*
X0127813Y0054593D01*
X0127688Y0054601D01*
X0127564Y0054613D01*
X0127440Y0054629D01*
X0127316Y0054649D01*
X0127194Y0054672D01*
X0127072Y0054700D01*
X0126951Y0054731D01*
X0126831Y0054767D01*
X0126712Y0054806D01*
X0126595Y0054848D01*
X0126479Y0054895D01*
X0126365Y0054945D01*
X0126252Y0054998D01*
X0126141Y0055056D01*
X0126031Y0055116D01*
X0125924Y0055181D01*
X0125819Y0055248D01*
X0125716Y0055319D01*
X0125616Y0055393D01*
X0125518Y0055470D01*
X0125422Y0055551D01*
X0125329Y0055634D01*
X0125238Y0055720D01*
X0125151Y0055809D01*
X0125066Y0055901D01*
X0124984Y0055995D01*
X0124905Y0056092D01*
X0124830Y0056192D01*
X0124757Y0056293D01*
X0124688Y0056397D01*
X0124622Y0056504D01*
X0124560Y0056612D01*
X0124501Y0056722D01*
X0124445Y0056834D01*
X0124393Y0056948D01*
X0124345Y0057063D01*
X0124300Y0057179D01*
X0124260Y0057298D01*
X0124222Y0057417D01*
X0124189Y0057537D01*
X0124160Y0057659D01*
X0124134Y0057781D01*
X0124112Y0057904D01*
X0124095Y0058028D01*
X0124081Y0058152D01*
X0124071Y0058276D01*
X0124065Y0058401D01*
X0124063Y0058526D01*
X0183701Y0026928D02*
X0183703Y0027086D01*
X0183709Y0027244D01*
X0183719Y0027402D01*
X0183733Y0027560D01*
X0183751Y0027717D01*
X0183772Y0027874D01*
X0183798Y0028030D01*
X0183828Y0028186D01*
X0183861Y0028341D01*
X0183899Y0028494D01*
X0183940Y0028647D01*
X0183985Y0028799D01*
X0184034Y0028950D01*
X0184087Y0029099D01*
X0184143Y0029247D01*
X0184203Y0029393D01*
X0184267Y0029538D01*
X0184335Y0029681D01*
X0184406Y0029823D01*
X0184480Y0029963D01*
X0184558Y0030100D01*
X0184640Y0030236D01*
X0184724Y0030370D01*
X0184813Y0030501D01*
X0184904Y0030630D01*
X0184999Y0030757D01*
X0185096Y0030882D01*
X0185197Y0031004D01*
X0185301Y0031123D01*
X0185408Y0031240D01*
X0185518Y0031354D01*
X0185631Y0031465D01*
X0185746Y0031574D01*
X0185864Y0031679D01*
X0185985Y0031781D01*
X0186108Y0031881D01*
X0186234Y0031977D01*
X0186362Y0032070D01*
X0186492Y0032160D01*
X0186625Y0032246D01*
X0186760Y0032330D01*
X0186896Y0032409D01*
X0187035Y0032486D01*
X0187176Y0032558D01*
X0187318Y0032628D01*
X0187462Y0032693D01*
X0187608Y0032755D01*
X0187755Y0032813D01*
X0187904Y0032868D01*
X0188054Y0032919D01*
X0188205Y0032966D01*
X0188357Y0033009D01*
X0188510Y0033048D01*
X0188665Y0033084D01*
X0188820Y0033115D01*
X0188976Y0033143D01*
X0189132Y0033167D01*
X0189289Y0033187D01*
X0189447Y0033203D01*
X0189604Y0033215D01*
X0189763Y0033223D01*
X0189921Y0033227D01*
X0190079Y0033227D01*
X0190237Y0033223D01*
X0190396Y0033215D01*
X0190553Y0033203D01*
X0190711Y0033187D01*
X0190868Y0033167D01*
X0191024Y0033143D01*
X0191180Y0033115D01*
X0191335Y0033084D01*
X0191490Y0033048D01*
X0191643Y0033009D01*
X0191795Y0032966D01*
X0191946Y0032919D01*
X0192096Y0032868D01*
X0192245Y0032813D01*
X0192392Y0032755D01*
X0192538Y0032693D01*
X0192682Y0032628D01*
X0192824Y0032558D01*
X0192965Y0032486D01*
X0193104Y0032409D01*
X0193240Y0032330D01*
X0193375Y0032246D01*
X0193508Y0032160D01*
X0193638Y0032070D01*
X0193766Y0031977D01*
X0193892Y0031881D01*
X0194015Y0031781D01*
X0194136Y0031679D01*
X0194254Y0031574D01*
X0194369Y0031465D01*
X0194482Y0031354D01*
X0194592Y0031240D01*
X0194699Y0031123D01*
X0194803Y0031004D01*
X0194904Y0030882D01*
X0195001Y0030757D01*
X0195096Y0030630D01*
X0195187Y0030501D01*
X0195276Y0030370D01*
X0195360Y0030236D01*
X0195442Y0030100D01*
X0195520Y0029963D01*
X0195594Y0029823D01*
X0195665Y0029681D01*
X0195733Y0029538D01*
X0195797Y0029393D01*
X0195857Y0029247D01*
X0195913Y0029099D01*
X0195966Y0028950D01*
X0196015Y0028799D01*
X0196060Y0028647D01*
X0196101Y0028494D01*
X0196139Y0028341D01*
X0196172Y0028186D01*
X0196202Y0028030D01*
X0196228Y0027874D01*
X0196249Y0027717D01*
X0196267Y0027560D01*
X0196281Y0027402D01*
X0196291Y0027244D01*
X0196297Y0027086D01*
X0196299Y0026928D01*
X0196297Y0026770D01*
X0196291Y0026612D01*
X0196281Y0026454D01*
X0196267Y0026296D01*
X0196249Y0026139D01*
X0196228Y0025982D01*
X0196202Y0025826D01*
X0196172Y0025670D01*
X0196139Y0025515D01*
X0196101Y0025362D01*
X0196060Y0025209D01*
X0196015Y0025057D01*
X0195966Y0024906D01*
X0195913Y0024757D01*
X0195857Y0024609D01*
X0195797Y0024463D01*
X0195733Y0024318D01*
X0195665Y0024175D01*
X0195594Y0024033D01*
X0195520Y0023893D01*
X0195442Y0023756D01*
X0195360Y0023620D01*
X0195276Y0023486D01*
X0195187Y0023355D01*
X0195096Y0023226D01*
X0195001Y0023099D01*
X0194904Y0022974D01*
X0194803Y0022852D01*
X0194699Y0022733D01*
X0194592Y0022616D01*
X0194482Y0022502D01*
X0194369Y0022391D01*
X0194254Y0022282D01*
X0194136Y0022177D01*
X0194015Y0022075D01*
X0193892Y0021975D01*
X0193766Y0021879D01*
X0193638Y0021786D01*
X0193508Y0021696D01*
X0193375Y0021610D01*
X0193240Y0021526D01*
X0193104Y0021447D01*
X0192965Y0021370D01*
X0192824Y0021298D01*
X0192682Y0021228D01*
X0192538Y0021163D01*
X0192392Y0021101D01*
X0192245Y0021043D01*
X0192096Y0020988D01*
X0191946Y0020937D01*
X0191795Y0020890D01*
X0191643Y0020847D01*
X0191490Y0020808D01*
X0191335Y0020772D01*
X0191180Y0020741D01*
X0191024Y0020713D01*
X0190868Y0020689D01*
X0190711Y0020669D01*
X0190553Y0020653D01*
X0190396Y0020641D01*
X0190237Y0020633D01*
X0190079Y0020629D01*
X0189921Y0020629D01*
X0189763Y0020633D01*
X0189604Y0020641D01*
X0189447Y0020653D01*
X0189289Y0020669D01*
X0189132Y0020689D01*
X0188976Y0020713D01*
X0188820Y0020741D01*
X0188665Y0020772D01*
X0188510Y0020808D01*
X0188357Y0020847D01*
X0188205Y0020890D01*
X0188054Y0020937D01*
X0187904Y0020988D01*
X0187755Y0021043D01*
X0187608Y0021101D01*
X0187462Y0021163D01*
X0187318Y0021228D01*
X0187176Y0021298D01*
X0187035Y0021370D01*
X0186896Y0021447D01*
X0186760Y0021526D01*
X0186625Y0021610D01*
X0186492Y0021696D01*
X0186362Y0021786D01*
X0186234Y0021879D01*
X0186108Y0021975D01*
X0185985Y0022075D01*
X0185864Y0022177D01*
X0185746Y0022282D01*
X0185631Y0022391D01*
X0185518Y0022502D01*
X0185408Y0022616D01*
X0185301Y0022733D01*
X0185197Y0022852D01*
X0185096Y0022974D01*
X0184999Y0023099D01*
X0184904Y0023226D01*
X0184813Y0023355D01*
X0184724Y0023486D01*
X0184640Y0023620D01*
X0184558Y0023756D01*
X0184480Y0023893D01*
X0184406Y0024033D01*
X0184335Y0024175D01*
X0184267Y0024318D01*
X0184203Y0024463D01*
X0184143Y0024609D01*
X0184087Y0024757D01*
X0184034Y0024906D01*
X0183985Y0025057D01*
X0183940Y0025209D01*
X0183899Y0025362D01*
X0183861Y0025515D01*
X0183828Y0025670D01*
X0183798Y0025826D01*
X0183772Y0025982D01*
X0183751Y0026139D01*
X0183733Y0026296D01*
X0183719Y0026454D01*
X0183709Y0026612D01*
X0183703Y0026770D01*
X0183701Y0026928D01*
X0209921Y0031849D02*
X0210000Y0031928D01*
X0124063Y0199550D02*
X0124065Y0199675D01*
X0124071Y0199800D01*
X0124081Y0199924D01*
X0124095Y0200048D01*
X0124112Y0200172D01*
X0124134Y0200295D01*
X0124160Y0200417D01*
X0124189Y0200539D01*
X0124222Y0200659D01*
X0124260Y0200778D01*
X0124300Y0200897D01*
X0124345Y0201013D01*
X0124393Y0201128D01*
X0124445Y0201242D01*
X0124501Y0201354D01*
X0124560Y0201464D01*
X0124622Y0201572D01*
X0124688Y0201679D01*
X0124757Y0201783D01*
X0124830Y0201884D01*
X0124905Y0201984D01*
X0124984Y0202081D01*
X0125066Y0202175D01*
X0125151Y0202267D01*
X0125238Y0202356D01*
X0125329Y0202442D01*
X0125422Y0202525D01*
X0125518Y0202606D01*
X0125616Y0202683D01*
X0125716Y0202757D01*
X0125819Y0202828D01*
X0125924Y0202895D01*
X0126032Y0202960D01*
X0126141Y0203020D01*
X0126252Y0203078D01*
X0126365Y0203131D01*
X0126479Y0203181D01*
X0126595Y0203228D01*
X0126712Y0203270D01*
X0126831Y0203309D01*
X0126951Y0203345D01*
X0127072Y0203376D01*
X0127194Y0203404D01*
X0127316Y0203427D01*
X0127440Y0203447D01*
X0127564Y0203463D01*
X0127688Y0203475D01*
X0127813Y0203483D01*
X0127938Y0203487D01*
X0128062Y0203487D01*
X0128187Y0203483D01*
X0128312Y0203475D01*
X0128436Y0203463D01*
X0128560Y0203447D01*
X0128684Y0203427D01*
X0128806Y0203404D01*
X0128928Y0203376D01*
X0129049Y0203345D01*
X0129169Y0203309D01*
X0129288Y0203270D01*
X0129405Y0203228D01*
X0129521Y0203181D01*
X0129635Y0203131D01*
X0129748Y0203078D01*
X0129859Y0203020D01*
X0129969Y0202960D01*
X0130076Y0202895D01*
X0130181Y0202828D01*
X0130284Y0202757D01*
X0130384Y0202683D01*
X0130482Y0202606D01*
X0130578Y0202525D01*
X0130671Y0202442D01*
X0130762Y0202356D01*
X0130849Y0202267D01*
X0130934Y0202175D01*
X0131016Y0202081D01*
X0131095Y0201984D01*
X0131170Y0201884D01*
X0131243Y0201783D01*
X0131312Y0201679D01*
X0131378Y0201572D01*
X0131440Y0201464D01*
X0131499Y0201354D01*
X0131555Y0201242D01*
X0131607Y0201128D01*
X0131655Y0201013D01*
X0131700Y0200897D01*
X0131740Y0200778D01*
X0131778Y0200659D01*
X0131811Y0200539D01*
X0131840Y0200417D01*
X0131866Y0200295D01*
X0131888Y0200172D01*
X0131905Y0200048D01*
X0131919Y0199924D01*
X0131929Y0199800D01*
X0131935Y0199675D01*
X0131937Y0199550D01*
X0131935Y0199425D01*
X0131929Y0199300D01*
X0131919Y0199176D01*
X0131905Y0199052D01*
X0131888Y0198928D01*
X0131866Y0198805D01*
X0131840Y0198683D01*
X0131811Y0198561D01*
X0131778Y0198441D01*
X0131740Y0198322D01*
X0131700Y0198203D01*
X0131655Y0198087D01*
X0131607Y0197972D01*
X0131555Y0197858D01*
X0131499Y0197746D01*
X0131440Y0197636D01*
X0131378Y0197528D01*
X0131312Y0197421D01*
X0131243Y0197317D01*
X0131170Y0197216D01*
X0131095Y0197116D01*
X0131016Y0197019D01*
X0130934Y0196925D01*
X0130849Y0196833D01*
X0130762Y0196744D01*
X0130671Y0196658D01*
X0130578Y0196575D01*
X0130482Y0196494D01*
X0130384Y0196417D01*
X0130284Y0196343D01*
X0130181Y0196272D01*
X0130076Y0196205D01*
X0129968Y0196140D01*
X0129859Y0196080D01*
X0129748Y0196022D01*
X0129635Y0195969D01*
X0129521Y0195919D01*
X0129405Y0195872D01*
X0129288Y0195830D01*
X0129169Y0195791D01*
X0129049Y0195755D01*
X0128928Y0195724D01*
X0128806Y0195696D01*
X0128684Y0195673D01*
X0128560Y0195653D01*
X0128436Y0195637D01*
X0128312Y0195625D01*
X0128187Y0195617D01*
X0128062Y0195613D01*
X0127938Y0195613D01*
X0127813Y0195617D01*
X0127688Y0195625D01*
X0127564Y0195637D01*
X0127440Y0195653D01*
X0127316Y0195673D01*
X0127194Y0195696D01*
X0127072Y0195724D01*
X0126951Y0195755D01*
X0126831Y0195791D01*
X0126712Y0195830D01*
X0126595Y0195872D01*
X0126479Y0195919D01*
X0126365Y0195969D01*
X0126252Y0196022D01*
X0126141Y0196080D01*
X0126031Y0196140D01*
X0125924Y0196205D01*
X0125819Y0196272D01*
X0125716Y0196343D01*
X0125616Y0196417D01*
X0125518Y0196494D01*
X0125422Y0196575D01*
X0125329Y0196658D01*
X0125238Y0196744D01*
X0125151Y0196833D01*
X0125066Y0196925D01*
X0124984Y0197019D01*
X0124905Y0197116D01*
X0124830Y0197216D01*
X0124757Y0197317D01*
X0124688Y0197421D01*
X0124622Y0197528D01*
X0124560Y0197636D01*
X0124501Y0197746D01*
X0124445Y0197858D01*
X0124393Y0197972D01*
X0124345Y0198087D01*
X0124300Y0198203D01*
X0124260Y0198322D01*
X0124222Y0198441D01*
X0124189Y0198561D01*
X0124160Y0198683D01*
X0124134Y0198805D01*
X0124112Y0198928D01*
X0124095Y0199052D01*
X0124081Y0199176D01*
X0124071Y0199300D01*
X0124065Y0199425D01*
X0124063Y0199550D01*
X0158701Y0216928D02*
X0158703Y0217086D01*
X0158709Y0217244D01*
X0158719Y0217402D01*
X0158733Y0217560D01*
X0158751Y0217717D01*
X0158772Y0217874D01*
X0158798Y0218030D01*
X0158828Y0218186D01*
X0158861Y0218341D01*
X0158899Y0218494D01*
X0158940Y0218647D01*
X0158985Y0218799D01*
X0159034Y0218950D01*
X0159087Y0219099D01*
X0159143Y0219247D01*
X0159203Y0219393D01*
X0159267Y0219538D01*
X0159335Y0219681D01*
X0159406Y0219823D01*
X0159480Y0219963D01*
X0159558Y0220100D01*
X0159640Y0220236D01*
X0159724Y0220370D01*
X0159813Y0220501D01*
X0159904Y0220630D01*
X0159999Y0220757D01*
X0160096Y0220882D01*
X0160197Y0221004D01*
X0160301Y0221123D01*
X0160408Y0221240D01*
X0160518Y0221354D01*
X0160631Y0221465D01*
X0160746Y0221574D01*
X0160864Y0221679D01*
X0160985Y0221781D01*
X0161108Y0221881D01*
X0161234Y0221977D01*
X0161362Y0222070D01*
X0161492Y0222160D01*
X0161625Y0222246D01*
X0161760Y0222330D01*
X0161896Y0222409D01*
X0162035Y0222486D01*
X0162176Y0222558D01*
X0162318Y0222628D01*
X0162462Y0222693D01*
X0162608Y0222755D01*
X0162755Y0222813D01*
X0162904Y0222868D01*
X0163054Y0222919D01*
X0163205Y0222966D01*
X0163357Y0223009D01*
X0163510Y0223048D01*
X0163665Y0223084D01*
X0163820Y0223115D01*
X0163976Y0223143D01*
X0164132Y0223167D01*
X0164289Y0223187D01*
X0164447Y0223203D01*
X0164604Y0223215D01*
X0164763Y0223223D01*
X0164921Y0223227D01*
X0165079Y0223227D01*
X0165237Y0223223D01*
X0165396Y0223215D01*
X0165553Y0223203D01*
X0165711Y0223187D01*
X0165868Y0223167D01*
X0166024Y0223143D01*
X0166180Y0223115D01*
X0166335Y0223084D01*
X0166490Y0223048D01*
X0166643Y0223009D01*
X0166795Y0222966D01*
X0166946Y0222919D01*
X0167096Y0222868D01*
X0167245Y0222813D01*
X0167392Y0222755D01*
X0167538Y0222693D01*
X0167682Y0222628D01*
X0167824Y0222558D01*
X0167965Y0222486D01*
X0168104Y0222409D01*
X0168240Y0222330D01*
X0168375Y0222246D01*
X0168508Y0222160D01*
X0168638Y0222070D01*
X0168766Y0221977D01*
X0168892Y0221881D01*
X0169015Y0221781D01*
X0169136Y0221679D01*
X0169254Y0221574D01*
X0169369Y0221465D01*
X0169482Y0221354D01*
X0169592Y0221240D01*
X0169699Y0221123D01*
X0169803Y0221004D01*
X0169904Y0220882D01*
X0170001Y0220757D01*
X0170096Y0220630D01*
X0170187Y0220501D01*
X0170276Y0220370D01*
X0170360Y0220236D01*
X0170442Y0220100D01*
X0170520Y0219963D01*
X0170594Y0219823D01*
X0170665Y0219681D01*
X0170733Y0219538D01*
X0170797Y0219393D01*
X0170857Y0219247D01*
X0170913Y0219099D01*
X0170966Y0218950D01*
X0171015Y0218799D01*
X0171060Y0218647D01*
X0171101Y0218494D01*
X0171139Y0218341D01*
X0171172Y0218186D01*
X0171202Y0218030D01*
X0171228Y0217874D01*
X0171249Y0217717D01*
X0171267Y0217560D01*
X0171281Y0217402D01*
X0171291Y0217244D01*
X0171297Y0217086D01*
X0171299Y0216928D01*
X0171297Y0216770D01*
X0171291Y0216612D01*
X0171281Y0216454D01*
X0171267Y0216296D01*
X0171249Y0216139D01*
X0171228Y0215982D01*
X0171202Y0215826D01*
X0171172Y0215670D01*
X0171139Y0215515D01*
X0171101Y0215362D01*
X0171060Y0215209D01*
X0171015Y0215057D01*
X0170966Y0214906D01*
X0170913Y0214757D01*
X0170857Y0214609D01*
X0170797Y0214463D01*
X0170733Y0214318D01*
X0170665Y0214175D01*
X0170594Y0214033D01*
X0170520Y0213893D01*
X0170442Y0213756D01*
X0170360Y0213620D01*
X0170276Y0213486D01*
X0170187Y0213355D01*
X0170096Y0213226D01*
X0170001Y0213099D01*
X0169904Y0212974D01*
X0169803Y0212852D01*
X0169699Y0212733D01*
X0169592Y0212616D01*
X0169482Y0212502D01*
X0169369Y0212391D01*
X0169254Y0212282D01*
X0169136Y0212177D01*
X0169015Y0212075D01*
X0168892Y0211975D01*
X0168766Y0211879D01*
X0168638Y0211786D01*
X0168508Y0211696D01*
X0168375Y0211610D01*
X0168240Y0211526D01*
X0168104Y0211447D01*
X0167965Y0211370D01*
X0167824Y0211298D01*
X0167682Y0211228D01*
X0167538Y0211163D01*
X0167392Y0211101D01*
X0167245Y0211043D01*
X0167096Y0210988D01*
X0166946Y0210937D01*
X0166795Y0210890D01*
X0166643Y0210847D01*
X0166490Y0210808D01*
X0166335Y0210772D01*
X0166180Y0210741D01*
X0166024Y0210713D01*
X0165868Y0210689D01*
X0165711Y0210669D01*
X0165553Y0210653D01*
X0165396Y0210641D01*
X0165237Y0210633D01*
X0165079Y0210629D01*
X0164921Y0210629D01*
X0164763Y0210633D01*
X0164604Y0210641D01*
X0164447Y0210653D01*
X0164289Y0210669D01*
X0164132Y0210689D01*
X0163976Y0210713D01*
X0163820Y0210741D01*
X0163665Y0210772D01*
X0163510Y0210808D01*
X0163357Y0210847D01*
X0163205Y0210890D01*
X0163054Y0210937D01*
X0162904Y0210988D01*
X0162755Y0211043D01*
X0162608Y0211101D01*
X0162462Y0211163D01*
X0162318Y0211228D01*
X0162176Y0211298D01*
X0162035Y0211370D01*
X0161896Y0211447D01*
X0161760Y0211526D01*
X0161625Y0211610D01*
X0161492Y0211696D01*
X0161362Y0211786D01*
X0161234Y0211879D01*
X0161108Y0211975D01*
X0160985Y0212075D01*
X0160864Y0212177D01*
X0160746Y0212282D01*
X0160631Y0212391D01*
X0160518Y0212502D01*
X0160408Y0212616D01*
X0160301Y0212733D01*
X0160197Y0212852D01*
X0160096Y0212974D01*
X0159999Y0213099D01*
X0159904Y0213226D01*
X0159813Y0213355D01*
X0159724Y0213486D01*
X0159640Y0213620D01*
X0159558Y0213756D01*
X0159480Y0213893D01*
X0159406Y0214033D01*
X0159335Y0214175D01*
X0159267Y0214318D01*
X0159203Y0214463D01*
X0159143Y0214609D01*
X0159087Y0214757D01*
X0159034Y0214906D01*
X0158985Y0215057D01*
X0158940Y0215209D01*
X0158899Y0215362D01*
X0158861Y0215515D01*
X0158828Y0215670D01*
X0158798Y0215826D01*
X0158772Y0215982D01*
X0158751Y0216139D01*
X0158733Y0216296D01*
X0158719Y0216454D01*
X0158709Y0216612D01*
X0158703Y0216770D01*
X0158701Y0216928D01*
D11*
X0094500Y0226928D02*
X0094500Y0016928D01*
X0200000Y0016928D01*
X0200000Y0021928D01*
X0210000Y0031928D01*
X0210000Y0032428D02*
X0210000Y0166928D01*
X0200000Y0176928D01*
X0200000Y0219428D01*
X0192500Y0226928D01*
X0094500Y0226928D01*
D12*
X0201447Y0163061D02*
X0201447Y0160809D01*
X0204450Y0160809D01*
X0204450Y0158655D02*
X0202198Y0158655D01*
X0201447Y0157905D01*
X0201447Y0155653D01*
X0204450Y0155653D01*
X0204450Y0153499D02*
X0202198Y0153499D01*
X0201447Y0152748D01*
X0201447Y0151247D01*
X0202949Y0151247D02*
X0203699Y0150497D01*
X0204450Y0151247D01*
X0204450Y0153499D01*
X0202949Y0153499D02*
X0202949Y0151247D01*
X0202198Y0148343D02*
X0201447Y0147592D01*
X0202198Y0146841D01*
X0204450Y0146841D01*
X0204450Y0145340D02*
X0201447Y0145340D01*
X0201447Y0146091D01*
X0202198Y0146841D01*
X0202198Y0148343D02*
X0204450Y0148343D01*
X0204450Y0143404D02*
X0204450Y0141903D01*
X0204450Y0142653D02*
X0199946Y0142653D01*
X0199946Y0141903D01*
X0199946Y0139216D02*
X0204450Y0139216D01*
X0204450Y0139966D02*
X0204450Y0138465D01*
X0202949Y0136311D02*
X0202949Y0133309D01*
X0203699Y0133309D02*
X0202198Y0133309D01*
X0201447Y0134059D01*
X0201447Y0135560D01*
X0202198Y0136311D01*
X0202949Y0136311D01*
X0204450Y0135560D02*
X0204450Y0134059D01*
X0203699Y0133309D01*
X0204450Y0131155D02*
X0199946Y0131155D01*
X0202198Y0131155D02*
X0202198Y0128152D01*
X0204450Y0128152D02*
X0199946Y0128152D01*
X0203699Y0121168D02*
X0204450Y0121168D01*
X0204450Y0120418D01*
X0203699Y0120418D01*
X0203699Y0121168D01*
X0199946Y0118264D02*
X0199946Y0115261D01*
X0204450Y0115261D01*
X0202198Y0115261D02*
X0202198Y0116762D01*
X0201447Y0107951D02*
X0205201Y0107951D01*
X0205951Y0107200D01*
X0205951Y0106450D01*
X0204450Y0105699D02*
X0204450Y0107951D01*
X0204450Y0105699D02*
X0203699Y0104948D01*
X0201447Y0104948D01*
X0202198Y0102794D02*
X0201447Y0102044D01*
X0201447Y0099792D01*
X0199946Y0099792D02*
X0204450Y0099792D01*
X0204450Y0102044D01*
X0203699Y0102794D01*
X0202198Y0102794D01*
X0200697Y0092482D02*
X0203699Y0089479D01*
X0204450Y0090230D01*
X0204450Y0091731D01*
X0203699Y0092482D01*
X0200697Y0092482D01*
X0199946Y0091731D01*
X0199946Y0090230D01*
X0200697Y0089479D01*
X0203699Y0089479D01*
X0203699Y0087652D02*
X0204450Y0087652D01*
X0204450Y0086901D01*
X0203699Y0086901D01*
X0203699Y0087652D01*
X0204450Y0084747D02*
X0204450Y0081745D01*
X0204450Y0083246D02*
X0199946Y0083246D01*
X0201447Y0081745D01*
X0201447Y0074543D02*
X0201447Y0073792D01*
X0202949Y0072291D01*
X0204450Y0072291D02*
X0201447Y0072291D01*
X0202198Y0070137D02*
X0201447Y0069387D01*
X0201447Y0067885D01*
X0202198Y0067135D01*
X0203699Y0067135D01*
X0204450Y0067885D01*
X0204450Y0069387D01*
X0202949Y0070137D02*
X0202949Y0067135D01*
X0204450Y0065198D02*
X0203699Y0064448D01*
X0200697Y0064448D01*
X0201447Y0065198D02*
X0201447Y0063697D01*
X0201447Y0061543D02*
X0201447Y0059291D01*
X0202198Y0058541D01*
X0202949Y0059291D01*
X0202949Y0060793D01*
X0203699Y0061543D01*
X0204450Y0060793D01*
X0204450Y0058541D01*
X0202949Y0056387D02*
X0202949Y0053384D01*
X0203699Y0053384D02*
X0202198Y0053384D01*
X0201447Y0054135D01*
X0201447Y0055636D01*
X0202198Y0056387D01*
X0202949Y0056387D01*
X0204450Y0055636D02*
X0204450Y0054135D01*
X0203699Y0053384D01*
X0199946Y0051231D02*
X0199946Y0048228D01*
X0199946Y0049729D02*
X0204450Y0049729D01*
X0203699Y0040918D02*
X0204450Y0040167D01*
X0204450Y0038666D01*
X0203699Y0037915D01*
X0200697Y0037915D01*
X0199946Y0038666D01*
X0199946Y0040167D01*
X0200697Y0040918D01*
X0199946Y0035979D02*
X0199946Y0034478D01*
X0199946Y0035228D02*
X0204450Y0035228D01*
X0204450Y0034478D02*
X0204450Y0035979D01*
X0202949Y0070137D02*
X0202198Y0070137D01*
X0199946Y0138465D02*
X0199946Y0139216D01*
X0201447Y0163061D02*
X0202198Y0163812D01*
X0204450Y0163812D01*
D13*
X0141908Y0210561D02*
X0141424Y0210078D01*
X0139973Y0210078D01*
X0139973Y0209110D02*
X0139973Y0212013D01*
X0141424Y0212013D01*
X0141908Y0211529D01*
X0141908Y0210561D01*
X0138961Y0210561D02*
X0138961Y0211529D01*
X0138477Y0212013D01*
X0137510Y0212013D01*
X0137026Y0211529D01*
X0137026Y0210561D01*
X0137510Y0210078D01*
X0138477Y0210078D01*
X0138961Y0210561D01*
X0136015Y0212980D02*
X0134080Y0212980D01*
X0135047Y0212980D02*
X0135047Y0210078D01*
X0130121Y0210078D02*
X0130121Y0211529D01*
X0129638Y0212013D01*
X0128186Y0212013D01*
X0128186Y0210078D01*
X0127175Y0210561D02*
X0127175Y0211529D01*
X0126691Y0212013D01*
X0125724Y0212013D01*
X0125240Y0211529D01*
X0125240Y0210561D01*
X0125724Y0210078D01*
X0126691Y0210078D01*
X0127175Y0210561D01*
X0115389Y0210078D02*
X0113454Y0210078D01*
X0114421Y0210078D02*
X0114421Y0212980D01*
X0113454Y0212013D01*
X0109496Y0211529D02*
X0109496Y0210078D01*
X0109496Y0211529D02*
X0109012Y0212013D01*
X0107561Y0212013D01*
X0107561Y0210078D01*
X0106564Y0210078D02*
X0105597Y0210078D01*
X0106080Y0210078D02*
X0106080Y0212013D01*
X0105597Y0212013D01*
X0106080Y0212980D02*
X0106080Y0213464D01*
X0104585Y0212496D02*
X0104585Y0211529D01*
X0104101Y0211045D01*
X0102650Y0211045D01*
X0102650Y0210078D02*
X0102650Y0212980D01*
X0104101Y0212980D01*
X0104585Y0212496D01*
X0126150Y0140278D02*
X0128619Y0137809D01*
X0129236Y0137809D01*
X0129853Y0138426D01*
X0129853Y0139660D01*
X0129236Y0140278D01*
X0126150Y0140278D02*
X0126150Y0137809D01*
X0126150Y0136594D02*
X0128619Y0134126D01*
X0129236Y0134126D01*
X0129853Y0134743D01*
X0129853Y0135977D01*
X0129236Y0136594D01*
X0126150Y0136594D02*
X0126150Y0134126D01*
X0126767Y0132911D02*
X0129236Y0130442D01*
X0126767Y0130442D01*
X0126150Y0131060D01*
X0126150Y0132294D01*
X0126767Y0132911D01*
X0129236Y0132911D01*
X0129853Y0132294D01*
X0129853Y0131060D01*
X0129236Y0130442D01*
X0128002Y0129228D02*
X0128002Y0126759D01*
X0129236Y0125545D02*
X0129853Y0124928D01*
X0129853Y0123693D01*
X0129236Y0123076D01*
X0128619Y0123076D01*
X0128002Y0123693D01*
X0127384Y0123076D01*
X0126767Y0123076D01*
X0126150Y0123693D01*
X0126150Y0124928D01*
X0126767Y0125545D01*
X0128002Y0124311D02*
X0128002Y0123693D01*
X0129236Y0121862D02*
X0129853Y0121245D01*
X0129853Y0120010D01*
X0129236Y0119393D01*
X0128619Y0119393D01*
X0128002Y0120010D01*
X0127384Y0119393D01*
X0126767Y0119393D01*
X0126150Y0120010D01*
X0126150Y0121245D01*
X0126767Y0121862D01*
X0128002Y0120627D02*
X0128002Y0120010D01*
X0128002Y0118179D02*
X0128002Y0115710D01*
X0129236Y0114496D02*
X0129853Y0113878D01*
X0129853Y0112644D01*
X0129236Y0112027D01*
X0128619Y0112027D01*
X0126150Y0114496D01*
X0126150Y0112027D01*
X0128002Y0110812D02*
X0128002Y0108344D01*
X0129236Y0107129D02*
X0126767Y0107129D01*
X0129236Y0104660D01*
X0126767Y0104660D01*
X0126150Y0105278D01*
X0126150Y0106512D01*
X0126767Y0107129D01*
X0129236Y0107129D02*
X0129853Y0106512D01*
X0129853Y0105278D01*
X0129236Y0104660D01*
X0129236Y0103446D02*
X0129853Y0102829D01*
X0129853Y0101595D01*
X0129236Y0100977D01*
X0126767Y0103446D01*
X0126150Y0102829D01*
X0126150Y0101595D01*
X0126767Y0100977D01*
X0129236Y0100977D01*
X0129236Y0103446D02*
X0126767Y0103446D01*
X0126150Y0116327D02*
X0129853Y0116327D01*
X0128002Y0118179D01*
D14*
X0126668Y0184678D02*
X0129504Y0184678D01*
X0130922Y0186095D01*
X0130922Y0193185D01*
X0125250Y0193185D02*
X0125250Y0186095D01*
X0126668Y0184678D01*
D15*
X0120000Y0187428D02*
X0103000Y0187428D01*
X0107000Y0184428D01*
X0107000Y0087428D01*
X0103000Y0084428D01*
X0103000Y0187428D01*
X0111200Y0189628D02*
X0114269Y0189628D01*
X0112735Y0189628D02*
X0112735Y0194231D01*
X0111200Y0192697D01*
X0120000Y0187428D02*
X0120000Y0084428D01*
X0103000Y0084428D01*
X0103866Y0079156D02*
X0101976Y0075061D01*
X0101976Y0079156D01*
X0103866Y0079156D02*
X0105717Y0075101D01*
X0105717Y0079156D01*
X0107016Y0077660D02*
X0107047Y0077611D01*
X0107081Y0077563D01*
X0107118Y0077518D01*
X0107158Y0077475D01*
X0107200Y0077434D01*
X0107245Y0077396D01*
X0107292Y0077361D01*
X0107341Y0077329D01*
X0107392Y0077300D01*
X0107444Y0077274D01*
X0107498Y0077252D01*
X0107554Y0077232D01*
X0107610Y0077216D01*
X0107667Y0077204D01*
X0107725Y0077195D01*
X0107784Y0077190D01*
X0107842Y0077188D01*
X0107843Y0077187D02*
X0108197Y0077187D01*
X0108630Y0079157D02*
X0108538Y0079175D01*
X0108445Y0079189D01*
X0108352Y0079200D01*
X0108258Y0079207D01*
X0108164Y0079210D01*
X0108070Y0079209D01*
X0107976Y0079204D01*
X0107882Y0079196D01*
X0107094Y0078762D02*
X0107059Y0078715D01*
X0107027Y0078666D01*
X0106997Y0078615D01*
X0106971Y0078563D01*
X0106948Y0078509D01*
X0106928Y0078453D01*
X0106912Y0078397D01*
X0106899Y0078340D01*
X0106889Y0078282D01*
X0106883Y0078223D01*
X0106881Y0078165D01*
X0106882Y0078106D01*
X0106887Y0078047D01*
X0106895Y0077989D01*
X0106907Y0077932D01*
X0106922Y0077875D01*
X0106940Y0077819D01*
X0106962Y0077765D01*
X0106987Y0077712D01*
X0107016Y0077660D01*
X0107094Y0078763D02*
X0107137Y0078813D01*
X0107182Y0078861D01*
X0107230Y0078906D01*
X0107280Y0078948D01*
X0107333Y0078988D01*
X0107388Y0079024D01*
X0107445Y0079058D01*
X0107503Y0079088D01*
X0107563Y0079115D01*
X0107625Y0079138D01*
X0107688Y0079158D01*
X0107752Y0079174D01*
X0107816Y0079187D01*
X0107882Y0079196D01*
X0108630Y0079155D02*
X0108688Y0079141D01*
X0108744Y0079123D01*
X0108799Y0079101D01*
X0108853Y0079075D01*
X0108905Y0079046D01*
X0108955Y0079014D01*
X0109002Y0078978D01*
X0109047Y0078940D01*
X0109089Y0078898D01*
X0109129Y0078854D01*
X0109166Y0078807D01*
X0109199Y0078758D01*
X0109229Y0078707D01*
X0109256Y0078654D01*
X0109279Y0078599D01*
X0109298Y0078543D01*
X0109314Y0078486D01*
X0109326Y0078428D01*
X0109334Y0078369D01*
X0109338Y0078310D01*
X0109339Y0078250D01*
X0109260Y0076203D02*
X0109243Y0076136D01*
X0109224Y0076070D01*
X0109200Y0076006D01*
X0109173Y0075942D01*
X0109143Y0075880D01*
X0109109Y0075820D01*
X0109072Y0075762D01*
X0109032Y0075706D01*
X0108989Y0075653D01*
X0108943Y0075601D01*
X0108895Y0075553D01*
X0108843Y0075507D01*
X0108790Y0075464D01*
X0108734Y0075424D01*
X0108675Y0075387D01*
X0108615Y0075353D01*
X0108554Y0075323D01*
X0108490Y0075296D01*
X0108426Y0075273D01*
X0108360Y0075253D01*
X0108293Y0075237D01*
X0108225Y0075225D01*
X0108157Y0075216D01*
X0108088Y0075211D01*
X0108019Y0075210D01*
X0107951Y0075213D01*
X0107882Y0075219D01*
X0107882Y0075220D02*
X0107823Y0075229D01*
X0107766Y0075241D01*
X0107709Y0075258D01*
X0107654Y0075278D01*
X0107600Y0075301D01*
X0107548Y0075328D01*
X0107497Y0075359D01*
X0107449Y0075392D01*
X0107403Y0075429D01*
X0107359Y0075469D01*
X0107318Y0075511D01*
X0107280Y0075556D01*
X0107245Y0075603D01*
X0107213Y0075652D01*
X0107134Y0076715D02*
X0107156Y0076764D01*
X0107182Y0076810D01*
X0107210Y0076855D01*
X0107242Y0076898D01*
X0107276Y0076938D01*
X0107313Y0076976D01*
X0107353Y0077011D01*
X0107395Y0077044D01*
X0107439Y0077073D01*
X0107485Y0077100D01*
X0107533Y0077123D01*
X0107583Y0077143D01*
X0107633Y0077159D01*
X0107685Y0077172D01*
X0107737Y0077181D01*
X0107790Y0077186D01*
X0107843Y0077188D01*
X0107134Y0076714D02*
X0107111Y0076654D01*
X0107091Y0076592D01*
X0107075Y0076529D01*
X0107062Y0076465D01*
X0107052Y0076401D01*
X0107046Y0076336D01*
X0107044Y0076271D01*
X0107045Y0076206D01*
X0107050Y0076141D01*
X0107058Y0076077D01*
X0107070Y0076013D01*
X0107086Y0075950D01*
X0107105Y0075887D01*
X0107127Y0075826D01*
X0107152Y0075767D01*
X0107181Y0075708D01*
X0107213Y0075652D01*
X0111543Y0079117D02*
X0113787Y0079117D01*
X0113787Y0074983D01*
X0115126Y0076872D02*
X0115126Y0077384D01*
X0115128Y0077468D01*
X0115134Y0077552D01*
X0115143Y0077636D01*
X0115157Y0077719D01*
X0115174Y0077802D01*
X0115195Y0077883D01*
X0115219Y0077964D01*
X0115247Y0078043D01*
X0115279Y0078121D01*
X0115314Y0078198D01*
X0115353Y0078272D01*
X0115395Y0078345D01*
X0115441Y0078416D01*
X0115489Y0078485D01*
X0115541Y0078552D01*
X0115596Y0078616D01*
X0115653Y0078677D01*
X0115713Y0078736D01*
X0115776Y0078792D01*
X0115841Y0078845D01*
X0115909Y0078895D01*
X0115979Y0078942D01*
X0116051Y0078986D01*
X0116125Y0079027D01*
X0116201Y0079064D01*
X0116278Y0079097D01*
X0116356Y0079127D01*
X0116436Y0079154D01*
X0116518Y0079176D01*
X0116600Y0079195D01*
X0116682Y0079211D01*
X0116766Y0079222D01*
X0116850Y0079230D01*
X0116934Y0079234D01*
X0117018Y0079234D01*
X0117102Y0079230D01*
X0117186Y0079222D01*
X0117270Y0079211D01*
X0117352Y0079195D01*
X0117434Y0079176D01*
X0117516Y0079154D01*
X0117596Y0079127D01*
X0117674Y0079097D01*
X0117751Y0079064D01*
X0117827Y0079027D01*
X0117901Y0078986D01*
X0117973Y0078942D01*
X0118043Y0078895D01*
X0118111Y0078845D01*
X0118176Y0078792D01*
X0118239Y0078736D01*
X0118299Y0078677D01*
X0118356Y0078616D01*
X0118411Y0078552D01*
X0118463Y0078485D01*
X0118511Y0078416D01*
X0118557Y0078345D01*
X0118599Y0078272D01*
X0118638Y0078198D01*
X0118673Y0078121D01*
X0118705Y0078043D01*
X0118733Y0077964D01*
X0118757Y0077883D01*
X0118778Y0077802D01*
X0118795Y0077719D01*
X0118809Y0077636D01*
X0118818Y0077552D01*
X0118824Y0077468D01*
X0118826Y0077384D01*
X0118827Y0077384D02*
X0118827Y0076872D01*
X0119969Y0076872D02*
X0119969Y0077384D01*
X0119971Y0077468D01*
X0119977Y0077552D01*
X0119986Y0077636D01*
X0120000Y0077719D01*
X0120017Y0077802D01*
X0120038Y0077883D01*
X0120062Y0077964D01*
X0120090Y0078043D01*
X0120122Y0078121D01*
X0120157Y0078198D01*
X0120196Y0078272D01*
X0120238Y0078345D01*
X0120284Y0078416D01*
X0120332Y0078485D01*
X0120384Y0078552D01*
X0120439Y0078616D01*
X0120496Y0078677D01*
X0120556Y0078736D01*
X0120619Y0078792D01*
X0120684Y0078845D01*
X0120752Y0078895D01*
X0120822Y0078942D01*
X0120894Y0078986D01*
X0120968Y0079027D01*
X0121044Y0079064D01*
X0121121Y0079097D01*
X0121199Y0079127D01*
X0121279Y0079154D01*
X0121361Y0079176D01*
X0121443Y0079195D01*
X0121525Y0079211D01*
X0121609Y0079222D01*
X0121693Y0079230D01*
X0121777Y0079234D01*
X0121861Y0079234D01*
X0121945Y0079230D01*
X0122029Y0079222D01*
X0122113Y0079211D01*
X0122195Y0079195D01*
X0122277Y0079176D01*
X0122359Y0079154D01*
X0122439Y0079127D01*
X0122517Y0079097D01*
X0122594Y0079064D01*
X0122670Y0079027D01*
X0122744Y0078986D01*
X0122816Y0078942D01*
X0122886Y0078895D01*
X0122954Y0078845D01*
X0123019Y0078792D01*
X0123082Y0078736D01*
X0123142Y0078677D01*
X0123199Y0078616D01*
X0123254Y0078552D01*
X0123306Y0078485D01*
X0123354Y0078416D01*
X0123400Y0078345D01*
X0123442Y0078272D01*
X0123481Y0078198D01*
X0123516Y0078121D01*
X0123548Y0078043D01*
X0123576Y0077964D01*
X0123600Y0077883D01*
X0123621Y0077802D01*
X0123638Y0077719D01*
X0123652Y0077636D01*
X0123661Y0077552D01*
X0123667Y0077468D01*
X0123669Y0077384D01*
X0123669Y0076872D01*
X0123667Y0076788D01*
X0123661Y0076704D01*
X0123652Y0076620D01*
X0123638Y0076537D01*
X0123621Y0076454D01*
X0123600Y0076373D01*
X0123576Y0076292D01*
X0123548Y0076213D01*
X0123516Y0076135D01*
X0123481Y0076058D01*
X0123442Y0075984D01*
X0123400Y0075911D01*
X0123354Y0075840D01*
X0123306Y0075771D01*
X0123254Y0075704D01*
X0123199Y0075640D01*
X0123142Y0075579D01*
X0123082Y0075520D01*
X0123019Y0075464D01*
X0122954Y0075411D01*
X0122886Y0075361D01*
X0122816Y0075314D01*
X0122744Y0075270D01*
X0122670Y0075229D01*
X0122594Y0075192D01*
X0122517Y0075159D01*
X0122439Y0075129D01*
X0122359Y0075102D01*
X0122277Y0075080D01*
X0122195Y0075061D01*
X0122113Y0075045D01*
X0122029Y0075034D01*
X0121945Y0075026D01*
X0121861Y0075022D01*
X0121777Y0075022D01*
X0121693Y0075026D01*
X0121609Y0075034D01*
X0121525Y0075045D01*
X0121443Y0075061D01*
X0121361Y0075080D01*
X0121279Y0075102D01*
X0121199Y0075129D01*
X0121121Y0075159D01*
X0121044Y0075192D01*
X0120968Y0075229D01*
X0120894Y0075270D01*
X0120822Y0075314D01*
X0120752Y0075361D01*
X0120684Y0075411D01*
X0120619Y0075464D01*
X0120556Y0075520D01*
X0120496Y0075579D01*
X0120439Y0075640D01*
X0120384Y0075704D01*
X0120332Y0075771D01*
X0120284Y0075840D01*
X0120238Y0075911D01*
X0120196Y0075984D01*
X0120157Y0076058D01*
X0120122Y0076135D01*
X0120090Y0076213D01*
X0120062Y0076292D01*
X0120038Y0076373D01*
X0120017Y0076454D01*
X0120000Y0076537D01*
X0119986Y0076620D01*
X0119977Y0076704D01*
X0119971Y0076788D01*
X0119969Y0076872D01*
X0118826Y0076872D02*
X0118824Y0076788D01*
X0118818Y0076704D01*
X0118809Y0076620D01*
X0118795Y0076537D01*
X0118778Y0076454D01*
X0118757Y0076373D01*
X0118733Y0076292D01*
X0118705Y0076213D01*
X0118673Y0076135D01*
X0118638Y0076058D01*
X0118599Y0075984D01*
X0118557Y0075911D01*
X0118511Y0075840D01*
X0118463Y0075771D01*
X0118411Y0075704D01*
X0118356Y0075640D01*
X0118299Y0075579D01*
X0118239Y0075520D01*
X0118176Y0075464D01*
X0118111Y0075411D01*
X0118043Y0075361D01*
X0117973Y0075314D01*
X0117901Y0075270D01*
X0117827Y0075229D01*
X0117751Y0075192D01*
X0117674Y0075159D01*
X0117596Y0075129D01*
X0117516Y0075102D01*
X0117434Y0075080D01*
X0117352Y0075061D01*
X0117270Y0075045D01*
X0117186Y0075034D01*
X0117102Y0075026D01*
X0117018Y0075022D01*
X0116934Y0075022D01*
X0116850Y0075026D01*
X0116766Y0075034D01*
X0116682Y0075045D01*
X0116600Y0075061D01*
X0116518Y0075080D01*
X0116436Y0075102D01*
X0116356Y0075129D01*
X0116278Y0075159D01*
X0116201Y0075192D01*
X0116125Y0075229D01*
X0116051Y0075270D01*
X0115979Y0075314D01*
X0115909Y0075361D01*
X0115841Y0075411D01*
X0115776Y0075464D01*
X0115713Y0075520D01*
X0115653Y0075579D01*
X0115596Y0075640D01*
X0115541Y0075704D01*
X0115489Y0075771D01*
X0115441Y0075840D01*
X0115395Y0075911D01*
X0115353Y0075984D01*
X0115314Y0076058D01*
X0115279Y0076135D01*
X0115247Y0076213D01*
X0115219Y0076292D01*
X0115195Y0076373D01*
X0115174Y0076454D01*
X0115157Y0076537D01*
X0115143Y0076620D01*
X0115134Y0076704D01*
X0115128Y0076788D01*
X0115126Y0076872D01*
X0124457Y0075061D02*
X0127528Y0075061D01*
X0128472Y0075061D02*
X0131307Y0079156D01*
X0132528Y0079156D02*
X0135402Y0079156D01*
X0135402Y0075061D01*
X0132646Y0075061D01*
X0131307Y0075061D02*
X0128472Y0079156D01*
X0125953Y0079156D02*
X0125953Y0075140D01*
X0132882Y0077069D02*
X0135244Y0077069D01*
X0136465Y0075061D02*
X0139575Y0075061D01*
X0138000Y0075101D02*
X0138000Y0079156D01*
X0136000Y0084428D02*
X0153000Y0084428D01*
X0149000Y0087428D01*
X0149000Y0184428D01*
X0153000Y0187428D01*
X0153000Y0084428D01*
X0136000Y0084428D02*
X0136000Y0187428D01*
X0153000Y0187428D01*
X0131346Y0198605D02*
X0129181Y0198605D01*
X0129181Y0198566D02*
X0129150Y0198564D01*
X0129120Y0198559D01*
X0129090Y0198551D01*
X0129061Y0198539D01*
X0129034Y0198524D01*
X0129009Y0198506D01*
X0128986Y0198485D01*
X0128965Y0198462D01*
X0128947Y0198437D01*
X0128932Y0198410D01*
X0128920Y0198381D01*
X0128912Y0198351D01*
X0128907Y0198321D01*
X0128905Y0198290D01*
X0128906Y0198290D02*
X0128906Y0196164D01*
X0128000Y0195258D02*
X0127941Y0195260D01*
X0127882Y0195266D01*
X0127823Y0195275D01*
X0127766Y0195289D01*
X0127709Y0195306D01*
X0127653Y0195327D01*
X0127599Y0195351D01*
X0127547Y0195379D01*
X0127497Y0195411D01*
X0127448Y0195445D01*
X0127403Y0195483D01*
X0127359Y0195523D01*
X0127319Y0195567D01*
X0127281Y0195612D01*
X0127247Y0195661D01*
X0127215Y0195711D01*
X0127187Y0195763D01*
X0127163Y0195817D01*
X0127142Y0195873D01*
X0127125Y0195930D01*
X0127111Y0195987D01*
X0127102Y0196046D01*
X0127096Y0196105D01*
X0127094Y0196164D01*
X0127094Y0198329D01*
X0127095Y0198329D02*
X0127093Y0198360D01*
X0127088Y0198390D01*
X0127080Y0198420D01*
X0127068Y0198449D01*
X0127053Y0198476D01*
X0127035Y0198501D01*
X0127014Y0198524D01*
X0126991Y0198545D01*
X0126966Y0198563D01*
X0126939Y0198578D01*
X0126910Y0198590D01*
X0126880Y0198598D01*
X0126850Y0198603D01*
X0126819Y0198605D01*
X0126780Y0198605D02*
X0124654Y0198605D01*
X0123748Y0199510D02*
X0123750Y0199569D01*
X0123756Y0199628D01*
X0123765Y0199687D01*
X0123779Y0199744D01*
X0123796Y0199801D01*
X0123817Y0199857D01*
X0123841Y0199911D01*
X0123869Y0199963D01*
X0123901Y0200013D01*
X0123935Y0200062D01*
X0123973Y0200107D01*
X0124013Y0200151D01*
X0124057Y0200191D01*
X0124102Y0200229D01*
X0124151Y0200263D01*
X0124201Y0200295D01*
X0124253Y0200323D01*
X0124307Y0200347D01*
X0124363Y0200368D01*
X0124420Y0200385D01*
X0124477Y0200399D01*
X0124536Y0200408D01*
X0124595Y0200414D01*
X0124654Y0200416D01*
X0126819Y0200416D01*
X0126819Y0200415D02*
X0126850Y0200417D01*
X0126880Y0200422D01*
X0126910Y0200430D01*
X0126939Y0200442D01*
X0126966Y0200457D01*
X0126991Y0200475D01*
X0127014Y0200496D01*
X0127035Y0200519D01*
X0127053Y0200544D01*
X0127068Y0200571D01*
X0127080Y0200600D01*
X0127088Y0200630D01*
X0127093Y0200660D01*
X0127095Y0200691D01*
X0127094Y0200731D02*
X0127094Y0202857D01*
X0128000Y0203763D02*
X0128059Y0203761D01*
X0128118Y0203755D01*
X0128177Y0203746D01*
X0128234Y0203732D01*
X0128291Y0203715D01*
X0128347Y0203694D01*
X0128401Y0203670D01*
X0128453Y0203642D01*
X0128503Y0203610D01*
X0128552Y0203576D01*
X0128597Y0203538D01*
X0128641Y0203498D01*
X0128681Y0203454D01*
X0128719Y0203409D01*
X0128753Y0203360D01*
X0128785Y0203310D01*
X0128813Y0203258D01*
X0128837Y0203204D01*
X0128858Y0203148D01*
X0128875Y0203091D01*
X0128889Y0203034D01*
X0128898Y0202975D01*
X0128904Y0202916D01*
X0128906Y0202857D01*
X0128906Y0200691D01*
X0128905Y0200691D02*
X0128907Y0200660D01*
X0128912Y0200630D01*
X0128920Y0200600D01*
X0128932Y0200571D01*
X0128947Y0200544D01*
X0128965Y0200519D01*
X0128986Y0200496D01*
X0129009Y0200475D01*
X0129034Y0200457D01*
X0129061Y0200442D01*
X0129090Y0200430D01*
X0129120Y0200422D01*
X0129150Y0200417D01*
X0129181Y0200415D01*
X0129220Y0200416D02*
X0131346Y0200416D01*
X0132252Y0199510D02*
X0132250Y0199451D01*
X0132244Y0199392D01*
X0132235Y0199333D01*
X0132221Y0199276D01*
X0132204Y0199219D01*
X0132183Y0199163D01*
X0132159Y0199109D01*
X0132131Y0199057D01*
X0132099Y0199007D01*
X0132065Y0198958D01*
X0132027Y0198913D01*
X0131987Y0198869D01*
X0131943Y0198829D01*
X0131898Y0198791D01*
X0131849Y0198757D01*
X0131799Y0198725D01*
X0131747Y0198697D01*
X0131693Y0198673D01*
X0131637Y0198652D01*
X0131580Y0198635D01*
X0131523Y0198621D01*
X0131464Y0198612D01*
X0131405Y0198606D01*
X0131346Y0198604D01*
X0132252Y0199510D02*
X0132250Y0199569D01*
X0132244Y0199628D01*
X0132235Y0199687D01*
X0132221Y0199744D01*
X0132204Y0199801D01*
X0132183Y0199857D01*
X0132159Y0199911D01*
X0132131Y0199963D01*
X0132099Y0200013D01*
X0132065Y0200062D01*
X0132027Y0200107D01*
X0131987Y0200151D01*
X0131943Y0200191D01*
X0131898Y0200229D01*
X0131849Y0200263D01*
X0131799Y0200295D01*
X0131747Y0200323D01*
X0131693Y0200347D01*
X0131637Y0200368D01*
X0131580Y0200385D01*
X0131523Y0200399D01*
X0131464Y0200408D01*
X0131405Y0200414D01*
X0131346Y0200416D01*
X0121976Y0199510D02*
X0121978Y0199665D01*
X0121984Y0199820D01*
X0121994Y0199975D01*
X0122008Y0200129D01*
X0122026Y0200283D01*
X0122048Y0200437D01*
X0122074Y0200590D01*
X0122103Y0200742D01*
X0122137Y0200894D01*
X0122175Y0201044D01*
X0122216Y0201194D01*
X0122261Y0201342D01*
X0122310Y0201489D01*
X0122363Y0201635D01*
X0122420Y0201779D01*
X0122480Y0201922D01*
X0122544Y0202064D01*
X0122612Y0202203D01*
X0122683Y0202341D01*
X0122757Y0202477D01*
X0122836Y0202611D01*
X0122917Y0202743D01*
X0123002Y0202873D01*
X0123090Y0203000D01*
X0123182Y0203126D01*
X0123276Y0203249D01*
X0123374Y0203369D01*
X0123475Y0203487D01*
X0123579Y0203602D01*
X0123686Y0203714D01*
X0123796Y0203824D01*
X0123908Y0203931D01*
X0124023Y0204035D01*
X0124141Y0204136D01*
X0124261Y0204234D01*
X0124384Y0204328D01*
X0124510Y0204420D01*
X0124637Y0204508D01*
X0124767Y0204593D01*
X0124899Y0204674D01*
X0125033Y0204753D01*
X0125169Y0204827D01*
X0125307Y0204898D01*
X0125446Y0204966D01*
X0125588Y0205030D01*
X0125731Y0205090D01*
X0125875Y0205147D01*
X0126021Y0205200D01*
X0126168Y0205249D01*
X0126316Y0205294D01*
X0126466Y0205335D01*
X0126616Y0205373D01*
X0126768Y0205407D01*
X0126920Y0205436D01*
X0127073Y0205462D01*
X0127227Y0205484D01*
X0127381Y0205502D01*
X0127535Y0205516D01*
X0127690Y0205526D01*
X0127845Y0205532D01*
X0128000Y0205534D01*
X0128155Y0205532D01*
X0128310Y0205526D01*
X0128465Y0205516D01*
X0128619Y0205502D01*
X0128773Y0205484D01*
X0128927Y0205462D01*
X0129080Y0205436D01*
X0129232Y0205407D01*
X0129384Y0205373D01*
X0129534Y0205335D01*
X0129684Y0205294D01*
X0129832Y0205249D01*
X0129979Y0205200D01*
X0130125Y0205147D01*
X0130269Y0205090D01*
X0130412Y0205030D01*
X0130554Y0204966D01*
X0130693Y0204898D01*
X0130831Y0204827D01*
X0130967Y0204753D01*
X0131101Y0204674D01*
X0131233Y0204593D01*
X0131363Y0204508D01*
X0131490Y0204420D01*
X0131616Y0204328D01*
X0131739Y0204234D01*
X0131859Y0204136D01*
X0131977Y0204035D01*
X0132092Y0203931D01*
X0132204Y0203824D01*
X0132314Y0203714D01*
X0132421Y0203602D01*
X0132525Y0203487D01*
X0132626Y0203369D01*
X0132724Y0203249D01*
X0132818Y0203126D01*
X0132910Y0203000D01*
X0132998Y0202873D01*
X0133083Y0202743D01*
X0133164Y0202611D01*
X0133243Y0202477D01*
X0133317Y0202341D01*
X0133388Y0202203D01*
X0133456Y0202064D01*
X0133520Y0201922D01*
X0133580Y0201779D01*
X0133637Y0201635D01*
X0133690Y0201489D01*
X0133739Y0201342D01*
X0133784Y0201194D01*
X0133825Y0201044D01*
X0133863Y0200894D01*
X0133897Y0200742D01*
X0133926Y0200590D01*
X0133952Y0200437D01*
X0133974Y0200283D01*
X0133992Y0200129D01*
X0134006Y0199975D01*
X0134016Y0199820D01*
X0134022Y0199665D01*
X0134024Y0199510D01*
X0134022Y0199355D01*
X0134016Y0199200D01*
X0134006Y0199045D01*
X0133992Y0198891D01*
X0133974Y0198737D01*
X0133952Y0198583D01*
X0133926Y0198430D01*
X0133897Y0198278D01*
X0133863Y0198126D01*
X0133825Y0197976D01*
X0133784Y0197826D01*
X0133739Y0197678D01*
X0133690Y0197531D01*
X0133637Y0197385D01*
X0133580Y0197241D01*
X0133520Y0197098D01*
X0133456Y0196956D01*
X0133388Y0196817D01*
X0133317Y0196679D01*
X0133243Y0196543D01*
X0133164Y0196409D01*
X0133083Y0196277D01*
X0132998Y0196147D01*
X0132910Y0196020D01*
X0132818Y0195894D01*
X0132724Y0195771D01*
X0132626Y0195651D01*
X0132525Y0195533D01*
X0132421Y0195418D01*
X0132314Y0195306D01*
X0132204Y0195196D01*
X0132092Y0195089D01*
X0131977Y0194985D01*
X0131859Y0194884D01*
X0131739Y0194786D01*
X0131616Y0194692D01*
X0131490Y0194600D01*
X0131363Y0194512D01*
X0131233Y0194427D01*
X0131101Y0194346D01*
X0130967Y0194267D01*
X0130831Y0194193D01*
X0130693Y0194122D01*
X0130554Y0194054D01*
X0130412Y0193990D01*
X0130269Y0193930D01*
X0130125Y0193873D01*
X0129979Y0193820D01*
X0129832Y0193771D01*
X0129684Y0193726D01*
X0129534Y0193685D01*
X0129384Y0193647D01*
X0129232Y0193613D01*
X0129080Y0193584D01*
X0128927Y0193558D01*
X0128773Y0193536D01*
X0128619Y0193518D01*
X0128465Y0193504D01*
X0128310Y0193494D01*
X0128155Y0193488D01*
X0128000Y0193486D01*
X0127845Y0193488D01*
X0127690Y0193494D01*
X0127535Y0193504D01*
X0127381Y0193518D01*
X0127227Y0193536D01*
X0127073Y0193558D01*
X0126920Y0193584D01*
X0126768Y0193613D01*
X0126616Y0193647D01*
X0126466Y0193685D01*
X0126316Y0193726D01*
X0126168Y0193771D01*
X0126021Y0193820D01*
X0125875Y0193873D01*
X0125731Y0193930D01*
X0125588Y0193990D01*
X0125446Y0194054D01*
X0125307Y0194122D01*
X0125169Y0194193D01*
X0125033Y0194267D01*
X0124899Y0194346D01*
X0124767Y0194427D01*
X0124637Y0194512D01*
X0124510Y0194600D01*
X0124384Y0194692D01*
X0124261Y0194786D01*
X0124141Y0194884D01*
X0124023Y0194985D01*
X0123908Y0195089D01*
X0123796Y0195196D01*
X0123686Y0195306D01*
X0123579Y0195418D01*
X0123475Y0195533D01*
X0123374Y0195651D01*
X0123276Y0195771D01*
X0123182Y0195894D01*
X0123090Y0196020D01*
X0123002Y0196147D01*
X0122917Y0196277D01*
X0122836Y0196409D01*
X0122757Y0196543D01*
X0122683Y0196679D01*
X0122612Y0196817D01*
X0122544Y0196956D01*
X0122480Y0197098D01*
X0122420Y0197241D01*
X0122363Y0197385D01*
X0122310Y0197531D01*
X0122261Y0197678D01*
X0122216Y0197826D01*
X0122175Y0197976D01*
X0122137Y0198126D01*
X0122103Y0198278D01*
X0122074Y0198430D01*
X0122048Y0198583D01*
X0122026Y0198737D01*
X0122008Y0198891D01*
X0121994Y0199045D01*
X0121984Y0199200D01*
X0121978Y0199355D01*
X0121976Y0199510D01*
X0123748Y0199510D02*
X0123750Y0199451D01*
X0123756Y0199392D01*
X0123765Y0199333D01*
X0123779Y0199276D01*
X0123796Y0199219D01*
X0123817Y0199163D01*
X0123841Y0199109D01*
X0123869Y0199057D01*
X0123901Y0199007D01*
X0123935Y0198958D01*
X0123973Y0198913D01*
X0124013Y0198869D01*
X0124057Y0198829D01*
X0124102Y0198791D01*
X0124151Y0198757D01*
X0124201Y0198725D01*
X0124253Y0198697D01*
X0124307Y0198673D01*
X0124363Y0198652D01*
X0124420Y0198635D01*
X0124477Y0198621D01*
X0124536Y0198612D01*
X0124595Y0198606D01*
X0124654Y0198604D01*
X0128000Y0195258D02*
X0128059Y0195260D01*
X0128118Y0195266D01*
X0128177Y0195275D01*
X0128234Y0195289D01*
X0128291Y0195306D01*
X0128347Y0195327D01*
X0128401Y0195351D01*
X0128453Y0195379D01*
X0128503Y0195411D01*
X0128552Y0195445D01*
X0128597Y0195483D01*
X0128641Y0195523D01*
X0128681Y0195567D01*
X0128719Y0195612D01*
X0128753Y0195661D01*
X0128785Y0195711D01*
X0128813Y0195763D01*
X0128837Y0195817D01*
X0128858Y0195873D01*
X0128875Y0195930D01*
X0128889Y0195987D01*
X0128898Y0196046D01*
X0128904Y0196105D01*
X0128906Y0196164D01*
X0127094Y0202857D02*
X0127096Y0202916D01*
X0127102Y0202975D01*
X0127111Y0203034D01*
X0127125Y0203091D01*
X0127142Y0203148D01*
X0127163Y0203204D01*
X0127187Y0203258D01*
X0127215Y0203310D01*
X0127247Y0203360D01*
X0127281Y0203409D01*
X0127319Y0203454D01*
X0127359Y0203498D01*
X0127403Y0203538D01*
X0127448Y0203576D01*
X0127497Y0203610D01*
X0127547Y0203642D01*
X0127599Y0203670D01*
X0127653Y0203694D01*
X0127709Y0203715D01*
X0127766Y0203732D01*
X0127823Y0203746D01*
X0127882Y0203755D01*
X0127941Y0203761D01*
X0128000Y0203763D01*
X0130800Y0171093D02*
X0130800Y0168024D01*
X0130800Y0169558D02*
X0126196Y0169558D01*
X0127731Y0168024D01*
X0126196Y0166489D02*
X0130800Y0163420D01*
X0130800Y0161885D02*
X0130800Y0158816D01*
X0130033Y0158816D01*
X0126963Y0161885D01*
X0126196Y0161885D01*
X0126196Y0158816D01*
X0126196Y0163420D02*
X0130800Y0166489D01*
X0133000Y0144428D02*
X0123000Y0144428D01*
X0123000Y0097928D01*
X0133000Y0097928D01*
X0133000Y0144428D01*
X0128906Y0061833D02*
X0128906Y0059668D01*
X0128905Y0059668D02*
X0128907Y0059637D01*
X0128912Y0059607D01*
X0128920Y0059577D01*
X0128932Y0059548D01*
X0128947Y0059521D01*
X0128965Y0059496D01*
X0128986Y0059473D01*
X0129009Y0059452D01*
X0129034Y0059434D01*
X0129061Y0059419D01*
X0129090Y0059407D01*
X0129120Y0059399D01*
X0129150Y0059394D01*
X0129181Y0059392D01*
X0129220Y0059392D02*
X0131346Y0059392D01*
X0132252Y0058487D02*
X0132250Y0058428D01*
X0132244Y0058369D01*
X0132235Y0058310D01*
X0132221Y0058253D01*
X0132204Y0058196D01*
X0132183Y0058140D01*
X0132159Y0058086D01*
X0132131Y0058034D01*
X0132099Y0057984D01*
X0132065Y0057935D01*
X0132027Y0057890D01*
X0131987Y0057846D01*
X0131943Y0057806D01*
X0131898Y0057768D01*
X0131849Y0057734D01*
X0131799Y0057702D01*
X0131747Y0057674D01*
X0131693Y0057650D01*
X0131637Y0057629D01*
X0131580Y0057612D01*
X0131523Y0057598D01*
X0131464Y0057589D01*
X0131405Y0057583D01*
X0131346Y0057581D01*
X0129181Y0057581D01*
X0129181Y0057542D02*
X0129150Y0057540D01*
X0129120Y0057535D01*
X0129090Y0057527D01*
X0129061Y0057515D01*
X0129034Y0057500D01*
X0129009Y0057482D01*
X0128986Y0057461D01*
X0128965Y0057438D01*
X0128947Y0057413D01*
X0128932Y0057386D01*
X0128920Y0057357D01*
X0128912Y0057327D01*
X0128907Y0057297D01*
X0128905Y0057266D01*
X0128906Y0057266D02*
X0128906Y0055140D01*
X0128000Y0054234D02*
X0127941Y0054236D01*
X0127882Y0054242D01*
X0127823Y0054251D01*
X0127766Y0054265D01*
X0127709Y0054282D01*
X0127653Y0054303D01*
X0127599Y0054327D01*
X0127547Y0054355D01*
X0127497Y0054387D01*
X0127448Y0054421D01*
X0127403Y0054459D01*
X0127359Y0054499D01*
X0127319Y0054543D01*
X0127281Y0054588D01*
X0127247Y0054637D01*
X0127215Y0054687D01*
X0127187Y0054739D01*
X0127163Y0054793D01*
X0127142Y0054849D01*
X0127125Y0054906D01*
X0127111Y0054963D01*
X0127102Y0055022D01*
X0127096Y0055081D01*
X0127094Y0055140D01*
X0127094Y0057306D01*
X0127095Y0057306D02*
X0127093Y0057337D01*
X0127088Y0057367D01*
X0127080Y0057397D01*
X0127068Y0057426D01*
X0127053Y0057453D01*
X0127035Y0057478D01*
X0127014Y0057501D01*
X0126991Y0057522D01*
X0126966Y0057540D01*
X0126939Y0057555D01*
X0126910Y0057567D01*
X0126880Y0057575D01*
X0126850Y0057580D01*
X0126819Y0057582D01*
X0126780Y0057581D02*
X0124654Y0057581D01*
X0123748Y0058487D02*
X0123750Y0058546D01*
X0123756Y0058605D01*
X0123765Y0058664D01*
X0123779Y0058721D01*
X0123796Y0058778D01*
X0123817Y0058834D01*
X0123841Y0058888D01*
X0123869Y0058940D01*
X0123901Y0058990D01*
X0123935Y0059039D01*
X0123973Y0059084D01*
X0124013Y0059128D01*
X0124057Y0059168D01*
X0124102Y0059206D01*
X0124151Y0059240D01*
X0124201Y0059272D01*
X0124253Y0059300D01*
X0124307Y0059324D01*
X0124363Y0059345D01*
X0124420Y0059362D01*
X0124477Y0059376D01*
X0124536Y0059385D01*
X0124595Y0059391D01*
X0124654Y0059393D01*
X0124654Y0059392D02*
X0126819Y0059392D01*
X0126850Y0059394D01*
X0126880Y0059399D01*
X0126910Y0059407D01*
X0126939Y0059419D01*
X0126966Y0059434D01*
X0126991Y0059452D01*
X0127014Y0059473D01*
X0127035Y0059496D01*
X0127053Y0059521D01*
X0127068Y0059548D01*
X0127080Y0059577D01*
X0127088Y0059607D01*
X0127093Y0059637D01*
X0127095Y0059668D01*
X0127094Y0059707D02*
X0127094Y0061833D01*
X0128000Y0062739D02*
X0128059Y0062737D01*
X0128118Y0062731D01*
X0128177Y0062722D01*
X0128234Y0062708D01*
X0128291Y0062691D01*
X0128347Y0062670D01*
X0128401Y0062646D01*
X0128453Y0062618D01*
X0128503Y0062586D01*
X0128552Y0062552D01*
X0128597Y0062514D01*
X0128641Y0062474D01*
X0128681Y0062430D01*
X0128719Y0062385D01*
X0128753Y0062336D01*
X0128785Y0062286D01*
X0128813Y0062234D01*
X0128837Y0062180D01*
X0128858Y0062124D01*
X0128875Y0062067D01*
X0128889Y0062010D01*
X0128898Y0061951D01*
X0128904Y0061892D01*
X0128906Y0061833D01*
X0128000Y0062739D02*
X0127941Y0062737D01*
X0127882Y0062731D01*
X0127823Y0062722D01*
X0127766Y0062708D01*
X0127709Y0062691D01*
X0127653Y0062670D01*
X0127599Y0062646D01*
X0127547Y0062618D01*
X0127497Y0062586D01*
X0127448Y0062552D01*
X0127403Y0062514D01*
X0127359Y0062474D01*
X0127319Y0062430D01*
X0127281Y0062385D01*
X0127247Y0062336D01*
X0127215Y0062286D01*
X0127187Y0062234D01*
X0127163Y0062180D01*
X0127142Y0062124D01*
X0127125Y0062067D01*
X0127111Y0062010D01*
X0127102Y0061951D01*
X0127096Y0061892D01*
X0127094Y0061833D01*
X0121976Y0058487D02*
X0121978Y0058642D01*
X0121984Y0058797D01*
X0121994Y0058952D01*
X0122008Y0059106D01*
X0122026Y0059260D01*
X0122048Y0059414D01*
X0122074Y0059567D01*
X0122103Y0059719D01*
X0122137Y0059871D01*
X0122175Y0060021D01*
X0122216Y0060171D01*
X0122261Y0060319D01*
X0122310Y0060466D01*
X0122363Y0060612D01*
X0122420Y0060756D01*
X0122480Y0060899D01*
X0122544Y0061041D01*
X0122612Y0061180D01*
X0122683Y0061318D01*
X0122757Y0061454D01*
X0122836Y0061588D01*
X0122917Y0061720D01*
X0123002Y0061850D01*
X0123090Y0061977D01*
X0123182Y0062103D01*
X0123276Y0062226D01*
X0123374Y0062346D01*
X0123475Y0062464D01*
X0123579Y0062579D01*
X0123686Y0062691D01*
X0123796Y0062801D01*
X0123908Y0062908D01*
X0124023Y0063012D01*
X0124141Y0063113D01*
X0124261Y0063211D01*
X0124384Y0063305D01*
X0124510Y0063397D01*
X0124637Y0063485D01*
X0124767Y0063570D01*
X0124899Y0063651D01*
X0125033Y0063730D01*
X0125169Y0063804D01*
X0125307Y0063875D01*
X0125446Y0063943D01*
X0125588Y0064007D01*
X0125731Y0064067D01*
X0125875Y0064124D01*
X0126021Y0064177D01*
X0126168Y0064226D01*
X0126316Y0064271D01*
X0126466Y0064312D01*
X0126616Y0064350D01*
X0126768Y0064384D01*
X0126920Y0064413D01*
X0127073Y0064439D01*
X0127227Y0064461D01*
X0127381Y0064479D01*
X0127535Y0064493D01*
X0127690Y0064503D01*
X0127845Y0064509D01*
X0128000Y0064511D01*
X0128155Y0064509D01*
X0128310Y0064503D01*
X0128465Y0064493D01*
X0128619Y0064479D01*
X0128773Y0064461D01*
X0128927Y0064439D01*
X0129080Y0064413D01*
X0129232Y0064384D01*
X0129384Y0064350D01*
X0129534Y0064312D01*
X0129684Y0064271D01*
X0129832Y0064226D01*
X0129979Y0064177D01*
X0130125Y0064124D01*
X0130269Y0064067D01*
X0130412Y0064007D01*
X0130554Y0063943D01*
X0130693Y0063875D01*
X0130831Y0063804D01*
X0130967Y0063730D01*
X0131101Y0063651D01*
X0131233Y0063570D01*
X0131363Y0063485D01*
X0131490Y0063397D01*
X0131616Y0063305D01*
X0131739Y0063211D01*
X0131859Y0063113D01*
X0131977Y0063012D01*
X0132092Y0062908D01*
X0132204Y0062801D01*
X0132314Y0062691D01*
X0132421Y0062579D01*
X0132525Y0062464D01*
X0132626Y0062346D01*
X0132724Y0062226D01*
X0132818Y0062103D01*
X0132910Y0061977D01*
X0132998Y0061850D01*
X0133083Y0061720D01*
X0133164Y0061588D01*
X0133243Y0061454D01*
X0133317Y0061318D01*
X0133388Y0061180D01*
X0133456Y0061041D01*
X0133520Y0060899D01*
X0133580Y0060756D01*
X0133637Y0060612D01*
X0133690Y0060466D01*
X0133739Y0060319D01*
X0133784Y0060171D01*
X0133825Y0060021D01*
X0133863Y0059871D01*
X0133897Y0059719D01*
X0133926Y0059567D01*
X0133952Y0059414D01*
X0133974Y0059260D01*
X0133992Y0059106D01*
X0134006Y0058952D01*
X0134016Y0058797D01*
X0134022Y0058642D01*
X0134024Y0058487D01*
X0134022Y0058332D01*
X0134016Y0058177D01*
X0134006Y0058022D01*
X0133992Y0057868D01*
X0133974Y0057714D01*
X0133952Y0057560D01*
X0133926Y0057407D01*
X0133897Y0057255D01*
X0133863Y0057103D01*
X0133825Y0056953D01*
X0133784Y0056803D01*
X0133739Y0056655D01*
X0133690Y0056508D01*
X0133637Y0056362D01*
X0133580Y0056218D01*
X0133520Y0056075D01*
X0133456Y0055933D01*
X0133388Y0055794D01*
X0133317Y0055656D01*
X0133243Y0055520D01*
X0133164Y0055386D01*
X0133083Y0055254D01*
X0132998Y0055124D01*
X0132910Y0054997D01*
X0132818Y0054871D01*
X0132724Y0054748D01*
X0132626Y0054628D01*
X0132525Y0054510D01*
X0132421Y0054395D01*
X0132314Y0054283D01*
X0132204Y0054173D01*
X0132092Y0054066D01*
X0131977Y0053962D01*
X0131859Y0053861D01*
X0131739Y0053763D01*
X0131616Y0053669D01*
X0131490Y0053577D01*
X0131363Y0053489D01*
X0131233Y0053404D01*
X0131101Y0053323D01*
X0130967Y0053244D01*
X0130831Y0053170D01*
X0130693Y0053099D01*
X0130554Y0053031D01*
X0130412Y0052967D01*
X0130269Y0052907D01*
X0130125Y0052850D01*
X0129979Y0052797D01*
X0129832Y0052748D01*
X0129684Y0052703D01*
X0129534Y0052662D01*
X0129384Y0052624D01*
X0129232Y0052590D01*
X0129080Y0052561D01*
X0128927Y0052535D01*
X0128773Y0052513D01*
X0128619Y0052495D01*
X0128465Y0052481D01*
X0128310Y0052471D01*
X0128155Y0052465D01*
X0128000Y0052463D01*
X0127845Y0052465D01*
X0127690Y0052471D01*
X0127535Y0052481D01*
X0127381Y0052495D01*
X0127227Y0052513D01*
X0127073Y0052535D01*
X0126920Y0052561D01*
X0126768Y0052590D01*
X0126616Y0052624D01*
X0126466Y0052662D01*
X0126316Y0052703D01*
X0126168Y0052748D01*
X0126021Y0052797D01*
X0125875Y0052850D01*
X0125731Y0052907D01*
X0125588Y0052967D01*
X0125446Y0053031D01*
X0125307Y0053099D01*
X0125169Y0053170D01*
X0125033Y0053244D01*
X0124899Y0053323D01*
X0124767Y0053404D01*
X0124637Y0053489D01*
X0124510Y0053577D01*
X0124384Y0053669D01*
X0124261Y0053763D01*
X0124141Y0053861D01*
X0124023Y0053962D01*
X0123908Y0054066D01*
X0123796Y0054173D01*
X0123686Y0054283D01*
X0123579Y0054395D01*
X0123475Y0054510D01*
X0123374Y0054628D01*
X0123276Y0054748D01*
X0123182Y0054871D01*
X0123090Y0054997D01*
X0123002Y0055124D01*
X0122917Y0055254D01*
X0122836Y0055386D01*
X0122757Y0055520D01*
X0122683Y0055656D01*
X0122612Y0055794D01*
X0122544Y0055933D01*
X0122480Y0056075D01*
X0122420Y0056218D01*
X0122363Y0056362D01*
X0122310Y0056508D01*
X0122261Y0056655D01*
X0122216Y0056803D01*
X0122175Y0056953D01*
X0122137Y0057103D01*
X0122103Y0057255D01*
X0122074Y0057407D01*
X0122048Y0057560D01*
X0122026Y0057714D01*
X0122008Y0057868D01*
X0121994Y0058022D01*
X0121984Y0058177D01*
X0121978Y0058332D01*
X0121976Y0058487D01*
X0123748Y0058487D02*
X0123750Y0058428D01*
X0123756Y0058369D01*
X0123765Y0058310D01*
X0123779Y0058253D01*
X0123796Y0058196D01*
X0123817Y0058140D01*
X0123841Y0058086D01*
X0123869Y0058034D01*
X0123901Y0057984D01*
X0123935Y0057935D01*
X0123973Y0057890D01*
X0124013Y0057846D01*
X0124057Y0057806D01*
X0124102Y0057768D01*
X0124151Y0057734D01*
X0124201Y0057702D01*
X0124253Y0057674D01*
X0124307Y0057650D01*
X0124363Y0057629D01*
X0124420Y0057612D01*
X0124477Y0057598D01*
X0124536Y0057589D01*
X0124595Y0057583D01*
X0124654Y0057581D01*
X0128000Y0054234D02*
X0128059Y0054236D01*
X0128118Y0054242D01*
X0128177Y0054251D01*
X0128234Y0054265D01*
X0128291Y0054282D01*
X0128347Y0054303D01*
X0128401Y0054327D01*
X0128453Y0054355D01*
X0128503Y0054387D01*
X0128552Y0054421D01*
X0128597Y0054459D01*
X0128641Y0054499D01*
X0128681Y0054543D01*
X0128719Y0054588D01*
X0128753Y0054637D01*
X0128785Y0054687D01*
X0128813Y0054739D01*
X0128837Y0054793D01*
X0128858Y0054849D01*
X0128875Y0054906D01*
X0128889Y0054963D01*
X0128898Y0055022D01*
X0128904Y0055081D01*
X0128906Y0055140D01*
X0132252Y0058487D02*
X0132250Y0058546D01*
X0132244Y0058605D01*
X0132235Y0058664D01*
X0132221Y0058721D01*
X0132204Y0058778D01*
X0132183Y0058834D01*
X0132159Y0058888D01*
X0132131Y0058940D01*
X0132099Y0058990D01*
X0132065Y0059039D01*
X0132027Y0059084D01*
X0131987Y0059128D01*
X0131943Y0059168D01*
X0131898Y0059206D01*
X0131849Y0059240D01*
X0131799Y0059272D01*
X0131747Y0059300D01*
X0131693Y0059324D01*
X0131637Y0059345D01*
X0131580Y0059362D01*
X0131523Y0059376D01*
X0131464Y0059385D01*
X0131405Y0059391D01*
X0131346Y0059393D01*
D16*
X0132248Y0069778D02*
X0132882Y0069778D01*
X0133199Y0070094D01*
X0133199Y0071679D01*
X0134141Y0071679D02*
X0134141Y0069778D01*
X0135409Y0069778D01*
X0136351Y0069778D02*
X0136351Y0071679D01*
X0136351Y0069778D02*
X0137619Y0069778D01*
X0132248Y0069778D02*
X0131931Y0070094D01*
X0131931Y0071679D01*
X0130989Y0071679D02*
X0129721Y0071679D01*
X0129721Y0069778D01*
X0128779Y0069778D02*
X0127511Y0069778D01*
X0128145Y0069778D02*
X0128145Y0071679D01*
X0127511Y0071045D01*
X0126569Y0070411D02*
X0126569Y0071679D01*
X0126569Y0070411D02*
X0125935Y0069778D01*
X0125301Y0070411D01*
X0125301Y0071679D01*
X0124359Y0069461D02*
X0123091Y0069461D01*
X0122149Y0069778D02*
X0121515Y0070411D01*
X0121832Y0070411D02*
X0120882Y0070411D01*
X0120882Y0069778D02*
X0120882Y0071679D01*
X0121832Y0071679D01*
X0122149Y0071362D01*
X0122149Y0070728D01*
X0121832Y0070411D01*
X0119939Y0069778D02*
X0118672Y0069778D01*
X0118672Y0071679D01*
X0119939Y0071679D01*
X0119306Y0070728D02*
X0118672Y0070728D01*
X0117730Y0071679D02*
X0116462Y0071679D01*
X0117096Y0071679D02*
X0117096Y0069778D01*
X0115520Y0070094D02*
X0115203Y0069778D01*
X0114569Y0069778D01*
X0114252Y0070094D01*
X0114569Y0070728D02*
X0115203Y0070728D01*
X0115520Y0070411D01*
X0115520Y0070094D01*
X0114569Y0070728D02*
X0114252Y0071045D01*
X0114252Y0071362D01*
X0114569Y0071679D01*
X0115203Y0071679D01*
X0115520Y0071362D01*
X0113310Y0071679D02*
X0112042Y0071679D01*
X0112042Y0069778D01*
X0113310Y0069778D01*
X0112676Y0070728D02*
X0112042Y0070728D01*
X0111100Y0071679D02*
X0109832Y0071679D01*
X0110466Y0071679D02*
X0110466Y0069778D01*
X0108890Y0069461D02*
X0107622Y0069461D01*
X0106680Y0070094D02*
X0106363Y0069778D01*
X0105729Y0069778D01*
X0105412Y0070094D01*
X0105412Y0071362D01*
X0105729Y0071679D01*
X0106363Y0071679D01*
X0106680Y0071362D01*
X0104573Y0071679D02*
X0103939Y0071679D01*
X0104256Y0071679D02*
X0104256Y0069778D01*
X0103939Y0069778D02*
X0104573Y0069778D01*
X0129721Y0070728D02*
X0130355Y0070728D01*
X0160346Y0053226D02*
X0160346Y0051724D01*
X0161097Y0050974D01*
X0161097Y0049372D02*
X0162598Y0049372D01*
X0163349Y0048622D01*
X0163349Y0046370D01*
X0163349Y0047871D02*
X0164850Y0049372D01*
X0164099Y0050974D02*
X0164850Y0051724D01*
X0164850Y0053226D01*
X0164099Y0053976D01*
X0163349Y0053976D01*
X0162598Y0053226D01*
X0162598Y0052475D01*
X0162598Y0053226D02*
X0161847Y0053976D01*
X0161097Y0053976D01*
X0160346Y0053226D01*
X0161097Y0049372D02*
X0160346Y0048622D01*
X0160346Y0046370D01*
X0164850Y0046370D01*
X0168346Y0046370D02*
X0168346Y0048622D01*
X0169097Y0049372D01*
X0170598Y0049372D01*
X0171349Y0048622D01*
X0171349Y0046370D01*
X0171349Y0047871D02*
X0172850Y0049372D01*
X0172850Y0050974D02*
X0169847Y0053976D01*
X0169097Y0053976D01*
X0168346Y0053226D01*
X0168346Y0051724D01*
X0169097Y0050974D01*
X0172850Y0050974D02*
X0172850Y0053976D01*
X0172850Y0046370D02*
X0168346Y0046370D01*
X0174800Y0189228D02*
X0174800Y0192128D01*
X0176300Y0190728D02*
X0173200Y0190728D01*
X0165135Y0201606D02*
X0160631Y0201606D01*
X0160631Y0203858D01*
X0161382Y0204609D01*
X0162883Y0204609D01*
X0163634Y0203858D01*
X0163634Y0201606D01*
X0163634Y0203107D02*
X0165135Y0204609D01*
X0165135Y0206210D02*
X0165135Y0209212D01*
X0165135Y0207711D02*
X0160631Y0207711D01*
X0162133Y0206210D01*
D17*
X0157528Y0205022D02*
X0157528Y0053762D01*
X0154772Y0056557D02*
X0154772Y0033290D01*
X0155835Y0033093D02*
X0147409Y0033093D01*
X0148669Y0033290D02*
X0148669Y0056557D01*
X0143465Y0056754D02*
X0143467Y0056954D01*
X0143475Y0057154D01*
X0143487Y0057354D01*
X0143504Y0057554D01*
X0143526Y0057753D01*
X0143553Y0057951D01*
X0143585Y0058149D01*
X0143622Y0058345D01*
X0143663Y0058541D01*
X0143709Y0058736D01*
X0143760Y0058930D01*
X0143816Y0059122D01*
X0143877Y0059313D01*
X0143942Y0059502D01*
X0144012Y0059690D01*
X0144086Y0059876D01*
X0144165Y0060060D01*
X0144248Y0060242D01*
X0144336Y0060421D01*
X0144428Y0060599D01*
X0144525Y0060775D01*
X0144626Y0060948D01*
X0144731Y0061118D01*
X0144840Y0061286D01*
X0144953Y0061451D01*
X0145070Y0061613D01*
X0145191Y0061772D01*
X0145317Y0061929D01*
X0145445Y0062082D01*
X0145578Y0062232D01*
X0145714Y0062379D01*
X0145854Y0062522D01*
X0145997Y0062662D01*
X0146144Y0062798D01*
X0146294Y0062931D01*
X0146447Y0063059D01*
X0146604Y0063185D01*
X0146763Y0063306D01*
X0146925Y0063423D01*
X0147090Y0063536D01*
X0147258Y0063645D01*
X0147428Y0063750D01*
X0147601Y0063851D01*
X0147777Y0063948D01*
X0147955Y0064040D01*
X0148134Y0064128D01*
X0148316Y0064211D01*
X0148500Y0064290D01*
X0148686Y0064364D01*
X0148874Y0064434D01*
X0149063Y0064499D01*
X0149254Y0064560D01*
X0149446Y0064616D01*
X0149640Y0064667D01*
X0149835Y0064713D01*
X0150031Y0064754D01*
X0150227Y0064791D01*
X0150425Y0064823D01*
X0150623Y0064850D01*
X0150822Y0064872D01*
X0151022Y0064889D01*
X0151222Y0064901D01*
X0151422Y0064909D01*
X0151622Y0064911D01*
X0151822Y0064909D01*
X0152022Y0064901D01*
X0152222Y0064889D01*
X0152422Y0064872D01*
X0152621Y0064850D01*
X0152819Y0064823D01*
X0153017Y0064791D01*
X0153213Y0064754D01*
X0153409Y0064713D01*
X0153604Y0064667D01*
X0153798Y0064616D01*
X0153990Y0064560D01*
X0154181Y0064499D01*
X0154370Y0064434D01*
X0154558Y0064364D01*
X0154744Y0064290D01*
X0154928Y0064211D01*
X0155110Y0064128D01*
X0155289Y0064040D01*
X0155467Y0063948D01*
X0155643Y0063851D01*
X0155816Y0063750D01*
X0155986Y0063645D01*
X0156154Y0063536D01*
X0156319Y0063423D01*
X0156481Y0063306D01*
X0156640Y0063185D01*
X0156797Y0063059D01*
X0156950Y0062931D01*
X0157100Y0062798D01*
X0157247Y0062662D01*
X0157390Y0062522D01*
X0157530Y0062379D01*
X0157666Y0062232D01*
X0157799Y0062082D01*
X0157927Y0061929D01*
X0158053Y0061772D01*
X0158174Y0061613D01*
X0158291Y0061451D01*
X0158404Y0061286D01*
X0158513Y0061118D01*
X0158618Y0060948D01*
X0158719Y0060775D01*
X0158816Y0060599D01*
X0158908Y0060421D01*
X0158996Y0060242D01*
X0159079Y0060060D01*
X0159158Y0059876D01*
X0159232Y0059690D01*
X0159302Y0059502D01*
X0159367Y0059313D01*
X0159428Y0059122D01*
X0159484Y0058930D01*
X0159535Y0058736D01*
X0159581Y0058541D01*
X0159622Y0058345D01*
X0159659Y0058149D01*
X0159691Y0057951D01*
X0159718Y0057753D01*
X0159740Y0057554D01*
X0159757Y0057354D01*
X0159769Y0057154D01*
X0159777Y0056954D01*
X0159779Y0056754D01*
X0159777Y0056554D01*
X0159769Y0056354D01*
X0159757Y0056154D01*
X0159740Y0055954D01*
X0159718Y0055755D01*
X0159691Y0055557D01*
X0159659Y0055359D01*
X0159622Y0055163D01*
X0159581Y0054967D01*
X0159535Y0054772D01*
X0159484Y0054578D01*
X0159428Y0054386D01*
X0159367Y0054195D01*
X0159302Y0054006D01*
X0159232Y0053818D01*
X0159158Y0053632D01*
X0159079Y0053448D01*
X0158996Y0053266D01*
X0158908Y0053087D01*
X0158816Y0052909D01*
X0158719Y0052733D01*
X0158618Y0052560D01*
X0158513Y0052390D01*
X0158404Y0052222D01*
X0158291Y0052057D01*
X0158174Y0051895D01*
X0158053Y0051736D01*
X0157927Y0051579D01*
X0157799Y0051426D01*
X0157666Y0051276D01*
X0157530Y0051129D01*
X0157390Y0050986D01*
X0157247Y0050846D01*
X0157100Y0050710D01*
X0156950Y0050577D01*
X0156797Y0050449D01*
X0156640Y0050323D01*
X0156481Y0050202D01*
X0156319Y0050085D01*
X0156154Y0049972D01*
X0155986Y0049863D01*
X0155816Y0049758D01*
X0155643Y0049657D01*
X0155467Y0049560D01*
X0155289Y0049468D01*
X0155110Y0049380D01*
X0154928Y0049297D01*
X0154744Y0049218D01*
X0154558Y0049144D01*
X0154370Y0049074D01*
X0154181Y0049009D01*
X0153990Y0048948D01*
X0153798Y0048892D01*
X0153604Y0048841D01*
X0153409Y0048795D01*
X0153213Y0048754D01*
X0153017Y0048717D01*
X0152819Y0048685D01*
X0152621Y0048658D01*
X0152422Y0048636D01*
X0152222Y0048619D01*
X0152022Y0048607D01*
X0151822Y0048599D01*
X0151622Y0048597D01*
X0151422Y0048599D01*
X0151222Y0048607D01*
X0151022Y0048619D01*
X0150822Y0048636D01*
X0150623Y0048658D01*
X0150425Y0048685D01*
X0150227Y0048717D01*
X0150031Y0048754D01*
X0149835Y0048795D01*
X0149640Y0048841D01*
X0149446Y0048892D01*
X0149254Y0048948D01*
X0149063Y0049009D01*
X0148874Y0049074D01*
X0148686Y0049144D01*
X0148500Y0049218D01*
X0148316Y0049297D01*
X0148134Y0049380D01*
X0147955Y0049468D01*
X0147777Y0049560D01*
X0147601Y0049657D01*
X0147428Y0049758D01*
X0147258Y0049863D01*
X0147090Y0049972D01*
X0146925Y0050085D01*
X0146763Y0050202D01*
X0146604Y0050323D01*
X0146447Y0050449D01*
X0146294Y0050577D01*
X0146144Y0050710D01*
X0145997Y0050846D01*
X0145854Y0050986D01*
X0145714Y0051129D01*
X0145578Y0051276D01*
X0145445Y0051426D01*
X0145317Y0051579D01*
X0145191Y0051736D01*
X0145070Y0051895D01*
X0144953Y0052057D01*
X0144840Y0052222D01*
X0144731Y0052390D01*
X0144626Y0052560D01*
X0144525Y0052733D01*
X0144428Y0052909D01*
X0144336Y0053087D01*
X0144248Y0053266D01*
X0144165Y0053448D01*
X0144086Y0053632D01*
X0144012Y0053818D01*
X0143942Y0054006D01*
X0143877Y0054195D01*
X0143816Y0054386D01*
X0143760Y0054578D01*
X0143709Y0054772D01*
X0143663Y0054967D01*
X0143622Y0055163D01*
X0143585Y0055359D01*
X0143553Y0055557D01*
X0143526Y0055755D01*
X0143504Y0055954D01*
X0143487Y0056154D01*
X0143475Y0056354D01*
X0143467Y0056554D01*
X0143465Y0056754D01*
X0143354Y0063054D02*
X0143354Y0050258D01*
X0153591Y0049825D02*
X0102409Y0049825D01*
X0102285Y0049827D01*
X0102162Y0049833D01*
X0102038Y0049842D01*
X0101916Y0049856D01*
X0101793Y0049873D01*
X0101671Y0049895D01*
X0101550Y0049920D01*
X0101430Y0049949D01*
X0101311Y0049981D01*
X0101192Y0050018D01*
X0101075Y0050058D01*
X0100960Y0050101D01*
X0100845Y0050149D01*
X0100733Y0050200D01*
X0100622Y0050254D01*
X0100512Y0050312D01*
X0100405Y0050373D01*
X0100299Y0050438D01*
X0100196Y0050506D01*
X0100095Y0050577D01*
X0099996Y0050651D01*
X0099899Y0050728D01*
X0099805Y0050809D01*
X0099714Y0050892D01*
X0099625Y0050978D01*
X0099539Y0051067D01*
X0099456Y0051158D01*
X0099375Y0051252D01*
X0099298Y0051349D01*
X0099224Y0051448D01*
X0099153Y0051549D01*
X0099085Y0051652D01*
X0099020Y0051758D01*
X0098959Y0051865D01*
X0098901Y0051975D01*
X0098847Y0052086D01*
X0098796Y0052198D01*
X0098748Y0052313D01*
X0098705Y0052428D01*
X0098665Y0052545D01*
X0098628Y0052664D01*
X0098596Y0052783D01*
X0098567Y0052903D01*
X0098542Y0053024D01*
X0098520Y0053146D01*
X0098503Y0053269D01*
X0098489Y0053391D01*
X0098480Y0053515D01*
X0098474Y0053638D01*
X0098472Y0053762D01*
X0098472Y0205022D01*
X0098474Y0205146D01*
X0098480Y0205269D01*
X0098489Y0205393D01*
X0098503Y0205515D01*
X0098520Y0205638D01*
X0098542Y0205760D01*
X0098567Y0205881D01*
X0098596Y0206001D01*
X0098628Y0206120D01*
X0098665Y0206239D01*
X0098705Y0206356D01*
X0098748Y0206471D01*
X0098796Y0206586D01*
X0098847Y0206698D01*
X0098901Y0206809D01*
X0098959Y0206919D01*
X0099020Y0207026D01*
X0099085Y0207132D01*
X0099153Y0207235D01*
X0099224Y0207336D01*
X0099298Y0207435D01*
X0099375Y0207532D01*
X0099456Y0207626D01*
X0099539Y0207717D01*
X0099625Y0207806D01*
X0099714Y0207892D01*
X0099805Y0207975D01*
X0099899Y0208056D01*
X0099996Y0208133D01*
X0100095Y0208207D01*
X0100196Y0208278D01*
X0100299Y0208346D01*
X0100405Y0208411D01*
X0100512Y0208472D01*
X0100622Y0208530D01*
X0100733Y0208584D01*
X0100845Y0208635D01*
X0100960Y0208683D01*
X0101075Y0208726D01*
X0101192Y0208766D01*
X0101311Y0208803D01*
X0101430Y0208835D01*
X0101550Y0208864D01*
X0101671Y0208889D01*
X0101793Y0208911D01*
X0101916Y0208928D01*
X0102038Y0208942D01*
X0102162Y0208951D01*
X0102285Y0208957D01*
X0102409Y0208959D01*
X0153591Y0208959D01*
X0153715Y0208957D01*
X0153838Y0208951D01*
X0153962Y0208942D01*
X0154084Y0208928D01*
X0154207Y0208911D01*
X0154329Y0208889D01*
X0154450Y0208864D01*
X0154570Y0208835D01*
X0154689Y0208803D01*
X0154808Y0208766D01*
X0154925Y0208726D01*
X0155040Y0208683D01*
X0155155Y0208635D01*
X0155267Y0208584D01*
X0155378Y0208530D01*
X0155488Y0208472D01*
X0155595Y0208411D01*
X0155701Y0208346D01*
X0155804Y0208278D01*
X0155905Y0208207D01*
X0156004Y0208133D01*
X0156101Y0208056D01*
X0156195Y0207975D01*
X0156286Y0207892D01*
X0156375Y0207806D01*
X0156461Y0207717D01*
X0156544Y0207626D01*
X0156625Y0207532D01*
X0156702Y0207435D01*
X0156776Y0207336D01*
X0156847Y0207235D01*
X0156915Y0207132D01*
X0156980Y0207026D01*
X0157041Y0206919D01*
X0157099Y0206809D01*
X0157153Y0206698D01*
X0157204Y0206586D01*
X0157252Y0206471D01*
X0157295Y0206356D01*
X0157335Y0206239D01*
X0157372Y0206120D01*
X0157404Y0206001D01*
X0157433Y0205881D01*
X0157458Y0205760D01*
X0157480Y0205638D01*
X0157497Y0205515D01*
X0157511Y0205393D01*
X0157520Y0205269D01*
X0157526Y0205146D01*
X0157528Y0205022D01*
X0157528Y0075061D02*
X0157532Y0074938D01*
X0157533Y0074816D01*
X0157529Y0074693D01*
X0157522Y0074570D01*
X0157510Y0074448D01*
X0157495Y0074326D01*
X0157477Y0074205D01*
X0157454Y0074084D01*
X0157428Y0073964D01*
X0157398Y0073845D01*
X0157364Y0073727D01*
X0157327Y0073610D01*
X0157286Y0073495D01*
X0157241Y0073380D01*
X0157193Y0073267D01*
X0157141Y0073156D01*
X0157086Y0073046D01*
X0157028Y0072938D01*
X0156966Y0072832D01*
X0156901Y0072728D01*
X0156833Y0072626D01*
X0156761Y0072526D01*
X0156687Y0072429D01*
X0156609Y0072333D01*
X0156529Y0072241D01*
X0156446Y0072150D01*
X0156360Y0072063D01*
X0156271Y0071978D01*
X0156179Y0071896D01*
X0156086Y0071817D01*
X0155989Y0071741D01*
X0155891Y0071667D01*
X0155790Y0071597D01*
X0155687Y0071530D01*
X0155582Y0071467D01*
X0155475Y0071406D01*
X0155366Y0071349D01*
X0155256Y0071296D01*
X0155144Y0071246D01*
X0155030Y0071199D01*
X0154915Y0071156D01*
X0154799Y0071117D01*
X0154682Y0071081D01*
X0154563Y0071049D01*
X0154444Y0071020D01*
X0154323Y0070996D01*
X0154202Y0070975D01*
X0154081Y0070958D01*
X0153959Y0070944D01*
X0153836Y0070935D01*
X0153714Y0070929D01*
X0153591Y0070927D01*
X0153591Y0070928D02*
X0151031Y0070928D01*
X0151032Y0070927D02*
X0150839Y0070920D01*
X0150646Y0070908D01*
X0150453Y0070892D01*
X0150261Y0070870D01*
X0150070Y0070844D01*
X0149879Y0070813D01*
X0149689Y0070778D01*
X0149500Y0070737D01*
X0149312Y0070693D01*
X0149126Y0070643D01*
X0148940Y0070589D01*
X0148756Y0070531D01*
X0148573Y0070468D01*
X0148392Y0070401D01*
X0148213Y0070329D01*
X0148035Y0070253D01*
X0147860Y0070172D01*
X0147686Y0070087D01*
X0147515Y0069998D01*
X0147345Y0069905D01*
X0147178Y0069807D01*
X0147014Y0069706D01*
X0146852Y0069601D01*
X0146693Y0069491D01*
X0146536Y0069378D01*
X0146383Y0069261D01*
X0146232Y0069140D01*
X0146084Y0069016D01*
X0145939Y0068888D01*
X0145798Y0068756D01*
X0145660Y0068621D01*
X0145525Y0068483D01*
X0145393Y0068341D01*
X0145265Y0068196D01*
X0145141Y0068048D01*
X0145020Y0067897D01*
X0144903Y0067744D01*
X0144790Y0067587D01*
X0144681Y0067428D01*
X0144576Y0067266D01*
X0144474Y0067101D01*
X0144377Y0066934D01*
X0144284Y0066765D01*
X0144195Y0066593D01*
X0144110Y0066420D01*
X0144030Y0066244D01*
X0143954Y0066067D01*
X0143882Y0065887D01*
X0143815Y0065706D01*
X0143752Y0065523D01*
X0143694Y0065339D01*
X0143640Y0065154D01*
X0143591Y0064967D01*
X0143546Y0064779D01*
X0143506Y0064590D01*
X0143471Y0064400D01*
X0143440Y0064209D01*
X0143414Y0064017D01*
X0143393Y0063825D01*
X0143376Y0063633D01*
X0143364Y0063440D01*
X0143357Y0063247D01*
X0143355Y0063054D01*
X0153591Y0049825D02*
X0153715Y0049827D01*
X0153838Y0049833D01*
X0153962Y0049842D01*
X0154084Y0049856D01*
X0154207Y0049873D01*
X0154329Y0049895D01*
X0154450Y0049920D01*
X0154570Y0049949D01*
X0154689Y0049981D01*
X0154808Y0050018D01*
X0154925Y0050058D01*
X0155040Y0050101D01*
X0155155Y0050149D01*
X0155267Y0050200D01*
X0155378Y0050254D01*
X0155488Y0050312D01*
X0155595Y0050373D01*
X0155701Y0050438D01*
X0155804Y0050506D01*
X0155905Y0050577D01*
X0156004Y0050651D01*
X0156101Y0050728D01*
X0156195Y0050809D01*
X0156286Y0050892D01*
X0156375Y0050978D01*
X0156461Y0051067D01*
X0156544Y0051158D01*
X0156625Y0051252D01*
X0156702Y0051349D01*
X0156776Y0051448D01*
X0156847Y0051549D01*
X0156915Y0051652D01*
X0156980Y0051758D01*
X0157041Y0051865D01*
X0157099Y0051975D01*
X0157153Y0052086D01*
X0157204Y0052198D01*
X0157252Y0052313D01*
X0157295Y0052428D01*
X0157335Y0052545D01*
X0157372Y0052664D01*
X0157404Y0052783D01*
X0157433Y0052903D01*
X0157458Y0053024D01*
X0157480Y0053146D01*
X0157497Y0053269D01*
X0157511Y0053391D01*
X0157520Y0053515D01*
X0157526Y0053638D01*
X0157528Y0053762D01*
X0155835Y0033093D02*
X0155959Y0033091D01*
X0156082Y0033085D01*
X0156206Y0033076D01*
X0156328Y0033062D01*
X0156451Y0033045D01*
X0156573Y0033023D01*
X0156694Y0032998D01*
X0156814Y0032969D01*
X0156933Y0032937D01*
X0157052Y0032900D01*
X0157169Y0032860D01*
X0157284Y0032817D01*
X0157399Y0032769D01*
X0157511Y0032718D01*
X0157622Y0032664D01*
X0157732Y0032606D01*
X0157839Y0032545D01*
X0157945Y0032480D01*
X0158048Y0032412D01*
X0158149Y0032341D01*
X0158248Y0032267D01*
X0158345Y0032190D01*
X0158439Y0032109D01*
X0158530Y0032026D01*
X0158619Y0031940D01*
X0158705Y0031851D01*
X0158788Y0031760D01*
X0158869Y0031666D01*
X0158946Y0031569D01*
X0159020Y0031470D01*
X0159091Y0031369D01*
X0159159Y0031266D01*
X0159224Y0031160D01*
X0159285Y0031053D01*
X0159343Y0030943D01*
X0159397Y0030832D01*
X0159448Y0030720D01*
X0159496Y0030605D01*
X0159539Y0030490D01*
X0159579Y0030373D01*
X0159616Y0030254D01*
X0159648Y0030135D01*
X0159677Y0030015D01*
X0159702Y0029894D01*
X0159724Y0029772D01*
X0159741Y0029649D01*
X0159755Y0029527D01*
X0159764Y0029403D01*
X0159770Y0029280D01*
X0159772Y0029156D01*
X0159772Y0005337D01*
X0159770Y0005213D01*
X0159764Y0005090D01*
X0159755Y0004966D01*
X0159741Y0004844D01*
X0159724Y0004721D01*
X0159702Y0004599D01*
X0159677Y0004478D01*
X0159648Y0004358D01*
X0159616Y0004239D01*
X0159579Y0004120D01*
X0159539Y0004003D01*
X0159496Y0003888D01*
X0159448Y0003773D01*
X0159397Y0003661D01*
X0159343Y0003550D01*
X0159285Y0003440D01*
X0159224Y0003333D01*
X0159159Y0003227D01*
X0159091Y0003124D01*
X0159020Y0003023D01*
X0158946Y0002924D01*
X0158869Y0002827D01*
X0158788Y0002733D01*
X0158705Y0002642D01*
X0158619Y0002553D01*
X0158530Y0002467D01*
X0158439Y0002384D01*
X0158345Y0002303D01*
X0158248Y0002226D01*
X0158149Y0002152D01*
X0158048Y0002081D01*
X0157945Y0002013D01*
X0157839Y0001948D01*
X0157732Y0001887D01*
X0157622Y0001829D01*
X0157511Y0001775D01*
X0157399Y0001724D01*
X0157284Y0001676D01*
X0157169Y0001633D01*
X0157052Y0001593D01*
X0156933Y0001556D01*
X0156814Y0001524D01*
X0156694Y0001495D01*
X0156573Y0001470D01*
X0156451Y0001448D01*
X0156328Y0001431D01*
X0156206Y0001417D01*
X0156082Y0001408D01*
X0155959Y0001402D01*
X0155835Y0001400D01*
X0147409Y0001400D01*
X0147285Y0001402D01*
X0147162Y0001408D01*
X0147038Y0001417D01*
X0146916Y0001431D01*
X0146793Y0001448D01*
X0146671Y0001470D01*
X0146550Y0001495D01*
X0146430Y0001524D01*
X0146311Y0001556D01*
X0146192Y0001593D01*
X0146075Y0001633D01*
X0145960Y0001676D01*
X0145845Y0001724D01*
X0145733Y0001775D01*
X0145622Y0001829D01*
X0145512Y0001887D01*
X0145405Y0001948D01*
X0145299Y0002013D01*
X0145196Y0002081D01*
X0145095Y0002152D01*
X0144996Y0002226D01*
X0144899Y0002303D01*
X0144805Y0002384D01*
X0144714Y0002467D01*
X0144625Y0002553D01*
X0144539Y0002642D01*
X0144456Y0002733D01*
X0144375Y0002827D01*
X0144298Y0002924D01*
X0144224Y0003023D01*
X0144153Y0003124D01*
X0144085Y0003227D01*
X0144020Y0003333D01*
X0143959Y0003440D01*
X0143901Y0003550D01*
X0143847Y0003661D01*
X0143796Y0003773D01*
X0143748Y0003888D01*
X0143705Y0004003D01*
X0143665Y0004120D01*
X0143628Y0004239D01*
X0143596Y0004358D01*
X0143567Y0004478D01*
X0143542Y0004599D01*
X0143520Y0004721D01*
X0143503Y0004844D01*
X0143489Y0004966D01*
X0143480Y0005090D01*
X0143474Y0005213D01*
X0143472Y0005337D01*
X0143472Y0029156D01*
X0143474Y0029280D01*
X0143480Y0029403D01*
X0143489Y0029527D01*
X0143503Y0029649D01*
X0143520Y0029772D01*
X0143542Y0029894D01*
X0143567Y0030015D01*
X0143596Y0030135D01*
X0143628Y0030254D01*
X0143665Y0030373D01*
X0143705Y0030490D01*
X0143748Y0030605D01*
X0143796Y0030720D01*
X0143847Y0030832D01*
X0143901Y0030943D01*
X0143959Y0031053D01*
X0144020Y0031160D01*
X0144085Y0031266D01*
X0144153Y0031369D01*
X0144224Y0031470D01*
X0144298Y0031569D01*
X0144375Y0031666D01*
X0144456Y0031760D01*
X0144539Y0031851D01*
X0144625Y0031940D01*
X0144714Y0032026D01*
X0144805Y0032109D01*
X0144899Y0032190D01*
X0144996Y0032267D01*
X0145095Y0032341D01*
X0145196Y0032412D01*
X0145299Y0032480D01*
X0145405Y0032545D01*
X0145512Y0032606D01*
X0145622Y0032664D01*
X0145733Y0032718D01*
X0145845Y0032769D01*
X0145960Y0032817D01*
X0146075Y0032860D01*
X0146192Y0032900D01*
X0146311Y0032937D01*
X0146430Y0032969D01*
X0146550Y0032998D01*
X0146671Y0033023D01*
X0146793Y0033045D01*
X0146916Y0033062D01*
X0147038Y0033076D01*
X0147162Y0033085D01*
X0147285Y0033091D01*
X0147409Y0033093D01*
D18*
X0164128Y0186858D02*
X0164459Y0186432D01*
X0164459Y0186433D02*
X0164344Y0186340D01*
X0164232Y0186245D01*
X0164122Y0186147D01*
X0164015Y0186046D01*
X0163911Y0185942D01*
X0163809Y0185835D01*
X0163710Y0185726D01*
X0163614Y0185615D01*
X0163520Y0185501D01*
X0163430Y0185385D01*
X0163343Y0185266D01*
X0163259Y0185145D01*
X0163178Y0185023D01*
X0163100Y0184898D01*
X0163025Y0184771D01*
X0162954Y0184642D01*
X0162885Y0184512D01*
X0162821Y0184379D01*
X0162760Y0184245D01*
X0162702Y0184110D01*
X0162647Y0183973D01*
X0162597Y0183835D01*
X0162549Y0183695D01*
X0162506Y0183555D01*
X0162466Y0183413D01*
X0162429Y0183271D01*
X0162397Y0183127D01*
X0162368Y0182983D01*
X0162343Y0182838D01*
X0162321Y0182692D01*
X0162303Y0182546D01*
X0162289Y0182399D01*
X0162279Y0182252D01*
X0162273Y0182105D01*
X0162270Y0181958D01*
X0161731Y0181958D01*
X0161730Y0181958D01*
X0161733Y0182115D01*
X0161739Y0182271D01*
X0161750Y0182428D01*
X0161764Y0182584D01*
X0161783Y0182740D01*
X0161805Y0182895D01*
X0161831Y0183049D01*
X0161861Y0183203D01*
X0161895Y0183356D01*
X0161933Y0183509D01*
X0161974Y0183660D01*
X0162019Y0183810D01*
X0162068Y0183959D01*
X0162121Y0184107D01*
X0162177Y0184253D01*
X0162237Y0184398D01*
X0162301Y0184541D01*
X0162368Y0184683D01*
X0162438Y0184823D01*
X0162512Y0184961D01*
X0162590Y0185097D01*
X0162671Y0185232D01*
X0162755Y0185364D01*
X0162843Y0185494D01*
X0162933Y0185622D01*
X0163027Y0185747D01*
X0163124Y0185870D01*
X0163225Y0185991D01*
X0163328Y0186109D01*
X0163434Y0186225D01*
X0163542Y0186337D01*
X0163654Y0186448D01*
X0163768Y0186555D01*
X0163885Y0186659D01*
X0164005Y0186761D01*
X0164127Y0186859D01*
X0164162Y0186815D01*
X0164041Y0186717D01*
X0163922Y0186617D01*
X0163806Y0186513D01*
X0163693Y0186407D01*
X0163582Y0186298D01*
X0163474Y0186186D01*
X0163369Y0186072D01*
X0163267Y0185955D01*
X0163168Y0185835D01*
X0163072Y0185713D01*
X0162979Y0185589D01*
X0162889Y0185462D01*
X0162802Y0185333D01*
X0162718Y0185202D01*
X0162638Y0185069D01*
X0162561Y0184934D01*
X0162488Y0184797D01*
X0162418Y0184658D01*
X0162351Y0184518D01*
X0162288Y0184376D01*
X0162229Y0184232D01*
X0162173Y0184087D01*
X0162121Y0183941D01*
X0162073Y0183793D01*
X0162028Y0183645D01*
X0161987Y0183495D01*
X0161949Y0183344D01*
X0161916Y0183192D01*
X0161886Y0183040D01*
X0161860Y0182886D01*
X0161838Y0182733D01*
X0161820Y0182578D01*
X0161806Y0182424D01*
X0161795Y0182269D01*
X0161789Y0182113D01*
X0161786Y0181958D01*
X0161842Y0181958D01*
X0161845Y0182112D01*
X0161851Y0182266D01*
X0161862Y0182419D01*
X0161876Y0182573D01*
X0161894Y0182726D01*
X0161916Y0182878D01*
X0161941Y0183030D01*
X0161971Y0183181D01*
X0162004Y0183331D01*
X0162041Y0183481D01*
X0162082Y0183629D01*
X0162126Y0183777D01*
X0162174Y0183923D01*
X0162226Y0184068D01*
X0162281Y0184212D01*
X0162340Y0184354D01*
X0162402Y0184495D01*
X0162468Y0184634D01*
X0162538Y0184771D01*
X0162610Y0184907D01*
X0162687Y0185041D01*
X0162766Y0185172D01*
X0162849Y0185302D01*
X0162935Y0185430D01*
X0163024Y0185555D01*
X0163116Y0185679D01*
X0163211Y0185800D01*
X0163310Y0185918D01*
X0163411Y0186034D01*
X0163515Y0186148D01*
X0163622Y0186258D01*
X0163731Y0186367D01*
X0163844Y0186472D01*
X0163959Y0186574D01*
X0164076Y0186674D01*
X0164196Y0186770D01*
X0164230Y0186726D01*
X0164112Y0186631D01*
X0163995Y0186532D01*
X0163881Y0186430D01*
X0163770Y0186326D01*
X0163661Y0186219D01*
X0163556Y0186109D01*
X0163452Y0185997D01*
X0163352Y0185882D01*
X0163255Y0185764D01*
X0163160Y0185645D01*
X0163069Y0185522D01*
X0162981Y0185398D01*
X0162896Y0185271D01*
X0162814Y0185143D01*
X0162735Y0185012D01*
X0162659Y0184880D01*
X0162587Y0184745D01*
X0162519Y0184609D01*
X0162453Y0184471D01*
X0162391Y0184332D01*
X0162333Y0184191D01*
X0162278Y0184048D01*
X0162227Y0183905D01*
X0162179Y0183760D01*
X0162135Y0183614D01*
X0162095Y0183467D01*
X0162059Y0183319D01*
X0162026Y0183170D01*
X0161996Y0183020D01*
X0161971Y0182870D01*
X0161949Y0182719D01*
X0161932Y0182567D01*
X0161917Y0182415D01*
X0161907Y0182263D01*
X0161901Y0182111D01*
X0161898Y0181958D01*
X0161954Y0181958D01*
X0161957Y0182109D01*
X0161963Y0182260D01*
X0161973Y0182411D01*
X0161987Y0182561D01*
X0162005Y0182711D01*
X0162026Y0182861D01*
X0162052Y0183010D01*
X0162081Y0183158D01*
X0162113Y0183306D01*
X0162149Y0183453D01*
X0162189Y0183598D01*
X0162233Y0183743D01*
X0162280Y0183887D01*
X0162331Y0184029D01*
X0162385Y0184170D01*
X0162443Y0184310D01*
X0162504Y0184448D01*
X0162569Y0184584D01*
X0162637Y0184719D01*
X0162708Y0184853D01*
X0162783Y0184984D01*
X0162861Y0185113D01*
X0162942Y0185241D01*
X0163027Y0185366D01*
X0163114Y0185489D01*
X0163205Y0185610D01*
X0163298Y0185729D01*
X0163395Y0185845D01*
X0163494Y0185959D01*
X0163596Y0186071D01*
X0163701Y0186179D01*
X0163809Y0186285D01*
X0163919Y0186389D01*
X0164032Y0186489D01*
X0164147Y0186587D01*
X0164265Y0186682D01*
X0164299Y0186638D01*
X0164179Y0186541D01*
X0164062Y0186441D01*
X0163947Y0186339D01*
X0163835Y0186233D01*
X0163726Y0186125D01*
X0163619Y0186013D01*
X0163516Y0185899D01*
X0163415Y0185783D01*
X0163318Y0185664D01*
X0163223Y0185542D01*
X0163132Y0185418D01*
X0163044Y0185292D01*
X0162959Y0185163D01*
X0162877Y0185033D01*
X0162799Y0184900D01*
X0162725Y0184765D01*
X0162653Y0184629D01*
X0162586Y0184490D01*
X0162522Y0184350D01*
X0162461Y0184209D01*
X0162404Y0184066D01*
X0162351Y0183921D01*
X0162302Y0183775D01*
X0162256Y0183628D01*
X0162215Y0183480D01*
X0162177Y0183331D01*
X0162142Y0183181D01*
X0162112Y0183030D01*
X0162086Y0182878D01*
X0162063Y0182726D01*
X0162045Y0182573D01*
X0162030Y0182419D01*
X0162020Y0182266D01*
X0162013Y0182112D01*
X0162010Y0181958D01*
X0162066Y0181958D01*
X0162069Y0182111D01*
X0162075Y0182263D01*
X0162086Y0182415D01*
X0162100Y0182567D01*
X0162119Y0182718D01*
X0162141Y0182869D01*
X0162167Y0183020D01*
X0162197Y0183169D01*
X0162231Y0183318D01*
X0162269Y0183466D01*
X0162310Y0183612D01*
X0162355Y0183758D01*
X0162404Y0183903D01*
X0162457Y0184046D01*
X0162513Y0184188D01*
X0162573Y0184328D01*
X0162636Y0184467D01*
X0162703Y0184604D01*
X0162774Y0184739D01*
X0162848Y0184872D01*
X0162925Y0185004D01*
X0163006Y0185133D01*
X0163090Y0185260D01*
X0163177Y0185385D01*
X0163268Y0185508D01*
X0163361Y0185629D01*
X0163458Y0185747D01*
X0163558Y0185862D01*
X0163660Y0185975D01*
X0163766Y0186085D01*
X0163874Y0186193D01*
X0163985Y0186297D01*
X0164099Y0186399D01*
X0164215Y0186498D01*
X0164333Y0186594D01*
X0164368Y0186549D01*
X0164250Y0186455D01*
X0164135Y0186357D01*
X0164023Y0186256D01*
X0163913Y0186152D01*
X0163805Y0186046D01*
X0163701Y0185937D01*
X0163599Y0185825D01*
X0163501Y0185711D01*
X0163405Y0185594D01*
X0163312Y0185474D01*
X0163223Y0185353D01*
X0163136Y0185229D01*
X0163053Y0185103D01*
X0162973Y0184975D01*
X0162896Y0184844D01*
X0162823Y0184712D01*
X0162753Y0184578D01*
X0162687Y0184443D01*
X0162624Y0184305D01*
X0162565Y0184166D01*
X0162509Y0184026D01*
X0162457Y0183884D01*
X0162409Y0183741D01*
X0162364Y0183597D01*
X0162323Y0183451D01*
X0162286Y0183305D01*
X0162252Y0183158D01*
X0162222Y0183009D01*
X0162196Y0182861D01*
X0162174Y0182711D01*
X0162156Y0182561D01*
X0162142Y0182411D01*
X0162131Y0182260D01*
X0162125Y0182109D01*
X0162122Y0181958D01*
X0162178Y0181958D01*
X0162181Y0182108D01*
X0162187Y0182257D01*
X0162198Y0182406D01*
X0162212Y0182555D01*
X0162230Y0182704D01*
X0162252Y0182852D01*
X0162277Y0182999D01*
X0162307Y0183146D01*
X0162340Y0183292D01*
X0162377Y0183437D01*
X0162418Y0183581D01*
X0162462Y0183724D01*
X0162510Y0183865D01*
X0162561Y0184006D01*
X0162617Y0184145D01*
X0162675Y0184283D01*
X0162738Y0184419D01*
X0162803Y0184553D01*
X0162873Y0184686D01*
X0162945Y0184817D01*
X0163021Y0184945D01*
X0163100Y0185072D01*
X0163183Y0185197D01*
X0163268Y0185320D01*
X0163357Y0185440D01*
X0163449Y0185559D01*
X0163544Y0185674D01*
X0163641Y0185788D01*
X0163742Y0185898D01*
X0163845Y0186006D01*
X0163951Y0186112D01*
X0164060Y0186215D01*
X0164172Y0186314D01*
X0164286Y0186411D01*
X0164402Y0186505D01*
X0164437Y0186461D01*
X0164321Y0186368D01*
X0164208Y0186272D01*
X0164098Y0186173D01*
X0163990Y0186072D01*
X0163885Y0185967D01*
X0163783Y0185860D01*
X0163683Y0185750D01*
X0163586Y0185638D01*
X0163492Y0185524D01*
X0163401Y0185407D01*
X0163314Y0185287D01*
X0163229Y0185166D01*
X0163147Y0185042D01*
X0163069Y0184916D01*
X0162994Y0184789D01*
X0162922Y0184659D01*
X0162853Y0184528D01*
X0162788Y0184395D01*
X0162727Y0184260D01*
X0162668Y0184124D01*
X0162614Y0183986D01*
X0162563Y0183847D01*
X0162515Y0183707D01*
X0162471Y0183565D01*
X0162431Y0183422D01*
X0162394Y0183279D01*
X0162362Y0183134D01*
X0162332Y0182989D01*
X0162307Y0182843D01*
X0162285Y0182697D01*
X0162268Y0182549D01*
X0162254Y0182402D01*
X0162243Y0182254D01*
X0162237Y0182106D01*
X0162234Y0181958D01*
X0174269Y0181957D02*
X0173729Y0181957D01*
X0173730Y0181958D02*
X0173727Y0182108D01*
X0173720Y0182258D01*
X0173710Y0182408D01*
X0173695Y0182557D01*
X0173677Y0182706D01*
X0173655Y0182854D01*
X0173628Y0183002D01*
X0173598Y0183149D01*
X0173564Y0183296D01*
X0173527Y0183441D01*
X0173485Y0183585D01*
X0173440Y0183728D01*
X0173391Y0183870D01*
X0173338Y0184011D01*
X0173282Y0184150D01*
X0173222Y0184287D01*
X0173158Y0184423D01*
X0173091Y0184557D01*
X0173020Y0184690D01*
X0172946Y0184820D01*
X0172869Y0184949D01*
X0172788Y0185075D01*
X0172704Y0185200D01*
X0172617Y0185322D01*
X0172526Y0185442D01*
X0172433Y0185559D01*
X0172336Y0185674D01*
X0172236Y0185786D01*
X0172134Y0185896D01*
X0172029Y0186003D01*
X0171921Y0186107D01*
X0171810Y0186208D01*
X0171696Y0186306D01*
X0171580Y0186402D01*
X0171462Y0186494D01*
X0171785Y0186925D01*
X0171786Y0186926D01*
X0171909Y0186831D01*
X0172029Y0186732D01*
X0172147Y0186631D01*
X0172262Y0186526D01*
X0172375Y0186419D01*
X0172485Y0186309D01*
X0172592Y0186197D01*
X0172697Y0186082D01*
X0172798Y0185964D01*
X0172897Y0185844D01*
X0172993Y0185721D01*
X0173085Y0185596D01*
X0173175Y0185469D01*
X0173261Y0185339D01*
X0173344Y0185208D01*
X0173424Y0185074D01*
X0173500Y0184939D01*
X0173573Y0184801D01*
X0173642Y0184662D01*
X0173708Y0184521D01*
X0173771Y0184379D01*
X0173830Y0184235D01*
X0173885Y0184090D01*
X0173937Y0183943D01*
X0173985Y0183795D01*
X0174030Y0183646D01*
X0174071Y0183496D01*
X0174108Y0183345D01*
X0174141Y0183193D01*
X0174170Y0183041D01*
X0174196Y0182887D01*
X0174218Y0182733D01*
X0174236Y0182579D01*
X0174250Y0182424D01*
X0174261Y0182269D01*
X0174267Y0182113D01*
X0174270Y0181958D01*
X0174214Y0181958D01*
X0174211Y0182112D01*
X0174205Y0182266D01*
X0174195Y0182420D01*
X0174180Y0182573D01*
X0174163Y0182726D01*
X0174141Y0182879D01*
X0174115Y0183031D01*
X0174086Y0183182D01*
X0174053Y0183333D01*
X0174016Y0183482D01*
X0173976Y0183631D01*
X0173932Y0183779D01*
X0173884Y0183925D01*
X0173833Y0184071D01*
X0173778Y0184215D01*
X0173719Y0184357D01*
X0173657Y0184498D01*
X0173592Y0184638D01*
X0173523Y0184776D01*
X0173451Y0184912D01*
X0173375Y0185046D01*
X0173296Y0185178D01*
X0173214Y0185309D01*
X0173128Y0185437D01*
X0173040Y0185563D01*
X0172948Y0185687D01*
X0172853Y0185808D01*
X0172756Y0185928D01*
X0172655Y0186044D01*
X0172552Y0186159D01*
X0172445Y0186270D01*
X0172336Y0186379D01*
X0172224Y0186485D01*
X0172110Y0186589D01*
X0171993Y0186689D01*
X0171874Y0186787D01*
X0171752Y0186881D01*
X0171719Y0186836D01*
X0171839Y0186743D01*
X0171958Y0186646D01*
X0172073Y0186546D01*
X0172187Y0186444D01*
X0172297Y0186339D01*
X0172405Y0186231D01*
X0172511Y0186120D01*
X0172613Y0186007D01*
X0172713Y0185891D01*
X0172810Y0185773D01*
X0172904Y0185653D01*
X0172994Y0185530D01*
X0173082Y0185405D01*
X0173167Y0185278D01*
X0173248Y0185149D01*
X0173327Y0185018D01*
X0173402Y0184885D01*
X0173473Y0184750D01*
X0173542Y0184613D01*
X0173606Y0184475D01*
X0173668Y0184335D01*
X0173726Y0184194D01*
X0173780Y0184051D01*
X0173831Y0183907D01*
X0173878Y0183762D01*
X0173922Y0183616D01*
X0173962Y0183469D01*
X0173999Y0183320D01*
X0174031Y0183171D01*
X0174060Y0183021D01*
X0174085Y0182871D01*
X0174107Y0182719D01*
X0174125Y0182568D01*
X0174139Y0182416D01*
X0174149Y0182263D01*
X0174155Y0182111D01*
X0174158Y0181958D01*
X0174102Y0181958D01*
X0174099Y0182113D01*
X0174092Y0182269D01*
X0174082Y0182424D01*
X0174067Y0182579D01*
X0174049Y0182733D01*
X0174026Y0182887D01*
X0174000Y0183040D01*
X0173969Y0183193D01*
X0173935Y0183345D01*
X0173897Y0183495D01*
X0173855Y0183645D01*
X0173810Y0183794D01*
X0173760Y0183941D01*
X0173707Y0184087D01*
X0173650Y0184232D01*
X0173590Y0184375D01*
X0173526Y0184517D01*
X0173458Y0184657D01*
X0173386Y0184795D01*
X0173312Y0184931D01*
X0173233Y0185066D01*
X0173152Y0185198D01*
X0173067Y0185328D01*
X0172978Y0185456D01*
X0172887Y0185582D01*
X0172792Y0185705D01*
X0172694Y0185826D01*
X0172594Y0185945D01*
X0172490Y0186060D01*
X0172383Y0186173D01*
X0172273Y0186284D01*
X0172161Y0186391D01*
X0172046Y0186496D01*
X0171928Y0186597D01*
X0171808Y0186696D01*
X0171685Y0186792D01*
X0171652Y0186747D01*
X0171773Y0186652D01*
X0171892Y0186554D01*
X0172009Y0186454D01*
X0172123Y0186350D01*
X0172234Y0186244D01*
X0172343Y0186134D01*
X0172449Y0186022D01*
X0172551Y0185908D01*
X0172651Y0185790D01*
X0172748Y0185671D01*
X0172842Y0185548D01*
X0172933Y0185424D01*
X0173020Y0185297D01*
X0173105Y0185168D01*
X0173185Y0185037D01*
X0173263Y0184904D01*
X0173337Y0184769D01*
X0173408Y0184632D01*
X0173475Y0184493D01*
X0173538Y0184353D01*
X0173598Y0184211D01*
X0173655Y0184068D01*
X0173707Y0183923D01*
X0173756Y0183777D01*
X0173802Y0183629D01*
X0173843Y0183481D01*
X0173881Y0183332D01*
X0173915Y0183181D01*
X0173945Y0183030D01*
X0173971Y0182878D01*
X0173993Y0182726D01*
X0174011Y0182573D01*
X0174026Y0182420D01*
X0174037Y0182266D01*
X0174043Y0182112D01*
X0174046Y0181958D01*
X0173990Y0181958D01*
X0173987Y0182111D01*
X0173981Y0182263D01*
X0173970Y0182415D01*
X0173956Y0182567D01*
X0173938Y0182719D01*
X0173915Y0182870D01*
X0173890Y0183020D01*
X0173860Y0183170D01*
X0173826Y0183319D01*
X0173789Y0183467D01*
X0173748Y0183614D01*
X0173703Y0183760D01*
X0173655Y0183904D01*
X0173602Y0184048D01*
X0173547Y0184190D01*
X0173487Y0184330D01*
X0173424Y0184469D01*
X0173358Y0184607D01*
X0173288Y0184742D01*
X0173214Y0184876D01*
X0173137Y0185008D01*
X0173057Y0185138D01*
X0172974Y0185266D01*
X0172887Y0185391D01*
X0172797Y0185515D01*
X0172704Y0185636D01*
X0172608Y0185755D01*
X0172509Y0185871D01*
X0172408Y0185984D01*
X0172303Y0186095D01*
X0172195Y0186204D01*
X0172085Y0186309D01*
X0171972Y0186412D01*
X0171856Y0186511D01*
X0171738Y0186608D01*
X0171618Y0186702D01*
X0171584Y0186657D01*
X0171704Y0186564D01*
X0171821Y0186468D01*
X0171935Y0186370D01*
X0172047Y0186268D01*
X0172156Y0186163D01*
X0172263Y0186056D01*
X0172366Y0185946D01*
X0172467Y0185834D01*
X0172565Y0185719D01*
X0172661Y0185601D01*
X0172753Y0185481D01*
X0172842Y0185359D01*
X0172927Y0185235D01*
X0173010Y0185108D01*
X0173089Y0184979D01*
X0173165Y0184849D01*
X0173238Y0184716D01*
X0173308Y0184582D01*
X0173373Y0184446D01*
X0173436Y0184308D01*
X0173495Y0184169D01*
X0173550Y0184028D01*
X0173602Y0183886D01*
X0173650Y0183743D01*
X0173694Y0183598D01*
X0173735Y0183453D01*
X0173772Y0183306D01*
X0173805Y0183158D01*
X0173834Y0183010D01*
X0173860Y0182861D01*
X0173882Y0182712D01*
X0173900Y0182562D01*
X0173914Y0182411D01*
X0173925Y0182260D01*
X0173931Y0182109D01*
X0173934Y0181958D01*
X0173878Y0181958D01*
X0173875Y0182108D01*
X0173869Y0182257D01*
X0173858Y0182407D01*
X0173844Y0182556D01*
X0173826Y0182704D01*
X0173805Y0182853D01*
X0173779Y0183000D01*
X0173750Y0183147D01*
X0173717Y0183293D01*
X0173681Y0183438D01*
X0173640Y0183582D01*
X0173596Y0183726D01*
X0173549Y0183868D01*
X0173498Y0184008D01*
X0173443Y0184148D01*
X0173384Y0184286D01*
X0173323Y0184422D01*
X0173257Y0184557D01*
X0173189Y0184690D01*
X0173117Y0184821D01*
X0173041Y0184950D01*
X0172963Y0185078D01*
X0172881Y0185203D01*
X0172796Y0185327D01*
X0172708Y0185448D01*
X0172617Y0185566D01*
X0172522Y0185683D01*
X0172425Y0185797D01*
X0172325Y0185908D01*
X0172223Y0186017D01*
X0172117Y0186123D01*
X0172009Y0186227D01*
X0171898Y0186328D01*
X0171785Y0186425D01*
X0171669Y0186520D01*
X0171551Y0186612D01*
X0171517Y0186568D01*
X0171634Y0186476D01*
X0171749Y0186382D01*
X0171861Y0186285D01*
X0171971Y0186186D01*
X0172078Y0186083D01*
X0172182Y0185978D01*
X0172284Y0185870D01*
X0172383Y0185760D01*
X0172479Y0185647D01*
X0172573Y0185532D01*
X0172663Y0185414D01*
X0172750Y0185294D01*
X0172834Y0185172D01*
X0172916Y0185048D01*
X0172993Y0184922D01*
X0173068Y0184793D01*
X0173139Y0184663D01*
X0173207Y0184532D01*
X0173272Y0184398D01*
X0173333Y0184263D01*
X0173391Y0184127D01*
X0173445Y0183989D01*
X0173496Y0183849D01*
X0173543Y0183709D01*
X0173587Y0183567D01*
X0173627Y0183424D01*
X0173663Y0183280D01*
X0173695Y0183136D01*
X0173724Y0182990D01*
X0173749Y0182844D01*
X0173771Y0182697D01*
X0173789Y0182550D01*
X0173803Y0182402D01*
X0173813Y0182254D01*
X0173819Y0182106D01*
X0173822Y0181958D01*
X0173766Y0181958D01*
X0173763Y0182109D01*
X0173756Y0182260D01*
X0173746Y0182411D01*
X0173731Y0182561D01*
X0173713Y0182711D01*
X0173690Y0182860D01*
X0173664Y0183009D01*
X0173634Y0183157D01*
X0173599Y0183304D01*
X0173561Y0183450D01*
X0173520Y0183595D01*
X0173474Y0183739D01*
X0173425Y0183882D01*
X0173372Y0184024D01*
X0173315Y0184164D01*
X0173255Y0184302D01*
X0173191Y0184439D01*
X0173123Y0184574D01*
X0173052Y0184707D01*
X0172977Y0184839D01*
X0172900Y0184968D01*
X0172818Y0185095D01*
X0172734Y0185220D01*
X0172646Y0185343D01*
X0172555Y0185464D01*
X0172460Y0185582D01*
X0172363Y0185697D01*
X0172263Y0185810D01*
X0172160Y0185921D01*
X0172054Y0186028D01*
X0171945Y0186133D01*
X0171834Y0186235D01*
X0171719Y0186334D01*
X0171603Y0186430D01*
X0171484Y0186523D01*
X0171668Y0176844D02*
X0171354Y0177283D01*
X0171355Y0177283D02*
X0171475Y0177372D01*
X0171593Y0177464D01*
X0171708Y0177560D01*
X0171821Y0177658D01*
X0171931Y0177759D01*
X0172039Y0177863D01*
X0172143Y0177970D01*
X0172245Y0178080D01*
X0172344Y0178192D01*
X0172440Y0178306D01*
X0172533Y0178424D01*
X0172623Y0178543D01*
X0172710Y0178665D01*
X0172794Y0178789D01*
X0172874Y0178915D01*
X0172951Y0179044D01*
X0173025Y0179174D01*
X0173095Y0179306D01*
X0173162Y0179440D01*
X0173225Y0179576D01*
X0173284Y0179713D01*
X0173341Y0179851D01*
X0173393Y0179992D01*
X0173442Y0180133D01*
X0173487Y0180276D01*
X0173528Y0180420D01*
X0173565Y0180564D01*
X0173599Y0180710D01*
X0173629Y0180857D01*
X0173655Y0181004D01*
X0173677Y0181152D01*
X0173696Y0181301D01*
X0173710Y0181450D01*
X0173721Y0181599D01*
X0173727Y0181748D01*
X0173730Y0181898D01*
X0174269Y0181898D01*
X0174270Y0181898D01*
X0174267Y0181743D01*
X0174261Y0181588D01*
X0174250Y0181433D01*
X0174236Y0181278D01*
X0174218Y0181124D01*
X0174196Y0180970D01*
X0174171Y0180817D01*
X0174141Y0180665D01*
X0174108Y0180513D01*
X0174071Y0180362D01*
X0174031Y0180212D01*
X0173986Y0180063D01*
X0173938Y0179916D01*
X0173887Y0179769D01*
X0173831Y0179624D01*
X0173773Y0179481D01*
X0173710Y0179338D01*
X0173644Y0179198D01*
X0173575Y0179059D01*
X0173502Y0178922D01*
X0173426Y0178786D01*
X0173347Y0178653D01*
X0173264Y0178522D01*
X0173178Y0178392D01*
X0173089Y0178265D01*
X0172997Y0178140D01*
X0172901Y0178018D01*
X0172803Y0177898D01*
X0172702Y0177780D01*
X0172598Y0177665D01*
X0172491Y0177552D01*
X0172381Y0177442D01*
X0172269Y0177335D01*
X0172154Y0177231D01*
X0172036Y0177130D01*
X0171916Y0177031D01*
X0171793Y0176936D01*
X0171669Y0176843D01*
X0171636Y0176889D01*
X0171760Y0176981D01*
X0171881Y0177075D01*
X0172000Y0177173D01*
X0172117Y0177273D01*
X0172231Y0177377D01*
X0172342Y0177483D01*
X0172451Y0177591D01*
X0172557Y0177703D01*
X0172660Y0177817D01*
X0172760Y0177934D01*
X0172858Y0178053D01*
X0172952Y0178174D01*
X0173044Y0178298D01*
X0173132Y0178424D01*
X0173217Y0178552D01*
X0173299Y0178682D01*
X0173378Y0178814D01*
X0173453Y0178949D01*
X0173525Y0179085D01*
X0173594Y0179222D01*
X0173659Y0179361D01*
X0173721Y0179502D01*
X0173779Y0179645D01*
X0173834Y0179789D01*
X0173885Y0179934D01*
X0173933Y0180080D01*
X0173977Y0180227D01*
X0174017Y0180376D01*
X0174054Y0180525D01*
X0174086Y0180676D01*
X0174116Y0180827D01*
X0174141Y0180978D01*
X0174163Y0181131D01*
X0174180Y0181284D01*
X0174195Y0181437D01*
X0174205Y0181590D01*
X0174211Y0181744D01*
X0174214Y0181898D01*
X0174158Y0181898D01*
X0174155Y0181741D01*
X0174148Y0181585D01*
X0174138Y0181429D01*
X0174123Y0181273D01*
X0174104Y0181117D01*
X0174082Y0180962D01*
X0174055Y0180808D01*
X0174025Y0180654D01*
X0173991Y0180502D01*
X0173952Y0180350D01*
X0173910Y0180199D01*
X0173864Y0180049D01*
X0173815Y0179901D01*
X0173761Y0179754D01*
X0173704Y0179608D01*
X0173643Y0179464D01*
X0173579Y0179321D01*
X0173511Y0179180D01*
X0173439Y0179041D01*
X0173364Y0178903D01*
X0173285Y0178768D01*
X0173203Y0178635D01*
X0173118Y0178503D01*
X0173029Y0178374D01*
X0172937Y0178248D01*
X0172842Y0178123D01*
X0172744Y0178001D01*
X0172642Y0177882D01*
X0172538Y0177765D01*
X0172431Y0177651D01*
X0172321Y0177540D01*
X0172208Y0177432D01*
X0172092Y0177326D01*
X0171974Y0177224D01*
X0171853Y0177124D01*
X0171729Y0177028D01*
X0171604Y0176935D01*
X0171571Y0176980D01*
X0171696Y0177072D01*
X0171818Y0177168D01*
X0171938Y0177267D01*
X0172055Y0177368D01*
X0172170Y0177473D01*
X0172281Y0177580D01*
X0172391Y0177690D01*
X0172497Y0177803D01*
X0172600Y0177919D01*
X0172701Y0178037D01*
X0172798Y0178158D01*
X0172892Y0178281D01*
X0172984Y0178407D01*
X0173071Y0178535D01*
X0173156Y0178665D01*
X0173237Y0178797D01*
X0173315Y0178931D01*
X0173390Y0179067D01*
X0173461Y0179205D01*
X0173528Y0179345D01*
X0173592Y0179486D01*
X0173652Y0179629D01*
X0173709Y0179773D01*
X0173762Y0179919D01*
X0173811Y0180066D01*
X0173857Y0180215D01*
X0173898Y0180364D01*
X0173936Y0180515D01*
X0173970Y0180666D01*
X0174000Y0180818D01*
X0174026Y0180971D01*
X0174049Y0181125D01*
X0174067Y0181279D01*
X0174082Y0181433D01*
X0174093Y0181588D01*
X0174099Y0181743D01*
X0174102Y0181898D01*
X0174046Y0181898D01*
X0174043Y0181744D01*
X0174037Y0181591D01*
X0174026Y0181437D01*
X0174012Y0181284D01*
X0173993Y0181132D01*
X0173971Y0180980D01*
X0173945Y0180828D01*
X0173915Y0180677D01*
X0173882Y0180527D01*
X0173844Y0180378D01*
X0173803Y0180230D01*
X0173758Y0180083D01*
X0173709Y0179938D01*
X0173657Y0179793D01*
X0173600Y0179650D01*
X0173541Y0179508D01*
X0173477Y0179368D01*
X0173411Y0179230D01*
X0173340Y0179093D01*
X0173266Y0178958D01*
X0173189Y0178826D01*
X0173109Y0178695D01*
X0173025Y0178566D01*
X0172938Y0178439D01*
X0172848Y0178315D01*
X0172754Y0178193D01*
X0172658Y0178073D01*
X0172558Y0177956D01*
X0172456Y0177841D01*
X0172350Y0177729D01*
X0172242Y0177620D01*
X0172131Y0177514D01*
X0172018Y0177410D01*
X0171902Y0177309D01*
X0171783Y0177212D01*
X0171662Y0177117D01*
X0171539Y0177026D01*
X0171506Y0177071D01*
X0171628Y0177162D01*
X0171748Y0177256D01*
X0171866Y0177352D01*
X0171981Y0177452D01*
X0172093Y0177555D01*
X0172203Y0177660D01*
X0172310Y0177768D01*
X0172415Y0177879D01*
X0172516Y0177993D01*
X0172615Y0178109D01*
X0172710Y0178227D01*
X0172803Y0178348D01*
X0172892Y0178472D01*
X0172978Y0178597D01*
X0173061Y0178725D01*
X0173141Y0178854D01*
X0173218Y0178986D01*
X0173291Y0179120D01*
X0173360Y0179255D01*
X0173427Y0179392D01*
X0173489Y0179531D01*
X0173549Y0179671D01*
X0173604Y0179813D01*
X0173656Y0179956D01*
X0173704Y0180100D01*
X0173749Y0180246D01*
X0173790Y0180393D01*
X0173827Y0180540D01*
X0173860Y0180689D01*
X0173890Y0180838D01*
X0173916Y0180988D01*
X0173938Y0181139D01*
X0173956Y0181290D01*
X0173970Y0181442D01*
X0173981Y0181594D01*
X0173987Y0181746D01*
X0173990Y0181898D01*
X0173934Y0181898D01*
X0173931Y0181747D01*
X0173925Y0181596D01*
X0173914Y0181446D01*
X0173900Y0181296D01*
X0173882Y0181146D01*
X0173860Y0180997D01*
X0173835Y0180848D01*
X0173806Y0180700D01*
X0173773Y0180553D01*
X0173736Y0180407D01*
X0173695Y0180262D01*
X0173651Y0180117D01*
X0173603Y0179974D01*
X0173552Y0179833D01*
X0173497Y0179692D01*
X0173438Y0179553D01*
X0173376Y0179416D01*
X0173310Y0179280D01*
X0173241Y0179146D01*
X0173169Y0179013D01*
X0173093Y0178883D01*
X0173014Y0178755D01*
X0172932Y0178628D01*
X0172846Y0178504D01*
X0172758Y0178382D01*
X0172666Y0178262D01*
X0172572Y0178145D01*
X0172474Y0178030D01*
X0172373Y0177917D01*
X0172270Y0177807D01*
X0172164Y0177700D01*
X0172055Y0177596D01*
X0171944Y0177494D01*
X0171830Y0177395D01*
X0171713Y0177299D01*
X0171595Y0177207D01*
X0171473Y0177117D01*
X0171441Y0177162D01*
X0171561Y0177251D01*
X0171679Y0177343D01*
X0171794Y0177438D01*
X0171907Y0177536D01*
X0172017Y0177637D01*
X0172125Y0177740D01*
X0172230Y0177846D01*
X0172332Y0177955D01*
X0172432Y0178067D01*
X0172528Y0178181D01*
X0172622Y0178297D01*
X0172713Y0178415D01*
X0172801Y0178536D01*
X0172885Y0178659D01*
X0172967Y0178785D01*
X0173045Y0178912D01*
X0173120Y0179041D01*
X0173192Y0179172D01*
X0173260Y0179305D01*
X0173325Y0179439D01*
X0173387Y0179576D01*
X0173445Y0179713D01*
X0173499Y0179852D01*
X0173550Y0179993D01*
X0173598Y0180134D01*
X0173641Y0180277D01*
X0173682Y0180421D01*
X0173718Y0180566D01*
X0173751Y0180712D01*
X0173780Y0180858D01*
X0173805Y0181005D01*
X0173827Y0181153D01*
X0173845Y0181302D01*
X0173859Y0181450D01*
X0173869Y0181599D01*
X0173875Y0181749D01*
X0173878Y0181898D01*
X0173822Y0181898D01*
X0173819Y0181746D01*
X0173812Y0181594D01*
X0173802Y0181442D01*
X0173787Y0181291D01*
X0173768Y0181140D01*
X0173746Y0180990D01*
X0173719Y0180840D01*
X0173689Y0180691D01*
X0173655Y0180543D01*
X0173617Y0180396D01*
X0173575Y0180249D01*
X0173529Y0180104D01*
X0173480Y0179961D01*
X0173426Y0179818D01*
X0173369Y0179677D01*
X0173309Y0179538D01*
X0173245Y0179400D01*
X0173177Y0179264D01*
X0173105Y0179130D01*
X0173031Y0178997D01*
X0172952Y0178867D01*
X0172871Y0178739D01*
X0172786Y0178612D01*
X0172697Y0178489D01*
X0172606Y0178367D01*
X0172512Y0178248D01*
X0172414Y0178132D01*
X0172313Y0178018D01*
X0172210Y0177906D01*
X0172103Y0177798D01*
X0171994Y0177692D01*
X0171882Y0177589D01*
X0171767Y0177489D01*
X0171650Y0177392D01*
X0171530Y0177299D01*
X0171408Y0177208D01*
X0171376Y0177253D01*
X0171497Y0177343D01*
X0171615Y0177436D01*
X0171731Y0177532D01*
X0171845Y0177631D01*
X0171956Y0177733D01*
X0172064Y0177838D01*
X0172169Y0177945D01*
X0172272Y0178055D01*
X0172372Y0178168D01*
X0172468Y0178284D01*
X0172562Y0178401D01*
X0172652Y0178522D01*
X0172740Y0178644D01*
X0172824Y0178769D01*
X0172905Y0178896D01*
X0172982Y0179025D01*
X0173056Y0179157D01*
X0173127Y0179290D01*
X0173194Y0179424D01*
X0173258Y0179561D01*
X0173318Y0179699D01*
X0173374Y0179838D01*
X0173427Y0179980D01*
X0173476Y0180122D01*
X0173521Y0180265D01*
X0173563Y0180410D01*
X0173600Y0180556D01*
X0173634Y0180703D01*
X0173664Y0180850D01*
X0173691Y0180998D01*
X0173713Y0181147D01*
X0173731Y0181297D01*
X0173746Y0181447D01*
X0173756Y0181597D01*
X0173763Y0181747D01*
X0173766Y0181898D01*
X0161731Y0181898D02*
X0162271Y0181898D01*
X0162270Y0181898D02*
X0162273Y0181751D01*
X0162279Y0181604D01*
X0162289Y0181457D01*
X0162303Y0181310D01*
X0162321Y0181164D01*
X0162343Y0181018D01*
X0162368Y0180873D01*
X0162397Y0180729D01*
X0162429Y0180585D01*
X0162466Y0180443D01*
X0162506Y0180301D01*
X0162549Y0180161D01*
X0162597Y0180021D01*
X0162647Y0179883D01*
X0162702Y0179746D01*
X0162760Y0179611D01*
X0162821Y0179477D01*
X0162885Y0179344D01*
X0162954Y0179214D01*
X0163025Y0179085D01*
X0163100Y0178958D01*
X0163178Y0178833D01*
X0163259Y0178711D01*
X0163343Y0178590D01*
X0163430Y0178471D01*
X0163520Y0178355D01*
X0163614Y0178241D01*
X0163710Y0178130D01*
X0163809Y0178021D01*
X0163911Y0177914D01*
X0164015Y0177810D01*
X0164122Y0177709D01*
X0164232Y0177611D01*
X0164344Y0177516D01*
X0164459Y0177423D01*
X0164128Y0176998D01*
X0164127Y0176997D01*
X0164005Y0177095D01*
X0163885Y0177197D01*
X0163768Y0177301D01*
X0163654Y0177408D01*
X0163542Y0177519D01*
X0163434Y0177631D01*
X0163328Y0177747D01*
X0163225Y0177865D01*
X0163124Y0177986D01*
X0163027Y0178109D01*
X0162933Y0178234D01*
X0162843Y0178362D01*
X0162755Y0178492D01*
X0162671Y0178624D01*
X0162590Y0178759D01*
X0162512Y0178895D01*
X0162438Y0179033D01*
X0162368Y0179173D01*
X0162301Y0179315D01*
X0162237Y0179458D01*
X0162177Y0179603D01*
X0162121Y0179749D01*
X0162068Y0179897D01*
X0162019Y0180046D01*
X0161974Y0180196D01*
X0161933Y0180347D01*
X0161895Y0180500D01*
X0161861Y0180653D01*
X0161831Y0180807D01*
X0161805Y0180961D01*
X0161783Y0181116D01*
X0161764Y0181272D01*
X0161750Y0181428D01*
X0161739Y0181585D01*
X0161733Y0181741D01*
X0161730Y0181898D01*
X0161786Y0181898D01*
X0161789Y0181743D01*
X0161795Y0181587D01*
X0161806Y0181432D01*
X0161820Y0181278D01*
X0161838Y0181123D01*
X0161860Y0180970D01*
X0161886Y0180816D01*
X0161916Y0180664D01*
X0161949Y0180512D01*
X0161987Y0180361D01*
X0162028Y0180211D01*
X0162073Y0180063D01*
X0162121Y0179915D01*
X0162173Y0179769D01*
X0162229Y0179624D01*
X0162288Y0179480D01*
X0162351Y0179338D01*
X0162418Y0179198D01*
X0162488Y0179059D01*
X0162561Y0178922D01*
X0162638Y0178787D01*
X0162718Y0178654D01*
X0162802Y0178523D01*
X0162889Y0178394D01*
X0162979Y0178267D01*
X0163072Y0178143D01*
X0163168Y0178021D01*
X0163267Y0177901D01*
X0163369Y0177784D01*
X0163474Y0177670D01*
X0163582Y0177558D01*
X0163693Y0177449D01*
X0163806Y0177343D01*
X0163922Y0177239D01*
X0164041Y0177139D01*
X0164162Y0177041D01*
X0164196Y0177086D01*
X0164076Y0177182D01*
X0163959Y0177282D01*
X0163844Y0177384D01*
X0163731Y0177489D01*
X0163622Y0177598D01*
X0163515Y0177708D01*
X0163411Y0177822D01*
X0163310Y0177938D01*
X0163211Y0178056D01*
X0163116Y0178177D01*
X0163024Y0178301D01*
X0162935Y0178426D01*
X0162849Y0178554D01*
X0162766Y0178684D01*
X0162687Y0178815D01*
X0162610Y0178949D01*
X0162538Y0179085D01*
X0162468Y0179222D01*
X0162402Y0179361D01*
X0162340Y0179502D01*
X0162281Y0179644D01*
X0162226Y0179788D01*
X0162174Y0179933D01*
X0162126Y0180079D01*
X0162082Y0180227D01*
X0162041Y0180375D01*
X0162004Y0180525D01*
X0161971Y0180675D01*
X0161941Y0180826D01*
X0161916Y0180978D01*
X0161894Y0181130D01*
X0161876Y0181283D01*
X0161862Y0181437D01*
X0161851Y0181590D01*
X0161845Y0181744D01*
X0161842Y0181898D01*
X0161898Y0181898D01*
X0161901Y0181745D01*
X0161907Y0181593D01*
X0161917Y0181441D01*
X0161932Y0181289D01*
X0161949Y0181137D01*
X0161971Y0180986D01*
X0161996Y0180836D01*
X0162026Y0180686D01*
X0162059Y0180537D01*
X0162095Y0180389D01*
X0162135Y0180242D01*
X0162179Y0180096D01*
X0162227Y0179951D01*
X0162278Y0179808D01*
X0162333Y0179665D01*
X0162391Y0179524D01*
X0162453Y0179385D01*
X0162519Y0179247D01*
X0162587Y0179111D01*
X0162659Y0178976D01*
X0162735Y0178844D01*
X0162814Y0178713D01*
X0162896Y0178585D01*
X0162981Y0178458D01*
X0163069Y0178334D01*
X0163160Y0178211D01*
X0163255Y0178092D01*
X0163352Y0177974D01*
X0163452Y0177859D01*
X0163556Y0177747D01*
X0163661Y0177637D01*
X0163770Y0177530D01*
X0163881Y0177426D01*
X0163995Y0177324D01*
X0164112Y0177225D01*
X0164230Y0177130D01*
X0164265Y0177174D01*
X0164147Y0177269D01*
X0164032Y0177367D01*
X0163919Y0177467D01*
X0163809Y0177571D01*
X0163701Y0177677D01*
X0163596Y0177785D01*
X0163494Y0177897D01*
X0163395Y0178011D01*
X0163298Y0178127D01*
X0163205Y0178246D01*
X0163114Y0178367D01*
X0163027Y0178490D01*
X0162942Y0178615D01*
X0162861Y0178743D01*
X0162783Y0178872D01*
X0162708Y0179003D01*
X0162637Y0179137D01*
X0162569Y0179272D01*
X0162504Y0179408D01*
X0162443Y0179546D01*
X0162385Y0179686D01*
X0162331Y0179827D01*
X0162280Y0179969D01*
X0162233Y0180113D01*
X0162189Y0180258D01*
X0162149Y0180403D01*
X0162113Y0180550D01*
X0162081Y0180698D01*
X0162052Y0180846D01*
X0162026Y0180995D01*
X0162005Y0181145D01*
X0161987Y0181295D01*
X0161973Y0181445D01*
X0161963Y0181596D01*
X0161957Y0181747D01*
X0161954Y0181898D01*
X0162010Y0181898D01*
X0162013Y0181744D01*
X0162020Y0181590D01*
X0162030Y0181437D01*
X0162045Y0181283D01*
X0162063Y0181130D01*
X0162086Y0180978D01*
X0162112Y0180826D01*
X0162142Y0180675D01*
X0162177Y0180525D01*
X0162215Y0180376D01*
X0162256Y0180228D01*
X0162302Y0180081D01*
X0162351Y0179935D01*
X0162404Y0179790D01*
X0162461Y0179647D01*
X0162522Y0179506D01*
X0162586Y0179366D01*
X0162653Y0179227D01*
X0162725Y0179091D01*
X0162799Y0178956D01*
X0162877Y0178823D01*
X0162959Y0178693D01*
X0163044Y0178564D01*
X0163132Y0178438D01*
X0163223Y0178314D01*
X0163318Y0178192D01*
X0163415Y0178073D01*
X0163516Y0177957D01*
X0163619Y0177843D01*
X0163726Y0177731D01*
X0163835Y0177623D01*
X0163947Y0177517D01*
X0164062Y0177415D01*
X0164179Y0177315D01*
X0164299Y0177218D01*
X0164333Y0177262D01*
X0164215Y0177358D01*
X0164099Y0177457D01*
X0163985Y0177559D01*
X0163874Y0177663D01*
X0163766Y0177771D01*
X0163660Y0177881D01*
X0163558Y0177994D01*
X0163458Y0178109D01*
X0163361Y0178227D01*
X0163268Y0178348D01*
X0163177Y0178471D01*
X0163090Y0178596D01*
X0163006Y0178723D01*
X0162925Y0178852D01*
X0162848Y0178984D01*
X0162774Y0179117D01*
X0162703Y0179252D01*
X0162636Y0179389D01*
X0162573Y0179528D01*
X0162513Y0179668D01*
X0162457Y0179810D01*
X0162404Y0179953D01*
X0162355Y0180098D01*
X0162310Y0180244D01*
X0162269Y0180390D01*
X0162231Y0180538D01*
X0162197Y0180687D01*
X0162167Y0180836D01*
X0162141Y0180987D01*
X0162119Y0181138D01*
X0162100Y0181289D01*
X0162086Y0181441D01*
X0162075Y0181593D01*
X0162069Y0181745D01*
X0162066Y0181898D01*
X0162122Y0181898D01*
X0162125Y0181747D01*
X0162131Y0181596D01*
X0162142Y0181445D01*
X0162156Y0181295D01*
X0162174Y0181145D01*
X0162196Y0180995D01*
X0162222Y0180847D01*
X0162252Y0180698D01*
X0162286Y0180551D01*
X0162323Y0180405D01*
X0162364Y0180259D01*
X0162409Y0180115D01*
X0162457Y0179972D01*
X0162509Y0179830D01*
X0162565Y0179690D01*
X0162624Y0179551D01*
X0162687Y0179413D01*
X0162753Y0179278D01*
X0162823Y0179144D01*
X0162896Y0179012D01*
X0162973Y0178881D01*
X0163053Y0178753D01*
X0163136Y0178627D01*
X0163223Y0178503D01*
X0163312Y0178382D01*
X0163405Y0178262D01*
X0163501Y0178145D01*
X0163599Y0178031D01*
X0163701Y0177919D01*
X0163805Y0177810D01*
X0163913Y0177704D01*
X0164023Y0177600D01*
X0164135Y0177499D01*
X0164250Y0177401D01*
X0164368Y0177307D01*
X0164402Y0177351D01*
X0164286Y0177445D01*
X0164172Y0177542D01*
X0164060Y0177641D01*
X0163951Y0177744D01*
X0163845Y0177850D01*
X0163742Y0177958D01*
X0163641Y0178068D01*
X0163544Y0178182D01*
X0163449Y0178297D01*
X0163357Y0178416D01*
X0163268Y0178536D01*
X0163183Y0178659D01*
X0163100Y0178784D01*
X0163021Y0178911D01*
X0162945Y0179039D01*
X0162873Y0179170D01*
X0162803Y0179303D01*
X0162738Y0179437D01*
X0162675Y0179573D01*
X0162617Y0179711D01*
X0162561Y0179850D01*
X0162510Y0179991D01*
X0162462Y0180132D01*
X0162418Y0180275D01*
X0162377Y0180419D01*
X0162340Y0180564D01*
X0162307Y0180710D01*
X0162277Y0180857D01*
X0162252Y0181004D01*
X0162230Y0181152D01*
X0162212Y0181301D01*
X0162198Y0181450D01*
X0162187Y0181599D01*
X0162181Y0181748D01*
X0162178Y0181898D01*
X0162234Y0181898D01*
X0162237Y0181750D01*
X0162243Y0181602D01*
X0162254Y0181454D01*
X0162268Y0181307D01*
X0162285Y0181159D01*
X0162307Y0181013D01*
X0162332Y0180867D01*
X0162362Y0180722D01*
X0162394Y0180577D01*
X0162431Y0180434D01*
X0162471Y0180291D01*
X0162515Y0180149D01*
X0162563Y0180009D01*
X0162614Y0179870D01*
X0162668Y0179732D01*
X0162727Y0179596D01*
X0162788Y0179461D01*
X0162853Y0179328D01*
X0162922Y0179197D01*
X0162994Y0179067D01*
X0163069Y0178940D01*
X0163147Y0178814D01*
X0163229Y0178690D01*
X0163314Y0178569D01*
X0163401Y0178449D01*
X0163492Y0178332D01*
X0163586Y0178218D01*
X0163683Y0178106D01*
X0163783Y0177996D01*
X0163885Y0177889D01*
X0163990Y0177784D01*
X0164098Y0177683D01*
X0164208Y0177584D01*
X0164321Y0177488D01*
X0164437Y0177395D01*
D19*
X0176449Y0181977D02*
X0175549Y0181977D01*
X0175550Y0181977D02*
X0175546Y0182160D01*
X0175539Y0182343D01*
X0175526Y0182526D01*
X0175509Y0182709D01*
X0175488Y0182891D01*
X0175463Y0183072D01*
X0175433Y0183253D01*
X0175398Y0183433D01*
X0175360Y0183612D01*
X0175317Y0183790D01*
X0175269Y0183967D01*
X0175218Y0184142D01*
X0175162Y0184317D01*
X0175102Y0184490D01*
X0175037Y0184661D01*
X0174969Y0184831D01*
X0174897Y0185000D01*
X0174820Y0185166D01*
X0174739Y0185330D01*
X0174655Y0185493D01*
X0174566Y0185653D01*
X0174474Y0185812D01*
X0174378Y0185968D01*
X0174278Y0186121D01*
X0174174Y0186272D01*
X0174067Y0186421D01*
X0173956Y0186567D01*
X0173842Y0186710D01*
X0173724Y0186850D01*
X0173603Y0186987D01*
X0173479Y0187122D01*
X0173351Y0187253D01*
X0173220Y0187382D01*
X0173086Y0187507D01*
X0172950Y0187628D01*
X0172810Y0187747D01*
X0172667Y0187862D01*
X0172522Y0187973D01*
X0172374Y0188081D01*
X0172223Y0188185D01*
X0172070Y0188286D01*
X0171915Y0188383D01*
X0171757Y0188476D01*
X0171597Y0188565D01*
X0172020Y0189359D01*
X0172200Y0189259D01*
X0172377Y0189155D01*
X0172551Y0189047D01*
X0172723Y0188934D01*
X0172891Y0188817D01*
X0173057Y0188696D01*
X0173220Y0188572D01*
X0173380Y0188443D01*
X0173537Y0188310D01*
X0173690Y0188174D01*
X0173840Y0188034D01*
X0173987Y0187890D01*
X0174130Y0187743D01*
X0174270Y0187592D01*
X0174405Y0187438D01*
X0174537Y0187281D01*
X0174665Y0187121D01*
X0174790Y0186957D01*
X0174910Y0186791D01*
X0175026Y0186621D01*
X0175138Y0186449D01*
X0175246Y0186275D01*
X0175349Y0186097D01*
X0175448Y0185918D01*
X0175543Y0185735D01*
X0175633Y0185551D01*
X0175719Y0185365D01*
X0175800Y0185176D01*
X0175877Y0184986D01*
X0175949Y0184793D01*
X0176016Y0184599D01*
X0176079Y0184404D01*
X0176137Y0184207D01*
X0176190Y0184009D01*
X0176238Y0183809D01*
X0176281Y0183608D01*
X0176319Y0183407D01*
X0176353Y0183204D01*
X0176381Y0183001D01*
X0176405Y0182797D01*
X0176424Y0182592D01*
X0176437Y0182388D01*
X0176446Y0182183D01*
X0176450Y0181977D01*
X0176356Y0181977D01*
X0176352Y0182180D01*
X0176344Y0182383D01*
X0176330Y0182586D01*
X0176312Y0182788D01*
X0176288Y0182989D01*
X0176260Y0183190D01*
X0176227Y0183391D01*
X0176189Y0183590D01*
X0176146Y0183788D01*
X0176098Y0183986D01*
X0176046Y0184182D01*
X0175989Y0184377D01*
X0175927Y0184570D01*
X0175860Y0184762D01*
X0175789Y0184952D01*
X0175714Y0185140D01*
X0175633Y0185326D01*
X0175548Y0185511D01*
X0175459Y0185693D01*
X0175365Y0185873D01*
X0175267Y0186051D01*
X0175165Y0186226D01*
X0175059Y0186399D01*
X0174948Y0186569D01*
X0174833Y0186737D01*
X0174714Y0186901D01*
X0174591Y0187063D01*
X0174465Y0187221D01*
X0174334Y0187377D01*
X0174200Y0187529D01*
X0174062Y0187678D01*
X0173921Y0187824D01*
X0173776Y0187966D01*
X0173627Y0188104D01*
X0173476Y0188239D01*
X0173321Y0188370D01*
X0173163Y0188497D01*
X0173001Y0188621D01*
X0172837Y0188740D01*
X0172670Y0188856D01*
X0172501Y0188967D01*
X0172328Y0189075D01*
X0172153Y0189178D01*
X0171976Y0189276D01*
X0171932Y0189193D01*
X0172107Y0189096D01*
X0172280Y0188994D01*
X0172450Y0188888D01*
X0172618Y0188778D01*
X0172783Y0188664D01*
X0172945Y0188545D01*
X0173105Y0188423D01*
X0173261Y0188297D01*
X0173414Y0188168D01*
X0173564Y0188034D01*
X0173711Y0187898D01*
X0173854Y0187757D01*
X0173994Y0187613D01*
X0174130Y0187466D01*
X0174263Y0187315D01*
X0174392Y0187162D01*
X0174517Y0187005D01*
X0174639Y0186845D01*
X0174756Y0186682D01*
X0174870Y0186517D01*
X0174979Y0186349D01*
X0175085Y0186178D01*
X0175186Y0186005D01*
X0175283Y0185829D01*
X0175375Y0185651D01*
X0175463Y0185471D01*
X0175547Y0185288D01*
X0175627Y0185104D01*
X0175702Y0184918D01*
X0175772Y0184730D01*
X0175838Y0184540D01*
X0175899Y0184349D01*
X0175955Y0184157D01*
X0176007Y0183963D01*
X0176054Y0183768D01*
X0176097Y0183572D01*
X0176134Y0183374D01*
X0176167Y0183176D01*
X0176195Y0182978D01*
X0176218Y0182778D01*
X0176236Y0182579D01*
X0176250Y0182378D01*
X0176258Y0182178D01*
X0176262Y0181977D01*
X0176168Y0181977D01*
X0176164Y0182176D01*
X0176156Y0182374D01*
X0176143Y0182572D01*
X0176124Y0182769D01*
X0176102Y0182966D01*
X0176074Y0183163D01*
X0176042Y0183358D01*
X0176004Y0183553D01*
X0175963Y0183747D01*
X0175916Y0183940D01*
X0175865Y0184132D01*
X0175809Y0184322D01*
X0175749Y0184511D01*
X0175684Y0184698D01*
X0175614Y0184884D01*
X0175540Y0185068D01*
X0175461Y0185250D01*
X0175378Y0185430D01*
X0175291Y0185609D01*
X0175200Y0185785D01*
X0175104Y0185958D01*
X0175004Y0186130D01*
X0174900Y0186298D01*
X0174792Y0186465D01*
X0174679Y0186628D01*
X0174563Y0186789D01*
X0174443Y0186947D01*
X0174319Y0187102D01*
X0174192Y0187254D01*
X0174061Y0187403D01*
X0173926Y0187548D01*
X0173788Y0187691D01*
X0173646Y0187829D01*
X0173501Y0187965D01*
X0173353Y0188097D01*
X0173201Y0188225D01*
X0173047Y0188349D01*
X0172890Y0188470D01*
X0172729Y0188587D01*
X0172566Y0188700D01*
X0172400Y0188808D01*
X0172232Y0188913D01*
X0172061Y0189014D01*
X0171888Y0189110D01*
X0171843Y0189028D01*
X0172015Y0188932D01*
X0172184Y0188833D01*
X0172350Y0188729D01*
X0172514Y0188621D01*
X0172675Y0188510D01*
X0172834Y0188394D01*
X0172989Y0188275D01*
X0173142Y0188152D01*
X0173291Y0188025D01*
X0173438Y0187895D01*
X0173581Y0187761D01*
X0173721Y0187624D01*
X0173858Y0187483D01*
X0173991Y0187340D01*
X0174121Y0187193D01*
X0174247Y0187042D01*
X0174369Y0186889D01*
X0174488Y0186733D01*
X0174603Y0186574D01*
X0174713Y0186412D01*
X0174820Y0186248D01*
X0174923Y0186081D01*
X0175022Y0185912D01*
X0175117Y0185740D01*
X0175207Y0185566D01*
X0175294Y0185390D01*
X0175375Y0185212D01*
X0175453Y0185032D01*
X0175526Y0184850D01*
X0175595Y0184667D01*
X0175659Y0184481D01*
X0175719Y0184295D01*
X0175774Y0184107D01*
X0175825Y0183917D01*
X0175871Y0183727D01*
X0175912Y0183535D01*
X0175949Y0183342D01*
X0175981Y0183149D01*
X0176008Y0182955D01*
X0176031Y0182760D01*
X0176049Y0182565D01*
X0176062Y0182369D01*
X0176070Y0182173D01*
X0176074Y0181977D01*
X0175980Y0181977D01*
X0175976Y0182171D01*
X0175968Y0182365D01*
X0175955Y0182558D01*
X0175937Y0182751D01*
X0175915Y0182943D01*
X0175888Y0183135D01*
X0175856Y0183326D01*
X0175820Y0183517D01*
X0175779Y0183706D01*
X0175734Y0183894D01*
X0175684Y0184081D01*
X0175629Y0184267D01*
X0175570Y0184452D01*
X0175507Y0184635D01*
X0175439Y0184816D01*
X0175366Y0184996D01*
X0175290Y0185174D01*
X0175209Y0185350D01*
X0175123Y0185524D01*
X0175034Y0185696D01*
X0174940Y0185866D01*
X0174843Y0186033D01*
X0174741Y0186198D01*
X0174635Y0186360D01*
X0174526Y0186520D01*
X0174412Y0186677D01*
X0174295Y0186831D01*
X0174174Y0186983D01*
X0174050Y0187131D01*
X0173922Y0187276D01*
X0173790Y0187419D01*
X0173655Y0187558D01*
X0173517Y0187693D01*
X0173375Y0187825D01*
X0173230Y0187954D01*
X0173082Y0188079D01*
X0172931Y0188201D01*
X0172778Y0188319D01*
X0172621Y0188433D01*
X0172462Y0188543D01*
X0172300Y0188649D01*
X0172135Y0188752D01*
X0171968Y0188850D01*
X0171799Y0188945D01*
X0171755Y0188862D01*
X0171922Y0188768D01*
X0172087Y0188671D01*
X0172250Y0188570D01*
X0172410Y0188465D01*
X0172567Y0188356D01*
X0172722Y0188243D01*
X0172874Y0188127D01*
X0173023Y0188007D01*
X0173169Y0187883D01*
X0173312Y0187756D01*
X0173452Y0187625D01*
X0173588Y0187491D01*
X0173722Y0187354D01*
X0173852Y0187213D01*
X0173979Y0187070D01*
X0174102Y0186923D01*
X0174221Y0186773D01*
X0174337Y0186621D01*
X0174449Y0186466D01*
X0174557Y0186308D01*
X0174662Y0186147D01*
X0174762Y0185984D01*
X0174859Y0185819D01*
X0174951Y0185652D01*
X0175039Y0185482D01*
X0175124Y0185310D01*
X0175204Y0185136D01*
X0175279Y0184960D01*
X0175351Y0184782D01*
X0175418Y0184603D01*
X0175481Y0184422D01*
X0175539Y0184240D01*
X0175593Y0184056D01*
X0175643Y0183871D01*
X0175687Y0183685D01*
X0175728Y0183498D01*
X0175764Y0183310D01*
X0175795Y0183121D01*
X0175822Y0182932D01*
X0175844Y0182742D01*
X0175861Y0182551D01*
X0175874Y0182360D01*
X0175882Y0182169D01*
X0175886Y0181977D01*
X0175792Y0181977D01*
X0175788Y0182166D01*
X0175780Y0182355D01*
X0175768Y0182544D01*
X0175750Y0182732D01*
X0175728Y0182920D01*
X0175702Y0183107D01*
X0175671Y0183294D01*
X0175636Y0183480D01*
X0175596Y0183665D01*
X0175551Y0183849D01*
X0175502Y0184031D01*
X0175449Y0184213D01*
X0175392Y0184393D01*
X0175330Y0184571D01*
X0175263Y0184749D01*
X0175193Y0184924D01*
X0175118Y0185098D01*
X0175039Y0185270D01*
X0174955Y0185439D01*
X0174868Y0185607D01*
X0174777Y0185773D01*
X0174681Y0185936D01*
X0174582Y0186097D01*
X0174479Y0186256D01*
X0174372Y0186412D01*
X0174261Y0186565D01*
X0174147Y0186716D01*
X0174029Y0186863D01*
X0173907Y0187008D01*
X0173782Y0187150D01*
X0173654Y0187289D01*
X0173522Y0187424D01*
X0173387Y0187557D01*
X0173249Y0187686D01*
X0173107Y0187812D01*
X0172963Y0187934D01*
X0172816Y0188053D01*
X0172666Y0188168D01*
X0172513Y0188279D01*
X0172357Y0188387D01*
X0172199Y0188491D01*
X0172039Y0188591D01*
X0171876Y0188687D01*
X0171711Y0188779D01*
X0171666Y0188696D01*
X0171830Y0188605D01*
X0171991Y0188510D01*
X0172149Y0188411D01*
X0172305Y0188309D01*
X0172459Y0188202D01*
X0172610Y0188092D01*
X0172758Y0187978D01*
X0172904Y0187861D01*
X0173046Y0187740D01*
X0173186Y0187616D01*
X0173322Y0187489D01*
X0173456Y0187358D01*
X0173586Y0187224D01*
X0173713Y0187087D01*
X0173836Y0186947D01*
X0173956Y0186804D01*
X0174073Y0186658D01*
X0174186Y0186509D01*
X0174295Y0186357D01*
X0174401Y0186203D01*
X0174503Y0186047D01*
X0174601Y0185888D01*
X0174695Y0185726D01*
X0174785Y0185563D01*
X0174872Y0185397D01*
X0174954Y0185229D01*
X0175032Y0185060D01*
X0175106Y0184888D01*
X0175175Y0184715D01*
X0175241Y0184540D01*
X0175302Y0184363D01*
X0175359Y0184185D01*
X0175412Y0184006D01*
X0175460Y0183826D01*
X0175504Y0183644D01*
X0175544Y0183461D01*
X0175579Y0183278D01*
X0175609Y0183094D01*
X0175635Y0182909D01*
X0175657Y0182723D01*
X0175674Y0182537D01*
X0175686Y0182351D01*
X0175694Y0182164D01*
X0175698Y0181977D01*
X0175604Y0181977D01*
X0175600Y0182162D01*
X0175592Y0182346D01*
X0175580Y0182530D01*
X0175563Y0182714D01*
X0175542Y0182897D01*
X0175516Y0183080D01*
X0175486Y0183262D01*
X0175451Y0183443D01*
X0175412Y0183623D01*
X0175369Y0183803D01*
X0175321Y0183981D01*
X0175269Y0184158D01*
X0175213Y0184334D01*
X0175153Y0184508D01*
X0175088Y0184681D01*
X0175019Y0184852D01*
X0174946Y0185021D01*
X0174869Y0185189D01*
X0174788Y0185355D01*
X0174702Y0185518D01*
X0174613Y0185680D01*
X0174520Y0185839D01*
X0174423Y0185996D01*
X0174323Y0186151D01*
X0174218Y0186303D01*
X0174110Y0186453D01*
X0173999Y0186600D01*
X0173884Y0186744D01*
X0173765Y0186885D01*
X0173643Y0187024D01*
X0173518Y0187159D01*
X0173389Y0187291D01*
X0173257Y0187421D01*
X0173123Y0187547D01*
X0172985Y0187669D01*
X0172844Y0187788D01*
X0172700Y0187904D01*
X0172554Y0188017D01*
X0172405Y0188125D01*
X0172253Y0188230D01*
X0172099Y0188332D01*
X0171942Y0188429D01*
X0171783Y0188523D01*
X0171622Y0188613D01*
X0163765Y0189239D02*
X0164211Y0188458D01*
X0164054Y0188365D01*
X0163900Y0188268D01*
X0163748Y0188167D01*
X0163599Y0188062D01*
X0163452Y0187954D01*
X0163307Y0187843D01*
X0163166Y0187728D01*
X0163027Y0187609D01*
X0162892Y0187487D01*
X0162759Y0187362D01*
X0162629Y0187234D01*
X0162503Y0187103D01*
X0162379Y0186969D01*
X0162259Y0186832D01*
X0162142Y0186692D01*
X0162029Y0186549D01*
X0161919Y0186403D01*
X0161813Y0186255D01*
X0161710Y0186104D01*
X0161611Y0185951D01*
X0161516Y0185796D01*
X0161425Y0185638D01*
X0161337Y0185478D01*
X0161253Y0185316D01*
X0161173Y0185153D01*
X0161097Y0184987D01*
X0161026Y0184819D01*
X0160958Y0184650D01*
X0160894Y0184479D01*
X0160835Y0184307D01*
X0160779Y0184133D01*
X0160728Y0183958D01*
X0160681Y0183782D01*
X0160639Y0183605D01*
X0160600Y0183426D01*
X0160566Y0183247D01*
X0160536Y0183067D01*
X0160511Y0182887D01*
X0160490Y0182706D01*
X0160474Y0182524D01*
X0160461Y0182342D01*
X0160454Y0182160D01*
X0160450Y0181978D01*
X0159551Y0181977D01*
X0159550Y0181978D01*
X0159554Y0182182D01*
X0159562Y0182386D01*
X0159576Y0182590D01*
X0159594Y0182794D01*
X0159618Y0182997D01*
X0159646Y0183199D01*
X0159679Y0183401D01*
X0159717Y0183601D01*
X0159760Y0183801D01*
X0159808Y0184000D01*
X0159860Y0184197D01*
X0159918Y0184393D01*
X0159980Y0184588D01*
X0160046Y0184781D01*
X0160118Y0184973D01*
X0160194Y0185162D01*
X0160274Y0185350D01*
X0160359Y0185536D01*
X0160449Y0185720D01*
X0160542Y0185901D01*
X0160641Y0186080D01*
X0160743Y0186257D01*
X0160850Y0186431D01*
X0160961Y0186603D01*
X0161076Y0186772D01*
X0161195Y0186938D01*
X0161318Y0187101D01*
X0161445Y0187261D01*
X0161576Y0187418D01*
X0161711Y0187572D01*
X0161849Y0187722D01*
X0161991Y0187869D01*
X0162136Y0188013D01*
X0162285Y0188153D01*
X0162437Y0188289D01*
X0162593Y0188422D01*
X0162751Y0188550D01*
X0162913Y0188675D01*
X0163078Y0188796D01*
X0163245Y0188913D01*
X0163416Y0189026D01*
X0163589Y0189135D01*
X0163764Y0189240D01*
X0163811Y0189158D01*
X0163637Y0189055D01*
X0163466Y0188947D01*
X0163298Y0188835D01*
X0163132Y0188720D01*
X0162969Y0188600D01*
X0162810Y0188476D01*
X0162653Y0188349D01*
X0162499Y0188218D01*
X0162349Y0188083D01*
X0162201Y0187945D01*
X0162058Y0187803D01*
X0161917Y0187657D01*
X0161781Y0187509D01*
X0161648Y0187357D01*
X0161518Y0187201D01*
X0161393Y0187043D01*
X0161271Y0186882D01*
X0161153Y0186718D01*
X0161039Y0186551D01*
X0160930Y0186381D01*
X0160824Y0186209D01*
X0160723Y0186034D01*
X0160625Y0185857D01*
X0160533Y0185678D01*
X0160444Y0185496D01*
X0160360Y0185312D01*
X0160280Y0185127D01*
X0160205Y0184939D01*
X0160135Y0184750D01*
X0160069Y0184559D01*
X0160008Y0184366D01*
X0159951Y0184172D01*
X0159899Y0183977D01*
X0159852Y0183781D01*
X0159810Y0183583D01*
X0159772Y0183385D01*
X0159739Y0183185D01*
X0159711Y0182985D01*
X0159688Y0182784D01*
X0159670Y0182583D01*
X0159656Y0182382D01*
X0159648Y0182180D01*
X0159644Y0181978D01*
X0159738Y0181978D01*
X0159742Y0182177D01*
X0159750Y0182377D01*
X0159763Y0182576D01*
X0159782Y0182775D01*
X0159804Y0182974D01*
X0159832Y0183171D01*
X0159865Y0183369D01*
X0159902Y0183565D01*
X0159944Y0183760D01*
X0159990Y0183954D01*
X0160042Y0184147D01*
X0160098Y0184339D01*
X0160158Y0184529D01*
X0160223Y0184718D01*
X0160293Y0184905D01*
X0160367Y0185091D01*
X0160446Y0185274D01*
X0160529Y0185456D01*
X0160617Y0185636D01*
X0160708Y0185813D01*
X0160804Y0185988D01*
X0160905Y0186161D01*
X0161009Y0186331D01*
X0161118Y0186499D01*
X0161230Y0186664D01*
X0161346Y0186826D01*
X0161467Y0186985D01*
X0161591Y0187142D01*
X0161719Y0187295D01*
X0161850Y0187446D01*
X0161986Y0187593D01*
X0162124Y0187736D01*
X0162266Y0187877D01*
X0162412Y0188014D01*
X0162561Y0188147D01*
X0162713Y0188277D01*
X0162868Y0188403D01*
X0163026Y0188525D01*
X0163187Y0188643D01*
X0163350Y0188757D01*
X0163517Y0188868D01*
X0163686Y0188974D01*
X0163857Y0189076D01*
X0163904Y0188995D01*
X0163734Y0188894D01*
X0163567Y0188789D01*
X0163403Y0188679D01*
X0163241Y0188566D01*
X0163082Y0188449D01*
X0162926Y0188329D01*
X0162772Y0188204D01*
X0162622Y0188076D01*
X0162475Y0187944D01*
X0162331Y0187809D01*
X0162191Y0187670D01*
X0162054Y0187528D01*
X0161920Y0187383D01*
X0161790Y0187234D01*
X0161664Y0187082D01*
X0161541Y0186928D01*
X0161422Y0186770D01*
X0161307Y0186610D01*
X0161196Y0186447D01*
X0161089Y0186281D01*
X0160985Y0186113D01*
X0160886Y0185942D01*
X0160791Y0185769D01*
X0160701Y0185593D01*
X0160614Y0185416D01*
X0160532Y0185236D01*
X0160454Y0185055D01*
X0160381Y0184872D01*
X0160312Y0184687D01*
X0160248Y0184500D01*
X0160188Y0184312D01*
X0160132Y0184122D01*
X0160082Y0183932D01*
X0160035Y0183740D01*
X0159994Y0183547D01*
X0159957Y0183353D01*
X0159925Y0183158D01*
X0159898Y0182962D01*
X0159875Y0182766D01*
X0159857Y0182569D01*
X0159844Y0182372D01*
X0159836Y0182175D01*
X0159832Y0181978D01*
X0159926Y0181978D01*
X0159930Y0182173D01*
X0159938Y0182368D01*
X0159951Y0182563D01*
X0159969Y0182757D01*
X0159991Y0182951D01*
X0160018Y0183144D01*
X0160050Y0183337D01*
X0160086Y0183528D01*
X0160127Y0183719D01*
X0160173Y0183909D01*
X0160223Y0184097D01*
X0160278Y0184285D01*
X0160337Y0184471D01*
X0160400Y0184655D01*
X0160469Y0184838D01*
X0160541Y0185019D01*
X0160618Y0185198D01*
X0160699Y0185376D01*
X0160785Y0185551D01*
X0160874Y0185725D01*
X0160968Y0185896D01*
X0161066Y0186064D01*
X0161168Y0186231D01*
X0161274Y0186395D01*
X0161384Y0186556D01*
X0161498Y0186714D01*
X0161615Y0186870D01*
X0161737Y0187023D01*
X0161862Y0187173D01*
X0161990Y0187320D01*
X0162122Y0187463D01*
X0162258Y0187604D01*
X0162397Y0187741D01*
X0162539Y0187875D01*
X0162684Y0188005D01*
X0162832Y0188132D01*
X0162984Y0188255D01*
X0163138Y0188374D01*
X0163295Y0188490D01*
X0163455Y0188601D01*
X0163618Y0188709D01*
X0163783Y0188813D01*
X0163951Y0188913D01*
X0163997Y0188832D01*
X0163832Y0188733D01*
X0163668Y0188630D01*
X0163508Y0188523D01*
X0163350Y0188413D01*
X0163194Y0188299D01*
X0163042Y0188181D01*
X0162892Y0188059D01*
X0162746Y0187934D01*
X0162602Y0187805D01*
X0162462Y0187673D01*
X0162324Y0187538D01*
X0162190Y0187399D01*
X0162060Y0187257D01*
X0161933Y0187112D01*
X0161809Y0186964D01*
X0161690Y0186813D01*
X0161573Y0186659D01*
X0161461Y0186502D01*
X0161352Y0186343D01*
X0161248Y0186181D01*
X0161147Y0186016D01*
X0161050Y0185850D01*
X0160957Y0185680D01*
X0160869Y0185509D01*
X0160784Y0185336D01*
X0160704Y0185160D01*
X0160628Y0184983D01*
X0160556Y0184804D01*
X0160489Y0184623D01*
X0160426Y0184441D01*
X0160368Y0184257D01*
X0160314Y0184072D01*
X0160264Y0183886D01*
X0160219Y0183698D01*
X0160178Y0183510D01*
X0160142Y0183321D01*
X0160111Y0183130D01*
X0160084Y0182939D01*
X0160062Y0182748D01*
X0160045Y0182556D01*
X0160032Y0182363D01*
X0160024Y0182171D01*
X0160020Y0181978D01*
X0160114Y0181978D01*
X0160118Y0182168D01*
X0160126Y0182359D01*
X0160138Y0182549D01*
X0160156Y0182739D01*
X0160178Y0182928D01*
X0160204Y0183116D01*
X0160235Y0183304D01*
X0160271Y0183492D01*
X0160311Y0183678D01*
X0160355Y0183863D01*
X0160404Y0184047D01*
X0160458Y0184230D01*
X0160515Y0184412D01*
X0160578Y0184592D01*
X0160644Y0184770D01*
X0160715Y0184947D01*
X0160790Y0185122D01*
X0160869Y0185296D01*
X0160953Y0185467D01*
X0161040Y0185636D01*
X0161132Y0185803D01*
X0161228Y0185968D01*
X0161327Y0186131D01*
X0161431Y0186291D01*
X0161538Y0186448D01*
X0161649Y0186603D01*
X0161764Y0186755D01*
X0161882Y0186904D01*
X0162004Y0187050D01*
X0162130Y0187194D01*
X0162259Y0187334D01*
X0162391Y0187471D01*
X0162527Y0187605D01*
X0162665Y0187736D01*
X0162807Y0187863D01*
X0162952Y0187987D01*
X0163100Y0188107D01*
X0163251Y0188223D01*
X0163404Y0188336D01*
X0163560Y0188445D01*
X0163719Y0188551D01*
X0163880Y0188652D01*
X0164044Y0188750D01*
X0164091Y0188668D01*
X0163929Y0188572D01*
X0163770Y0188472D01*
X0163613Y0188368D01*
X0163458Y0188260D01*
X0163307Y0188148D01*
X0163158Y0188033D01*
X0163012Y0187914D01*
X0162869Y0187792D01*
X0162729Y0187666D01*
X0162592Y0187537D01*
X0162458Y0187405D01*
X0162327Y0187269D01*
X0162200Y0187131D01*
X0162076Y0186989D01*
X0161955Y0186845D01*
X0161838Y0186697D01*
X0161725Y0186547D01*
X0161615Y0186394D01*
X0161509Y0186238D01*
X0161407Y0186080D01*
X0161308Y0185920D01*
X0161214Y0185757D01*
X0161123Y0185592D01*
X0161037Y0185425D01*
X0160954Y0185256D01*
X0160876Y0185085D01*
X0160802Y0184912D01*
X0160732Y0184737D01*
X0160666Y0184560D01*
X0160605Y0184382D01*
X0160548Y0184203D01*
X0160495Y0184022D01*
X0160446Y0183840D01*
X0160402Y0183657D01*
X0160363Y0183473D01*
X0160328Y0183288D01*
X0160297Y0183103D01*
X0160271Y0182916D01*
X0160249Y0182729D01*
X0160232Y0182542D01*
X0160220Y0182354D01*
X0160212Y0182166D01*
X0160208Y0181978D01*
X0160302Y0181978D01*
X0160306Y0182164D01*
X0160314Y0182349D01*
X0160326Y0182535D01*
X0160343Y0182720D01*
X0160364Y0182905D01*
X0160390Y0183089D01*
X0160420Y0183272D01*
X0160455Y0183455D01*
X0160494Y0183637D01*
X0160538Y0183818D01*
X0160585Y0183997D01*
X0160638Y0184176D01*
X0160694Y0184353D01*
X0160755Y0184529D01*
X0160820Y0184703D01*
X0160889Y0184876D01*
X0160962Y0185047D01*
X0161039Y0185216D01*
X0161121Y0185383D01*
X0161206Y0185548D01*
X0161296Y0185711D01*
X0161389Y0185872D01*
X0161486Y0186030D01*
X0161587Y0186186D01*
X0161692Y0186340D01*
X0161800Y0186491D01*
X0161912Y0186640D01*
X0162028Y0186785D01*
X0162147Y0186928D01*
X0162269Y0187068D01*
X0162395Y0187205D01*
X0162524Y0187339D01*
X0162657Y0187469D01*
X0162792Y0187597D01*
X0162930Y0187721D01*
X0163072Y0187842D01*
X0163216Y0187959D01*
X0163363Y0188073D01*
X0163513Y0188183D01*
X0163665Y0188290D01*
X0163820Y0188392D01*
X0163978Y0188491D01*
X0164137Y0188587D01*
X0164184Y0188505D01*
X0164026Y0188411D01*
X0163871Y0188313D01*
X0163718Y0188212D01*
X0163567Y0188106D01*
X0163419Y0187997D01*
X0163274Y0187885D01*
X0163132Y0187769D01*
X0162992Y0187650D01*
X0162855Y0187527D01*
X0162722Y0187401D01*
X0162591Y0187272D01*
X0162463Y0187140D01*
X0162339Y0187005D01*
X0162218Y0186867D01*
X0162101Y0186726D01*
X0161987Y0186582D01*
X0161876Y0186435D01*
X0161769Y0186286D01*
X0161665Y0186134D01*
X0161566Y0185980D01*
X0161470Y0185824D01*
X0161378Y0185665D01*
X0161289Y0185504D01*
X0161205Y0185341D01*
X0161124Y0185176D01*
X0161048Y0185009D01*
X0160976Y0184840D01*
X0160907Y0184669D01*
X0160843Y0184497D01*
X0160783Y0184324D01*
X0160727Y0184149D01*
X0160676Y0183972D01*
X0160629Y0183795D01*
X0160586Y0183616D01*
X0160547Y0183437D01*
X0160513Y0183256D01*
X0160483Y0183075D01*
X0160458Y0182893D01*
X0160436Y0182711D01*
X0160420Y0182528D01*
X0160407Y0182345D01*
X0160400Y0182161D01*
X0160396Y0181978D01*
X0159551Y0181878D02*
X0160451Y0181878D01*
X0160450Y0181877D02*
X0160454Y0181693D01*
X0160462Y0181508D01*
X0160474Y0181324D01*
X0160491Y0181141D01*
X0160513Y0180957D01*
X0160538Y0180775D01*
X0160569Y0180593D01*
X0160604Y0180412D01*
X0160643Y0180231D01*
X0160687Y0180052D01*
X0160735Y0179874D01*
X0160787Y0179697D01*
X0160844Y0179521D01*
X0160904Y0179347D01*
X0160970Y0179175D01*
X0161039Y0179004D01*
X0161112Y0178834D01*
X0161190Y0178667D01*
X0161272Y0178502D01*
X0161357Y0178338D01*
X0161447Y0178177D01*
X0161541Y0178018D01*
X0161638Y0177861D01*
X0161739Y0177707D01*
X0161844Y0177555D01*
X0161953Y0177406D01*
X0162065Y0177260D01*
X0162181Y0177116D01*
X0162300Y0176976D01*
X0162423Y0176838D01*
X0162549Y0176703D01*
X0162678Y0176571D01*
X0162811Y0176443D01*
X0162946Y0176318D01*
X0163085Y0176196D01*
X0162504Y0175509D01*
X0162348Y0175645D01*
X0162196Y0175786D01*
X0162047Y0175930D01*
X0161902Y0176077D01*
X0161761Y0176228D01*
X0161624Y0176382D01*
X0161490Y0176540D01*
X0161360Y0176701D01*
X0161234Y0176865D01*
X0161112Y0177032D01*
X0160994Y0177202D01*
X0160881Y0177375D01*
X0160772Y0177551D01*
X0160667Y0177729D01*
X0160566Y0177910D01*
X0160470Y0178093D01*
X0160378Y0178278D01*
X0160291Y0178466D01*
X0160209Y0178656D01*
X0160131Y0178847D01*
X0160058Y0179041D01*
X0159990Y0179236D01*
X0159926Y0179433D01*
X0159868Y0179631D01*
X0159814Y0179831D01*
X0159765Y0180032D01*
X0159721Y0180234D01*
X0159682Y0180437D01*
X0159648Y0180641D01*
X0159619Y0180846D01*
X0159595Y0181051D01*
X0159577Y0181257D01*
X0159563Y0181464D01*
X0159554Y0181670D01*
X0159550Y0181877D01*
X0159644Y0181877D01*
X0159648Y0181673D01*
X0159657Y0181468D01*
X0159670Y0181264D01*
X0159689Y0181061D01*
X0159713Y0180858D01*
X0159741Y0180655D01*
X0159775Y0180453D01*
X0159813Y0180253D01*
X0159857Y0180053D01*
X0159905Y0179854D01*
X0159958Y0179657D01*
X0160016Y0179460D01*
X0160079Y0179266D01*
X0160147Y0179073D01*
X0160219Y0178881D01*
X0160296Y0178692D01*
X0160377Y0178504D01*
X0160463Y0178319D01*
X0160554Y0178136D01*
X0160649Y0177954D01*
X0160748Y0177776D01*
X0160852Y0177600D01*
X0160960Y0177426D01*
X0161072Y0177255D01*
X0161189Y0177087D01*
X0161309Y0176922D01*
X0161434Y0176759D01*
X0161562Y0176600D01*
X0161694Y0176444D01*
X0161830Y0176292D01*
X0161970Y0176142D01*
X0162113Y0175997D01*
X0162260Y0175854D01*
X0162411Y0175716D01*
X0162564Y0175581D01*
X0162625Y0175652D01*
X0162473Y0175786D01*
X0162324Y0175923D01*
X0162179Y0176064D01*
X0162038Y0176208D01*
X0161899Y0176355D01*
X0161765Y0176506D01*
X0161634Y0176660D01*
X0161507Y0176818D01*
X0161384Y0176978D01*
X0161265Y0177142D01*
X0161150Y0177308D01*
X0161039Y0177477D01*
X0160932Y0177648D01*
X0160830Y0177823D01*
X0160731Y0177999D01*
X0160637Y0178178D01*
X0160548Y0178360D01*
X0160463Y0178543D01*
X0160382Y0178728D01*
X0160306Y0178916D01*
X0160235Y0179105D01*
X0160168Y0179296D01*
X0160106Y0179488D01*
X0160049Y0179682D01*
X0159996Y0179877D01*
X0159949Y0180074D01*
X0159906Y0180271D01*
X0159868Y0180470D01*
X0159834Y0180669D01*
X0159806Y0180869D01*
X0159783Y0181070D01*
X0159764Y0181271D01*
X0159750Y0181473D01*
X0159742Y0181675D01*
X0159738Y0181877D01*
X0159832Y0181877D01*
X0159836Y0181677D01*
X0159844Y0181478D01*
X0159858Y0181278D01*
X0159876Y0181079D01*
X0159899Y0180881D01*
X0159927Y0180683D01*
X0159960Y0180486D01*
X0159998Y0180290D01*
X0160040Y0180094D01*
X0160087Y0179900D01*
X0160139Y0179707D01*
X0160196Y0179516D01*
X0160257Y0179325D01*
X0160323Y0179137D01*
X0160394Y0178950D01*
X0160469Y0178765D01*
X0160549Y0178581D01*
X0160633Y0178400D01*
X0160721Y0178221D01*
X0160814Y0178044D01*
X0160911Y0177869D01*
X0161013Y0177697D01*
X0161118Y0177528D01*
X0161228Y0177360D01*
X0161342Y0177196D01*
X0161459Y0177035D01*
X0161581Y0176876D01*
X0161706Y0176721D01*
X0161836Y0176568D01*
X0161969Y0176419D01*
X0162105Y0176273D01*
X0162245Y0176131D01*
X0162389Y0175992D01*
X0162536Y0175856D01*
X0162686Y0175724D01*
X0162746Y0175796D01*
X0162598Y0175926D01*
X0162453Y0176060D01*
X0162311Y0176198D01*
X0162173Y0176339D01*
X0162038Y0176483D01*
X0161906Y0176630D01*
X0161779Y0176781D01*
X0161655Y0176935D01*
X0161534Y0177091D01*
X0161418Y0177251D01*
X0161306Y0177413D01*
X0161197Y0177578D01*
X0161093Y0177746D01*
X0160993Y0177916D01*
X0160897Y0178089D01*
X0160805Y0178264D01*
X0160717Y0178441D01*
X0160634Y0178620D01*
X0160556Y0178801D01*
X0160481Y0178984D01*
X0160412Y0179169D01*
X0160347Y0179355D01*
X0160286Y0179543D01*
X0160230Y0179733D01*
X0160179Y0179923D01*
X0160132Y0180115D01*
X0160090Y0180308D01*
X0160053Y0180502D01*
X0160020Y0180697D01*
X0159993Y0180893D01*
X0159970Y0181089D01*
X0159952Y0181285D01*
X0159938Y0181482D01*
X0159930Y0181680D01*
X0159926Y0181877D01*
X0160020Y0181877D01*
X0160024Y0181682D01*
X0160032Y0181487D01*
X0160045Y0181292D01*
X0160063Y0181098D01*
X0160086Y0180904D01*
X0160113Y0180711D01*
X0160145Y0180518D01*
X0160182Y0180327D01*
X0160224Y0180136D01*
X0160270Y0179946D01*
X0160320Y0179758D01*
X0160376Y0179571D01*
X0160436Y0179385D01*
X0160500Y0179201D01*
X0160569Y0179018D01*
X0160642Y0178837D01*
X0160720Y0178658D01*
X0160802Y0178481D01*
X0160889Y0178306D01*
X0160979Y0178134D01*
X0161074Y0177963D01*
X0161173Y0177795D01*
X0161276Y0177629D01*
X0161383Y0177466D01*
X0161494Y0177305D01*
X0161609Y0177148D01*
X0161728Y0176993D01*
X0161851Y0176841D01*
X0161977Y0176692D01*
X0162107Y0176546D01*
X0162240Y0176404D01*
X0162377Y0176265D01*
X0162517Y0176129D01*
X0162661Y0175997D01*
X0162807Y0175868D01*
X0162868Y0175940D01*
X0162723Y0176067D01*
X0162581Y0176198D01*
X0162443Y0176332D01*
X0162308Y0176469D01*
X0162176Y0176610D01*
X0162048Y0176754D01*
X0161923Y0176901D01*
X0161802Y0177051D01*
X0161685Y0177204D01*
X0161571Y0177360D01*
X0161461Y0177519D01*
X0161355Y0177680D01*
X0161254Y0177844D01*
X0161156Y0178010D01*
X0161062Y0178178D01*
X0160972Y0178349D01*
X0160887Y0178522D01*
X0160806Y0178697D01*
X0160729Y0178874D01*
X0160657Y0179052D01*
X0160588Y0179233D01*
X0160525Y0179415D01*
X0160466Y0179598D01*
X0160411Y0179783D01*
X0160361Y0179969D01*
X0160315Y0180157D01*
X0160274Y0180345D01*
X0160238Y0180535D01*
X0160206Y0180725D01*
X0160179Y0180916D01*
X0160157Y0181107D01*
X0160139Y0181299D01*
X0160126Y0181492D01*
X0160118Y0181684D01*
X0160114Y0181877D01*
X0160208Y0181877D01*
X0160212Y0181687D01*
X0160220Y0181496D01*
X0160233Y0181306D01*
X0160250Y0181117D01*
X0160272Y0180927D01*
X0160299Y0180739D01*
X0160330Y0180551D01*
X0160366Y0180364D01*
X0160407Y0180178D01*
X0160452Y0179993D01*
X0160501Y0179809D01*
X0160556Y0179626D01*
X0160614Y0179445D01*
X0160677Y0179265D01*
X0160744Y0179087D01*
X0160816Y0178910D01*
X0160892Y0178735D01*
X0160972Y0178563D01*
X0161056Y0178392D01*
X0161145Y0178223D01*
X0161237Y0178057D01*
X0161334Y0177892D01*
X0161434Y0177731D01*
X0161539Y0177571D01*
X0161647Y0177415D01*
X0161760Y0177261D01*
X0161876Y0177110D01*
X0161995Y0176961D01*
X0162118Y0176816D01*
X0162245Y0176674D01*
X0162375Y0176535D01*
X0162509Y0176399D01*
X0162645Y0176266D01*
X0162785Y0176137D01*
X0162929Y0176011D01*
X0162989Y0176083D01*
X0162848Y0176207D01*
X0162710Y0176335D01*
X0162575Y0176466D01*
X0162443Y0176600D01*
X0162314Y0176737D01*
X0162189Y0176878D01*
X0162067Y0177022D01*
X0161949Y0177168D01*
X0161835Y0177317D01*
X0161724Y0177469D01*
X0161617Y0177624D01*
X0161514Y0177781D01*
X0161414Y0177941D01*
X0161319Y0178103D01*
X0161227Y0178268D01*
X0161140Y0178434D01*
X0161057Y0178603D01*
X0160977Y0178774D01*
X0160902Y0178946D01*
X0160832Y0179121D01*
X0160765Y0179297D01*
X0160703Y0179474D01*
X0160645Y0179654D01*
X0160592Y0179834D01*
X0160543Y0180016D01*
X0160499Y0180198D01*
X0160459Y0180382D01*
X0160423Y0180567D01*
X0160392Y0180753D01*
X0160366Y0180939D01*
X0160344Y0181126D01*
X0160327Y0181313D01*
X0160314Y0181501D01*
X0160306Y0181689D01*
X0160302Y0181877D01*
X0160396Y0181877D01*
X0160400Y0181691D01*
X0160408Y0181506D01*
X0160420Y0181320D01*
X0160437Y0181135D01*
X0160459Y0180951D01*
X0160485Y0180767D01*
X0160516Y0180583D01*
X0160551Y0180401D01*
X0160590Y0180219D01*
X0160634Y0180039D01*
X0160683Y0179859D01*
X0160735Y0179681D01*
X0160792Y0179504D01*
X0160854Y0179329D01*
X0160919Y0179155D01*
X0160989Y0178983D01*
X0161063Y0178812D01*
X0161141Y0178644D01*
X0161224Y0178477D01*
X0161310Y0178313D01*
X0161400Y0178150D01*
X0161495Y0177990D01*
X0161593Y0177832D01*
X0161695Y0177677D01*
X0161800Y0177524D01*
X0161910Y0177374D01*
X0162023Y0177226D01*
X0162140Y0177082D01*
X0162260Y0176940D01*
X0162383Y0176801D01*
X0162510Y0176665D01*
X0162640Y0176533D01*
X0162774Y0176404D01*
X0162910Y0176277D01*
X0163050Y0176155D01*
X0173448Y0175469D02*
X0172871Y0176161D01*
X0172872Y0176160D02*
X0173009Y0176279D01*
X0173143Y0176400D01*
X0173274Y0176525D01*
X0173402Y0176653D01*
X0173526Y0176784D01*
X0173648Y0176918D01*
X0173767Y0177055D01*
X0173882Y0177194D01*
X0173993Y0177337D01*
X0174102Y0177482D01*
X0174207Y0177629D01*
X0174308Y0177779D01*
X0174405Y0177931D01*
X0174499Y0178086D01*
X0174590Y0178243D01*
X0174676Y0178402D01*
X0174759Y0178563D01*
X0174837Y0178726D01*
X0174912Y0178891D01*
X0174983Y0179057D01*
X0175050Y0179225D01*
X0175112Y0179395D01*
X0175171Y0179566D01*
X0175226Y0179739D01*
X0175276Y0179912D01*
X0175322Y0180087D01*
X0175364Y0180263D01*
X0175402Y0180440D01*
X0175435Y0180618D01*
X0175465Y0180797D01*
X0175490Y0180976D01*
X0175510Y0181156D01*
X0175527Y0181336D01*
X0175539Y0181516D01*
X0175546Y0181697D01*
X0175550Y0181878D01*
X0176449Y0181879D01*
X0176450Y0181878D01*
X0176446Y0181675D01*
X0176438Y0181473D01*
X0176424Y0181270D01*
X0176406Y0181068D01*
X0176383Y0180867D01*
X0176355Y0180666D01*
X0176322Y0180466D01*
X0176285Y0180266D01*
X0176243Y0180068D01*
X0176196Y0179870D01*
X0176144Y0179674D01*
X0176087Y0179480D01*
X0176026Y0179286D01*
X0175961Y0179094D01*
X0175890Y0178904D01*
X0175815Y0178715D01*
X0175736Y0178529D01*
X0175652Y0178344D01*
X0175564Y0178161D01*
X0175471Y0177981D01*
X0175375Y0177803D01*
X0175273Y0177627D01*
X0175168Y0177454D01*
X0175059Y0177283D01*
X0174945Y0177115D01*
X0174828Y0176949D01*
X0174706Y0176787D01*
X0174581Y0176627D01*
X0174452Y0176471D01*
X0174319Y0176318D01*
X0174182Y0176168D01*
X0174042Y0176021D01*
X0173899Y0175878D01*
X0173752Y0175738D01*
X0173602Y0175601D01*
X0173448Y0175469D01*
X0173388Y0175541D01*
X0173540Y0175672D01*
X0173688Y0175807D01*
X0173833Y0175945D01*
X0173975Y0176087D01*
X0174114Y0176232D01*
X0174249Y0176380D01*
X0174380Y0176532D01*
X0174508Y0176687D01*
X0174632Y0176844D01*
X0174752Y0177005D01*
X0174868Y0177168D01*
X0174980Y0177335D01*
X0175088Y0177503D01*
X0175193Y0177675D01*
X0175293Y0177849D01*
X0175388Y0178025D01*
X0175480Y0178203D01*
X0175567Y0178384D01*
X0175650Y0178567D01*
X0175729Y0178751D01*
X0175803Y0178937D01*
X0175872Y0179126D01*
X0175937Y0179315D01*
X0175997Y0179507D01*
X0176053Y0179699D01*
X0176104Y0179893D01*
X0176151Y0180088D01*
X0176193Y0180284D01*
X0176230Y0180481D01*
X0176262Y0180679D01*
X0176290Y0180878D01*
X0176313Y0181077D01*
X0176331Y0181277D01*
X0176344Y0181477D01*
X0176352Y0181678D01*
X0176356Y0181878D01*
X0176262Y0181878D01*
X0176258Y0181680D01*
X0176250Y0181482D01*
X0176237Y0181284D01*
X0176219Y0181086D01*
X0176196Y0180889D01*
X0176169Y0180693D01*
X0176137Y0180497D01*
X0176101Y0180303D01*
X0176059Y0180109D01*
X0176013Y0179916D01*
X0175963Y0179724D01*
X0175907Y0179534D01*
X0175848Y0179345D01*
X0175783Y0179157D01*
X0175715Y0178971D01*
X0175642Y0178787D01*
X0175564Y0178604D01*
X0175482Y0178424D01*
X0175396Y0178245D01*
X0175305Y0178069D01*
X0175211Y0177895D01*
X0175112Y0177723D01*
X0175009Y0177553D01*
X0174902Y0177386D01*
X0174791Y0177222D01*
X0174676Y0177061D01*
X0174557Y0176902D01*
X0174435Y0176746D01*
X0174309Y0176593D01*
X0174179Y0176443D01*
X0174045Y0176296D01*
X0173908Y0176153D01*
X0173768Y0176013D01*
X0173625Y0175876D01*
X0173478Y0175743D01*
X0173328Y0175613D01*
X0173268Y0175685D01*
X0173416Y0175814D01*
X0173561Y0175945D01*
X0173703Y0176080D01*
X0173841Y0176219D01*
X0173977Y0176361D01*
X0174109Y0176506D01*
X0174237Y0176654D01*
X0174362Y0176805D01*
X0174483Y0176959D01*
X0174600Y0177116D01*
X0174714Y0177276D01*
X0174823Y0177438D01*
X0174929Y0177603D01*
X0175031Y0177771D01*
X0175129Y0177941D01*
X0175222Y0178113D01*
X0175312Y0178287D01*
X0175397Y0178464D01*
X0175478Y0178642D01*
X0175555Y0178822D01*
X0175627Y0179005D01*
X0175695Y0179188D01*
X0175758Y0179374D01*
X0175817Y0179561D01*
X0175872Y0179749D01*
X0175922Y0179938D01*
X0175967Y0180129D01*
X0176008Y0180321D01*
X0176045Y0180513D01*
X0176076Y0180707D01*
X0176103Y0180901D01*
X0176125Y0181096D01*
X0176143Y0181291D01*
X0176156Y0181486D01*
X0176164Y0181682D01*
X0176168Y0181878D01*
X0176074Y0181878D01*
X0176070Y0181684D01*
X0176062Y0181491D01*
X0176049Y0181298D01*
X0176032Y0181105D01*
X0176010Y0180912D01*
X0175983Y0180720D01*
X0175952Y0180529D01*
X0175916Y0180339D01*
X0175876Y0180149D01*
X0175831Y0179961D01*
X0175781Y0179774D01*
X0175727Y0179588D01*
X0175669Y0179403D01*
X0175606Y0179220D01*
X0175539Y0179038D01*
X0175468Y0178858D01*
X0175392Y0178680D01*
X0175312Y0178503D01*
X0175228Y0178329D01*
X0175139Y0178157D01*
X0175047Y0177987D01*
X0174950Y0177819D01*
X0174849Y0177653D01*
X0174745Y0177490D01*
X0174637Y0177330D01*
X0174524Y0177172D01*
X0174408Y0177017D01*
X0174289Y0176864D01*
X0174165Y0176715D01*
X0174039Y0176568D01*
X0173908Y0176425D01*
X0173775Y0176285D01*
X0173638Y0176148D01*
X0173497Y0176015D01*
X0173354Y0175884D01*
X0173207Y0175758D01*
X0173147Y0175830D01*
X0173292Y0175955D01*
X0173434Y0176084D01*
X0173572Y0176216D01*
X0173708Y0176351D01*
X0173840Y0176490D01*
X0173969Y0176631D01*
X0174094Y0176776D01*
X0174216Y0176923D01*
X0174334Y0177074D01*
X0174449Y0177227D01*
X0174559Y0177383D01*
X0174667Y0177542D01*
X0174770Y0177703D01*
X0174869Y0177867D01*
X0174965Y0178033D01*
X0175056Y0178201D01*
X0175143Y0178371D01*
X0175227Y0178543D01*
X0175306Y0178718D01*
X0175381Y0178894D01*
X0175451Y0179072D01*
X0175518Y0179251D01*
X0175580Y0179432D01*
X0175637Y0179615D01*
X0175691Y0179799D01*
X0175740Y0179984D01*
X0175784Y0180170D01*
X0175824Y0180357D01*
X0175859Y0180545D01*
X0175890Y0180734D01*
X0175917Y0180924D01*
X0175938Y0181114D01*
X0175956Y0181304D01*
X0175968Y0181495D01*
X0175976Y0181687D01*
X0175980Y0181878D01*
X0175886Y0181878D01*
X0175882Y0181689D01*
X0175874Y0181500D01*
X0175862Y0181311D01*
X0175845Y0181123D01*
X0175823Y0180935D01*
X0175797Y0180748D01*
X0175767Y0180561D01*
X0175732Y0180375D01*
X0175692Y0180190D01*
X0175648Y0180006D01*
X0175600Y0179824D01*
X0175547Y0179642D01*
X0175490Y0179462D01*
X0175429Y0179283D01*
X0175363Y0179105D01*
X0175294Y0178929D01*
X0175220Y0178755D01*
X0175142Y0178583D01*
X0175059Y0178413D01*
X0174973Y0178245D01*
X0174883Y0178079D01*
X0174788Y0177915D01*
X0174690Y0177753D01*
X0174588Y0177594D01*
X0174482Y0177437D01*
X0174373Y0177283D01*
X0174259Y0177131D01*
X0174143Y0176983D01*
X0174022Y0176837D01*
X0173899Y0176694D01*
X0173771Y0176554D01*
X0173641Y0176417D01*
X0173507Y0176283D01*
X0173370Y0176153D01*
X0173230Y0176026D01*
X0173087Y0175902D01*
X0173027Y0175974D01*
X0173168Y0176097D01*
X0173306Y0176222D01*
X0173442Y0176351D01*
X0173574Y0176483D01*
X0173703Y0176618D01*
X0173828Y0176757D01*
X0173951Y0176898D01*
X0174070Y0177042D01*
X0174185Y0177189D01*
X0174297Y0177338D01*
X0174405Y0177491D01*
X0174510Y0177646D01*
X0174610Y0177803D01*
X0174707Y0177963D01*
X0174801Y0178124D01*
X0174890Y0178289D01*
X0174975Y0178455D01*
X0175056Y0178623D01*
X0175134Y0178793D01*
X0175207Y0178965D01*
X0175276Y0179139D01*
X0175340Y0179314D01*
X0175401Y0179491D01*
X0175457Y0179669D01*
X0175509Y0179848D01*
X0175557Y0180029D01*
X0175600Y0180211D01*
X0175639Y0180393D01*
X0175674Y0180577D01*
X0175704Y0180761D01*
X0175730Y0180946D01*
X0175751Y0181132D01*
X0175768Y0181318D01*
X0175780Y0181505D01*
X0175788Y0181691D01*
X0175792Y0181878D01*
X0175698Y0181878D01*
X0175694Y0181694D01*
X0175687Y0181509D01*
X0175674Y0181325D01*
X0175658Y0181141D01*
X0175637Y0180958D01*
X0175611Y0180775D01*
X0175581Y0180593D01*
X0175547Y0180412D01*
X0175509Y0180231D01*
X0175466Y0180052D01*
X0175419Y0179873D01*
X0175367Y0179696D01*
X0175312Y0179520D01*
X0175252Y0179345D01*
X0175188Y0179172D01*
X0175120Y0179001D01*
X0175048Y0178831D01*
X0174971Y0178663D01*
X0174891Y0178497D01*
X0174807Y0178333D01*
X0174719Y0178170D01*
X0174627Y0178010D01*
X0174531Y0177853D01*
X0174431Y0177697D01*
X0174328Y0177544D01*
X0174221Y0177394D01*
X0174111Y0177246D01*
X0173997Y0177101D01*
X0173879Y0176959D01*
X0173758Y0176819D01*
X0173634Y0176683D01*
X0173507Y0176549D01*
X0173376Y0176419D01*
X0173243Y0176291D01*
X0173106Y0176167D01*
X0172967Y0176047D01*
X0172906Y0176119D01*
X0173044Y0176238D01*
X0173179Y0176361D01*
X0173311Y0176486D01*
X0173440Y0176615D01*
X0173566Y0176747D01*
X0173688Y0176882D01*
X0173808Y0177020D01*
X0173924Y0177160D01*
X0174036Y0177304D01*
X0174145Y0177450D01*
X0174251Y0177598D01*
X0174353Y0177749D01*
X0174451Y0177903D01*
X0174546Y0178058D01*
X0174637Y0178216D01*
X0174724Y0178377D01*
X0174807Y0178539D01*
X0174886Y0178703D01*
X0174961Y0178869D01*
X0175033Y0179037D01*
X0175100Y0179206D01*
X0175163Y0179377D01*
X0175222Y0179549D01*
X0175277Y0179723D01*
X0175328Y0179898D01*
X0175375Y0180074D01*
X0175417Y0180252D01*
X0175455Y0180430D01*
X0175489Y0180609D01*
X0175518Y0180789D01*
X0175543Y0180969D01*
X0175564Y0181150D01*
X0175581Y0181332D01*
X0175593Y0181514D01*
X0175600Y0181696D01*
X0175604Y0181878D01*
D20*
X0174800Y0182209D02*
X0174433Y0182576D01*
X0172965Y0182576D01*
X0172598Y0182209D01*
X0172598Y0181108D01*
X0174800Y0181108D01*
X0174800Y0182209D01*
X0174800Y0183318D02*
X0174800Y0184786D01*
X0174800Y0184052D02*
X0172598Y0184052D01*
X0173332Y0183318D01*
X0172598Y0180366D02*
X0172598Y0178898D01*
X0174800Y0178898D01*
X0174800Y0180366D01*
X0173699Y0179632D02*
X0173699Y0178898D01*
X0174800Y0178156D02*
X0174800Y0176688D01*
X0172598Y0176688D01*
X0117491Y0033329D02*
X0116757Y0033329D01*
X0116390Y0032962D01*
X0115648Y0032962D02*
X0115281Y0033329D01*
X0114180Y0033329D01*
X0114180Y0031128D01*
X0115281Y0031128D01*
X0115648Y0031495D01*
X0115648Y0032962D01*
X0117491Y0033329D02*
X0117858Y0032962D01*
X0117858Y0032595D01*
X0116390Y0031128D01*
X0117858Y0031128D01*
X0113438Y0031128D02*
X0111970Y0031128D01*
X0111970Y0033329D01*
X0113438Y0033329D01*
X0112704Y0032228D02*
X0111970Y0032228D01*
X0111228Y0031128D02*
X0109760Y0031128D01*
X0109760Y0033329D01*
D21*
X0110000Y0033428D02*
X0109800Y0033628D01*
X0109300Y0033628D02*
X0110800Y0033128D01*
X0110300Y0034628D01*
X0109300Y0033628D01*
X0110800Y0033128D02*
X0107800Y0036128D01*
X0109300Y0038628D02*
X0112300Y0035628D01*
X0111800Y0037128D01*
X0110800Y0036128D01*
X0112300Y0035628D01*
X0111800Y0036628D02*
X0111300Y0036128D01*
X0116700Y0034728D02*
X0117200Y0036228D01*
X0118200Y0035228D01*
X0116700Y0034728D01*
X0119700Y0037728D01*
X0122200Y0036228D02*
X0119200Y0033228D01*
X0120700Y0033728D01*
X0119700Y0034728D01*
X0119200Y0033228D01*
X0120200Y0033728D02*
X0119700Y0034228D01*
X0117700Y0035228D02*
X0117200Y0035728D01*
X0117500Y0041428D02*
X0117500Y0044428D01*
X0115000Y0044428D01*
X0112500Y0044428D01*
X0107500Y0047428D01*
X0107500Y0044428D01*
X0105000Y0044428D01*
X0105000Y0042428D01*
X0107500Y0041428D02*
X0107500Y0044428D01*
X0107500Y0041428D02*
X0112500Y0044428D01*
X0112500Y0047428D01*
X0112500Y0044428D02*
X0112500Y0041428D01*
X0115000Y0042428D02*
X0115000Y0044428D01*
X0117500Y0044428D02*
X0117500Y0047428D01*
X0117500Y0044428D02*
X0122500Y0047428D01*
X0122500Y0044428D01*
X0125000Y0044428D01*
X0125000Y0042428D01*
X0122500Y0041428D02*
X0122500Y0044428D01*
X0122500Y0041428D02*
X0117500Y0044428D01*
X0158500Y0044428D02*
X0158500Y0042928D01*
X0158502Y0042868D01*
X0158507Y0042807D01*
X0158516Y0042748D01*
X0158529Y0042689D01*
X0158545Y0042630D01*
X0158565Y0042573D01*
X0158588Y0042518D01*
X0158615Y0042463D01*
X0158644Y0042411D01*
X0158677Y0042360D01*
X0158713Y0042311D01*
X0158751Y0042265D01*
X0158793Y0042221D01*
X0158837Y0042179D01*
X0158883Y0042141D01*
X0158932Y0042105D01*
X0158983Y0042072D01*
X0159035Y0042043D01*
X0159090Y0042016D01*
X0159145Y0041993D01*
X0159202Y0041973D01*
X0159261Y0041957D01*
X0159320Y0041944D01*
X0159379Y0041935D01*
X0159440Y0041930D01*
X0159500Y0041928D01*
X0165500Y0041928D01*
X0165560Y0041930D01*
X0165621Y0041935D01*
X0165680Y0041944D01*
X0165739Y0041957D01*
X0165798Y0041973D01*
X0165855Y0041993D01*
X0165910Y0042016D01*
X0165965Y0042043D01*
X0166017Y0042072D01*
X0166068Y0042105D01*
X0166117Y0042141D01*
X0166163Y0042179D01*
X0166207Y0042221D01*
X0166249Y0042265D01*
X0166287Y0042311D01*
X0166323Y0042360D01*
X0166356Y0042411D01*
X0166385Y0042463D01*
X0166412Y0042518D01*
X0166435Y0042573D01*
X0166455Y0042630D01*
X0166471Y0042689D01*
X0166484Y0042748D01*
X0166493Y0042807D01*
X0166498Y0042868D01*
X0166500Y0042928D01*
X0166500Y0044428D01*
X0166000Y0044928D01*
X0166000Y0058928D01*
X0166500Y0059428D01*
X0166500Y0060928D01*
X0166500Y0059428D01*
X0167000Y0058928D01*
X0167000Y0044928D01*
X0166500Y0044428D01*
X0166500Y0042928D01*
X0166502Y0042868D01*
X0166507Y0042807D01*
X0166516Y0042748D01*
X0166529Y0042689D01*
X0166545Y0042630D01*
X0166565Y0042573D01*
X0166588Y0042518D01*
X0166615Y0042463D01*
X0166644Y0042411D01*
X0166677Y0042360D01*
X0166713Y0042311D01*
X0166751Y0042265D01*
X0166793Y0042221D01*
X0166837Y0042179D01*
X0166883Y0042141D01*
X0166932Y0042105D01*
X0166983Y0042072D01*
X0167035Y0042043D01*
X0167090Y0042016D01*
X0167145Y0041993D01*
X0167202Y0041973D01*
X0167261Y0041957D01*
X0167320Y0041944D01*
X0167379Y0041935D01*
X0167440Y0041930D01*
X0167500Y0041928D01*
X0173500Y0041928D01*
X0173560Y0041930D01*
X0173621Y0041935D01*
X0173680Y0041944D01*
X0173739Y0041957D01*
X0173798Y0041973D01*
X0173855Y0041993D01*
X0173910Y0042016D01*
X0173965Y0042043D01*
X0174017Y0042072D01*
X0174068Y0042105D01*
X0174117Y0042141D01*
X0174163Y0042179D01*
X0174207Y0042221D01*
X0174249Y0042265D01*
X0174287Y0042311D01*
X0174323Y0042360D01*
X0174356Y0042411D01*
X0174385Y0042463D01*
X0174412Y0042518D01*
X0174435Y0042573D01*
X0174455Y0042630D01*
X0174471Y0042689D01*
X0174484Y0042748D01*
X0174493Y0042807D01*
X0174498Y0042868D01*
X0174500Y0042928D01*
X0174500Y0044428D01*
X0174000Y0044928D01*
X0174000Y0058928D01*
X0174500Y0059428D01*
X0174500Y0060928D01*
X0174498Y0060988D01*
X0174493Y0061049D01*
X0174484Y0061108D01*
X0174471Y0061167D01*
X0174455Y0061226D01*
X0174435Y0061283D01*
X0174412Y0061338D01*
X0174385Y0061393D01*
X0174356Y0061445D01*
X0174323Y0061496D01*
X0174287Y0061545D01*
X0174249Y0061591D01*
X0174207Y0061635D01*
X0174163Y0061677D01*
X0174117Y0061715D01*
X0174068Y0061751D01*
X0174017Y0061784D01*
X0173965Y0061813D01*
X0173910Y0061840D01*
X0173855Y0061863D01*
X0173798Y0061883D01*
X0173739Y0061899D01*
X0173680Y0061912D01*
X0173621Y0061921D01*
X0173560Y0061926D01*
X0173500Y0061928D01*
X0167500Y0061928D01*
X0167440Y0061926D01*
X0167379Y0061921D01*
X0167320Y0061912D01*
X0167261Y0061899D01*
X0167202Y0061883D01*
X0167145Y0061863D01*
X0167090Y0061840D01*
X0167035Y0061813D01*
X0166983Y0061784D01*
X0166932Y0061751D01*
X0166883Y0061715D01*
X0166837Y0061677D01*
X0166793Y0061635D01*
X0166751Y0061591D01*
X0166713Y0061545D01*
X0166677Y0061496D01*
X0166644Y0061445D01*
X0166615Y0061393D01*
X0166588Y0061338D01*
X0166565Y0061283D01*
X0166545Y0061226D01*
X0166529Y0061167D01*
X0166516Y0061108D01*
X0166507Y0061049D01*
X0166502Y0060988D01*
X0166500Y0060928D01*
X0166498Y0060988D01*
X0166493Y0061049D01*
X0166484Y0061108D01*
X0166471Y0061167D01*
X0166455Y0061226D01*
X0166435Y0061283D01*
X0166412Y0061338D01*
X0166385Y0061393D01*
X0166356Y0061445D01*
X0166323Y0061496D01*
X0166287Y0061545D01*
X0166249Y0061591D01*
X0166207Y0061635D01*
X0166163Y0061677D01*
X0166117Y0061715D01*
X0166068Y0061751D01*
X0166017Y0061784D01*
X0165965Y0061813D01*
X0165910Y0061840D01*
X0165855Y0061863D01*
X0165798Y0061883D01*
X0165739Y0061899D01*
X0165680Y0061912D01*
X0165621Y0061921D01*
X0165560Y0061926D01*
X0165500Y0061928D01*
X0159500Y0061928D01*
X0159440Y0061926D01*
X0159379Y0061921D01*
X0159320Y0061912D01*
X0159261Y0061899D01*
X0159202Y0061883D01*
X0159145Y0061863D01*
X0159090Y0061840D01*
X0159035Y0061813D01*
X0158983Y0061784D01*
X0158932Y0061751D01*
X0158883Y0061715D01*
X0158837Y0061677D01*
X0158793Y0061635D01*
X0158751Y0061591D01*
X0158713Y0061545D01*
X0158677Y0061496D01*
X0158644Y0061445D01*
X0158615Y0061393D01*
X0158588Y0061338D01*
X0158565Y0061283D01*
X0158545Y0061226D01*
X0158529Y0061167D01*
X0158516Y0061108D01*
X0158507Y0061049D01*
X0158502Y0060988D01*
X0158500Y0060928D01*
X0158500Y0059428D01*
X0159000Y0058928D01*
X0159000Y0044928D01*
X0158500Y0044428D01*
D22*
X0146470Y0043613D02*
X0145019Y0043613D01*
X0144535Y0043129D01*
X0145019Y0042645D01*
X0145986Y0042645D01*
X0146470Y0042161D01*
X0145986Y0041678D01*
X0144535Y0041678D01*
X0143155Y0041678D02*
X0143155Y0043613D01*
X0141220Y0043613D02*
X0141220Y0042161D01*
X0141704Y0041678D01*
X0143155Y0041678D01*
X0139978Y0041678D02*
X0139494Y0042161D01*
X0139494Y0044096D01*
X0139010Y0043613D02*
X0139978Y0043613D01*
X0137631Y0043129D02*
X0137631Y0041678D01*
X0136179Y0041678D01*
X0135696Y0042161D01*
X0136179Y0042645D01*
X0137631Y0042645D01*
X0137631Y0043129D02*
X0137147Y0043613D01*
X0136179Y0043613D01*
X0134453Y0043613D02*
X0133486Y0043613D01*
X0133969Y0044096D02*
X0133969Y0042161D01*
X0134453Y0041678D01*
X0132106Y0042161D02*
X0131622Y0041678D01*
X0130655Y0041678D01*
X0130171Y0042161D01*
X0130655Y0043129D02*
X0131622Y0043129D01*
X0132106Y0042645D01*
X0132106Y0042161D01*
X0130655Y0043129D02*
X0130171Y0043613D01*
X0130171Y0044096D01*
X0130655Y0044580D01*
X0131622Y0044580D01*
X0132106Y0044096D01*
D23*
X0166707Y0200135D02*
X0167414Y0200842D01*
D24*
X0170500Y0062678D03*
X0162500Y0062678D03*
X0162500Y0041178D03*
X0170500Y0041178D03*
M02*
