%
M48
M72
T01C0.03200
T02C0.03543
T03C0.04000
T04C0.07874
T05C0.12598
%
T01
X163525Y196953
X170596Y204024
X168000Y186928
X168000Y176928
X170500Y66928
X162500Y66928
X162500Y36928
X170500Y36928
X125000Y39428
X115000Y39428
X105000Y39428
T02
X113000Y180928
X113000Y170928
X113000Y160928
X113000Y150928
X113000Y140928
X113000Y130928
X113000Y120928
X113000Y110928
X113000Y100928
X113000Y90928
X143000Y90928
X143000Y100928
X143000Y110928
X143000Y120928
X143000Y130928
X143000Y140928
X143000Y150928
X143000Y160928
X143000Y170928
X143000Y180928
T03
X100000Y216928
X110000Y216928
X120000Y216928
X130000Y216928
X140000Y216928
X150000Y216928
X180000Y216928
X180000Y206928
X190000Y206928
X190000Y216928
X190000Y196928
X190000Y186928
X190000Y176928
X180000Y176928
X180000Y186928
X180000Y196928
X180000Y166928
X180000Y156928
X180000Y146928
X190000Y146928
X190000Y156928
X190000Y166928
X190000Y136928
X190000Y126928
X190000Y116928
X180000Y116928
X180000Y126928
X180000Y136928
X180000Y106928
X180000Y96928
X190000Y96928
X190000Y106928
X190000Y86928
X190000Y76928
X190000Y66928
X180000Y66928
X180000Y76928
X180000Y86928
X180000Y56928
X180000Y46928
X190000Y46928
X190000Y56928
X170000Y26928
X160000Y26928
X150000Y26928
X140000Y26928
X130000Y26928
X120000Y26928
X110000Y26928
X100000Y26928
T04
X128000Y199550
X128000Y58526
T05
X165000Y216928
X190000Y26928
M30
